InterAlia-LightItalic.ufo
<glyph name="exclam" format="2">
  <advance height="2479.0" width="558.3333333333334"/>
  <unicode hex="0021"/>
  <outline>
    <contour>
      <point x="507.0" y="1489.0" type="line"/>
      <point x="359.6666666666667" y="1489.0" type="line"/>
      <point x="192.66666666666669" y="426.6666666666667" type="line"/>
      <point x="321.0" y="426.6666666666667" type="line"/>
    </contour>
    <component base="period" xOffset="5.0"/>
  </outline>
</glyph>
<glyph name="numbersign" format="2">
  <advance height="2479.0" width="1293.6666666666667"/>
  <unicode hex="0023"/>
  <outline>
    <contour>
      <point x="747.6666666666667" y="0.0" type="line"/>
      <point x="860.3333333333333" y="0.0" type="line"/>
      <point x="1130.6666666666665" y="1489.0" type="line"/>
      <point x="1018.3333333333334" y="1489.0" type="line"/>
    </contour>
    <contour>
      <point x="64.33333333333333" y="429.6666666666667" type="line"/>
      <point x="1175.3333333333333" y="429.6666666666667" type="line"/>
      <point x="1195.6666666666665" y="542.3333333333334" type="line"/>
      <point x="84.33333333333333" y="542.3333333333334" type="line"/>
    </contour>
    <contour>
      <point x="224.33333333333334" y="0.0" type="line"/>
      <point x="336.3333333333333" y="0.0" type="line"/>
      <point x="607.3333333333334" y="1489.0" type="line"/>
      <point x="494.33333333333337" y="1489.0" type="line"/>
    </contour>
    <contour>
      <point x="159.33333333333334" y="947.3333333333334" type="line"/>
      <point x="1270.3333333333333" y="947.3333333333334" type="line"/>
      <point x="1291.0" y="1059.6666666666667" type="line"/>
      <point x="180.0" y="1059.6666666666667" type="line"/>
    </contour>
  </outline>
</glyph>
<glyph name="dollar" format="2">
  <advance height="2479.0" width="1288.6666666666667"/>
  <unicode hex="0024"/>
  <anchor x="550.0" y="-25.0" name="bottom"/>
  <anchor x="554.3333333333334" y="0.0" name="cedilla"/>
  <anchor x="830.3333333333334" y="1676.0" name="top"/>
  <outline>
    <contour>
      <point x="475.0" y="-186.0" type="line"/>
      <point x="570.3333333333333" y="-186.0" type="line"/>
      <point x="878.6666666666666" y="1676.0" type="line"/>
      <point x="783.6666666666666" y="1676.0" type="line"/>
    </contour>
    <component base="S"/>
  </outline>
</glyph>
<glyph name="percent" format="2">
  <advance height="2479.0" width="1637.0"/>
  <unicode hex="0025"/>
  <anchor x="1091.6666666666665" y="791.0" name="dnom"/>
  <anchor x="597.0" y="698.0" name="numr"/>
  <outline>
    <contour>
      <point x="872.6666666666666" y="276.3333333333333" type="line" smooth="yes"/>
      <point x="843.0" y="110.0"/>
      <point x="927.0" y="-20.0"/>
      <point x="1098.3333333333333" y="-20.0" type="curve" smooth="yes"/>
      <point x="1269.6666666666667" y="-20.0"/>
      <point x="1392.0" y="110.0"/>
      <point x="1421.6666666666667" y="276.3333333333333" type="curve" smooth="yes"/>
      <point x="1433.0" y="344.3333333333333" type="line" smooth="yes"/>
      <point x="1462.6666666666667" y="510.6666666666667"/>
      <point x="1381.0" y="640.6666666666666"/>
      <point x="1209.3333333333333" y="640.6666666666666" type="curve" smooth="yes"/>
      <point x="1038.6666666666665" y="640.6666666666666"/>
      <point x="913.6666666666666" y="510.6666666666667"/>
      <point x="884.0" y="344.3333333333333" type="curve" smooth="yes"/>
    </contour>
    <contour>
      <point x="999.0000000000001" y="344.3333333333333" type="line" smooth="yes"/>
      <point x="1019.0000000000001" y="453.6666666666667"/>
      <point x="1088.3333333333333" y="541.6666666666666"/>
      <point x="1192.3333333333333" y="541.6666666666666" type="curve" smooth="yes"/>
      <point x="1299.3333333333335" y="541.6666666666666"/>
      <point x="1339.0" y="453.6666666666667"/>
      <point x="1318.6666666666667" y="344.3333333333333" type="curve" smooth="yes"/>
      <point x="1307.0" y="276.3333333333333" type="line" smooth="yes"/>
      <point x="1287.3333333333335" y="166.66666666666666"/>
      <point x="1220.3333333333335" y="78.66666666666667"/>
      <point x="1115.3333333333333" y="78.66666666666667" type="curve" smooth="yes"/>
      <point x="1007.6666666666666" y="78.66666666666667"/>
      <point x="967.6666666666667" y="166.66666666666666"/>
      <point x="987.0000000000001" y="276.3333333333333" type="curve" smooth="yes"/>
    </contour>
    <contour>
      <point x="267.0" y="1145.3333333333333" type="line" smooth="yes"/>
      <point x="241.33333333333334" y="978.0"/>
      <point x="321.0" y="848.3333333333334"/>
      <point x="492.66666666666663" y="848.3333333333334" type="curve" smooth="yes"/>
      <point x="663.0" y="848.3333333333334"/>
      <point x="790.0" y="978.0"/>
      <point x="815.6666666666666" y="1145.3333333333333" type="curve" smooth="yes"/>
      <point x="826.0" y="1213.0" type="line" smooth="yes"/>
      <point x="850.6666666666666" y="1379.6666666666667"/>
      <point x="774.0" y="1510.0"/>
      <point x="601.3333333333333" y="1510.0" type="curve" smooth="yes"/>
      <point x="431.33333333333337" y="1510.0"/>
      <point x="302.0" y="1379.6666666666667"/>
      <point x="277.0" y="1213.0" type="curve" smooth="yes"/>
    </contour>
    <contour>
      <point x="392.0" y="1213.0" type="line" smooth="yes"/>
      <point x="408.3333333333333" y="1322.3333333333333"/>
      <point x="479.66666666666663" y="1411.0"/>
      <point x="584.6666666666666" y="1411.0" type="curve" smooth="yes"/>
      <point x="692.3333333333334" y="1411.0"/>
      <point x="728.3333333333334" y="1322.3333333333333"/>
      <point x="712.0" y="1213.0" type="curve" smooth="yes"/>
      <point x="701.0" y="1145.3333333333333" type="line" smooth="yes"/>
      <point x="683.0" y="1035.3333333333333"/>
      <point x="613.6666666666666" y="947.3333333333334"/>
      <point x="508.66666666666663" y="947.3333333333334" type="curve" smooth="yes"/>
      <point x="402.66666666666663" y="947.3333333333334"/>
      <point x="363.0" y="1035.3333333333333"/>
      <point x="381.0" y="1145.3333333333333" type="curve" smooth="yes"/>
    </contour>
    <component base="fraction" xOffset="531.3333333333334"/>
  </outline>
</glyph>
<glyph name="ampersand" format="2">
  <advance height="2479.0" width="1285.6666666666665"/>
  <unicode hex="0026"/>
  <outline>
    <contour>
      <point x="473.00000000000006" y="-20.0" type="curve"/>
      <point x="616.0" y="-20.0"/>
      <point x="780.6666666666666" y="37.0"/>
      <point x="896.6666666666666" y="142.66666666666666" type="curve"/>
      <point x="911.0" y="156.33333333333334"/>
      <point x="927.3333333333333" y="171.33333333333334"/>
      <point x="941.0" y="186.0" type="curve"/>
      <point x="1007.0" y="255.66666666666663"/>
      <point x="1126.0" y="373.3333333333333"/>
      <point x="1172.6666666666667" y="613.0" type="curve"/>
      <point x="1047.0" y="615.0" type="line"/>
      <point x="978.3333333333333" y="301.6666666666667"/>
      <point x="731.6666666666666" y="98.33333333333334"/>
      <point x="485.33333333333337" y="96.0" type="curve" smooth="yes"/>
      <point x="297.0" y="94.33333333333333"/>
      <point x="191.33333333333334" y="230.66666666666666"/>
      <point x="216.66666666666666" y="388.0" type="curve"/>
      <point x="227.0" y="454.6666666666667"/>
      <point x="289.6666666666667" y="552.6666666666666"/>
      <point x="457.0" y="664.3333333333334" type="curve" smooth="yes"/>
      <point x="759.6666666666666" y="866.0" type="line" smooth="yes"/>
      <point x="908.0" y="965.0"/>
      <point x="995.6666666666667" y="1062.6666666666667"/>
      <point x="1017.6666666666667" y="1197.6666666666667" type="curve"/>
      <point x="1046.3333333333335" y="1366.6666666666667"/>
      <point x="936.6666666666666" y="1506.0"/>
      <point x="731.0" y="1506.0" type="curve" smooth="yes"/>
      <point x="528.6666666666667" y="1506.0"/>
      <point x="361.0" y="1366.0"/>
      <point x="330.3333333333333" y="1176.6666666666667" type="curve" smooth="yes"/>
      <point x="305.3333333333333" y="1022.0"/>
      <point x="394.0" y="912.0"/>
      <point x="513.6666666666667" y="728.3333333333334" type="curve" smooth="yes"/>
      <point x="985.3333333333334" y="0.0" type="line"/>
      <point x="1143.0" y="0.0" type="line"/>
      <point x="602.6666666666667" y="840.6666666666666" type="line" smooth="yes"/>
      <point x="516.3333333333334" y="977.0"/>
      <point x="443.3333333333333" y="1072.6666666666667"/>
      <point x="460.0" y="1174.6666666666667" type="curve" smooth="yes"/>
      <point x="478.0" y="1284.0"/>
      <point x="594.3333333333334" y="1391.6666666666667"/>
      <point x="717.6666666666667" y="1391.6666666666667" type="curve" smooth="yes"/>
      <point x="837.6666666666666" y="1391.6666666666667"/>
      <point x="901.3333333333333" y="1297.3333333333333"/>
      <point x="886.0" y="1197.6666666666667" type="curve"/>
      <point x="868.6666666666666" y="1094.6666666666667"/>
      <point x="803.6666666666666" y="1030.6666666666667"/>
      <point x="688.0" y="957.6666666666666" type="curve"/>
      <point x="446.0" y="797.0" type="line"/>
      <point x="238.33333333333334" y="665.6666666666666"/>
      <point x="112.33333333333334" y="556.6666666666666"/>
      <point x="85.33333333333334" y="388.0" type="curve"/>
      <point x="45.333333333333336" y="154.33333333333334"/>
      <point x="198.33333333333334" y="-20.0"/>
    </contour>
  </outline>
</glyph>
<glyph name="quotesingle" format="2">
  <advance height="2479.0" width="347.3333333333333"/>
  <unicode hex="0027"/>
  <outline>
    <contour>
      <point x="401.33333333333337" y="1489.0" type="line"/>
      <point x="254.0" y="1489.0" type="line"/>
      <point x="197.99999999999997" y="992.6666666666666" type="line"/>
      <point x="293.0" y="992.6666666666666" type="line"/>
    </contour>
  </outline>
</glyph>
<glyph name="parenleft" format="2">
  <advance height="2479.0" width="710.0"/>
  <unicode hex="0028"/>
  <outline>
    <contour>
      <point x="236.66666666666666" y="628.0" type="curve" smooth="yes"/>
      <point x="178.66666666666666" y="280.3333333333333"/>
      <point x="219.0" y="-30.333333333333336"/>
      <point x="338.3333333333333" y="-303.0" type="curve"/>
      <point x="455.6666666666667" y="-303.0" type="line"/>
      <point x="353.3333333333333" y="-75.0"/>
      <point x="314.0" y="292.6666666666667"/>
      <point x="370.3333333333333" y="628.0" type="curve" smooth="yes"/>
      <point x="426.3333333333333" y="963.3333333333334"/>
      <point x="584.6666666666666" y="1331.3333333333335"/>
      <point x="764.3333333333334" y="1559.0" type="curve"/>
      <point x="646.6666666666666" y="1559.0" type="line"/>
      <point x="436.3333333333333" y="1287.6666666666667"/>
      <point x="295.0" y="977.6666666666666"/>
    </contour>
  </outline>
</glyph>
<glyph name="asterisk" format="2">
  <advance height="2479.0" width="1024.0"/>
  <unicode hex="002A"/>
  <outline>
    <contour>
      <point x="472.33333333333337" y="652.0" type="line"/>
      <point x="580.6666666666667" y="652.0" type="line"/>
      <point x="631.3333333333334" y="992.3333333333334" type="line"/>
      <point x="893.6666666666666" y="813.6666666666666" type="line"/>
      <point x="962.3333333333334" y="908.3333333333334" type="line"/>
      <point x="689.6666666666666" y="1070.0" type="line"/>
      <point x="1014.3333333333334" y="1232.6666666666667" type="line"/>
      <point x="971.6666666666666" y="1327.3333333333333" type="line"/>
      <point x="656.3333333333334" y="1149.6666666666667" type="line"/>
      <point x="720.3333333333334" y="1489.0" type="line"/>
      <point x="611.6666666666667" y="1489.0" type="line"/>
      <point x="563.6666666666667" y="1148.6666666666667" type="line"/>
      <point x="300.33333333333337" y="1327.3333333333333" type="line"/>
      <point x="232.66666666666666" y="1232.6666666666667" type="line"/>
      <point x="505.3333333333333" y="1071.6666666666667" type="line"/>
      <point x="180.0" y="908.3333333333334" type="line"/>
      <point x="221.0" y="813.6666666666666" type="line"/>
      <point x="538.3333333333334" y="991.3333333333334" type="line"/>
    </contour>
  </outline>
</glyph>
<glyph name="plus" format="2">
  <advance height="2479.0" width="1334.3333333333333"/>
  <unicode hex="002B"/>
  <outline>
    <contour>
      <point x="532.3333333333333" y="121.33333333333333" type="line"/>
      <point x="657.3333333333334" y="121.33333333333333" type="line"/>
      <point x="810.0" y="1042.6666666666667" type="line"/>
      <point x="684.3333333333333" y="1042.6666666666667" type="line"/>
    </contour>
    <contour>
      <point x="200.0" y="519.6666666666666" type="line"/>
      <point x="1121.0" y="519.6666666666666" type="line"/>
      <point x="1142.0" y="643.6666666666666" type="line"/>
      <point x="221.0" y="643.6666666666666" type="line"/>
    </contour>
  </outline>
</glyph>
<glyph name="comma" format="2">
  <advance height="2479.0" width="557.6666666666667"/>
  <unicode hex="002C"/>
  <outline>
    <contour>
      <point x="325.0" y="204.0" type="line"/>
      <point x="184.33333333333334" y="204.0" type="line"/>
      <point x="158.66666666666666" y="122.0" type="line" smooth="yes"/>
      <point x="100.66666666666667" y="-75.33333333333334"/>
      <point x="29.666666666666668" y="-265.0"/>
      <point x="-4.333333333333323" y="-364.0" type="curve"/>
      <point x="95.66666666666667" y="-364.0" type="line"/>
      <point x="146.66666666666666" y="-261.0"/>
      <point x="244.33333333333334" y="-31.666666666666668"/>
      <point x="298.0" y="126.0" type="curve" smooth="yes"/>
    </contour>
  </outline>
</glyph>
<glyph name="hyphen" format="2">
  <advance height="2479.0" width="928.3333333333334"/>
  <unicode hex="002D"/>
  <outline>
    <contour>
      <point x="797.0" y="700.0" type="line"/>
      <point x="177.66666666666666" y="700.0" type="line"/>
      <point x="156.66666666666666" y="577.6666666666666" type="line"/>
      <point x="776.6666666666666" y="577.6666666666666" type="line"/>
    </contour>
  </outline>
</glyph>
<glyph name="period" format="2">
  <advance height="2479.0" width="548.6666666666666"/>
  <unicode hex="002E"/>
  <outline>
    <contour>
      <point x="195.66666666666666" y="-11.0" type="curve" smooth="yes"/>
      <point x="253.33333333333334" y="-11.0"/>
      <point x="300.6666666666667" y="36.333333333333336"/>
      <point x="302.3333333333333" y="94.0" type="curve" smooth="yes"/>
      <point x="304.6666666666667" y="150.33333333333334"/>
      <point x="257.0" y="196.66666666666669"/>
      <point x="199.33333333333331" y="196.66666666666669" type="curve" smooth="yes"/>
      <point x="142.33333333333331" y="196.66666666666669"/>
      <point x="92.99999999999999" y="152.33333333333334"/>
      <point x="93.33333333333333" y="94.0" type="curve" smooth="yes"/>
      <point x="92.99999999999999" y="36.333333333333336"/>
      <point x="136.66666666666666" y="-11.0"/>
    </contour>
  </outline>
</glyph>
<glyph name="slash" format="2">
  <advance height="2479.0" width="707.3333333333334"/>
  <unicode hex="002F"/>
  <outline>
    <contour>
      <point x="820.0" y="1559.0" type="line"/>
      <point x="698.0" y="1559.0" type="line"/>
      <point x="-75.33333333333334" y="-224.0" type="line"/>
      <point x="46.33333333333332" y="-224.0" type="line"/>
    </contour>
  </outline>
</glyph>
<glyph name="zero" format="2">
  <advance height="2479.0" width="1256.0"/>
  <unicode hex="0030"/>
  <outline>
    <contour>
      <point x="530.0" y="-20.0" type="curve" smooth="yes"/>
      <point x="844.0" y="-20.0"/>
      <point x="1074.6666666666667" y="263.0"/>
      <point x="1155.6666666666667" y="745.0" type="curve" smooth="yes"/>
      <point x="1235.0" y="1224.3333333333333"/>
      <point x="1095.0000000000002" y="1510.0"/>
      <point x="783.0" y="1510.0" type="curve" smooth="yes"/>
      <point x="471.3333333333333" y="1510.0"/>
      <point x="239.33333333333331" y="1224.3333333333333"/>
      <point x="160.33333333333331" y="745.0" type="curve" smooth="yes"/>
      <point x="81.66666666666666" y="261.66666666666663"/>
      <point x="216.33333333333331" y="-20.0"/>
    </contour>
    <contour>
      <point x="548.3333333333334" y="102.0" type="curve" smooth="yes"/>
      <point x="318.3333333333333" y="102.0"/>
      <point x="225.66666666666666" y="341.3333333333333"/>
      <point x="292.6666666666667" y="745.0" type="curve" smooth="yes"/>
      <point x="360.6666666666667" y="1156.0"/>
      <point x="537.9999999999999" y="1389.6666666666667"/>
      <point x="765.6666666666667" y="1389.6666666666667" type="curve" smooth="yes"/>
      <point x="995.0" y="1389.6666666666667"/>
      <point x="1089.9999999999998" y="1148.0"/>
      <point x="1023.3333333333333" y="745.0" type="curve" smooth="yes"/>
      <point x="955.3333333333333" y="333.3333333333333"/>
      <point x="776.6666666666666" y="102.0"/>
    </contour>
  </outline>
</glyph>
<glyph name="one" format="2">
  <advance height="2479.0" width="912.3333333333334"/>
  <unicode hex="0031"/>
  <outline>
    <contour>
      <point x="779.6666666666666" y="1489.0" type="line"/>
      <point x="638.3333333333334" y="1489.0" type="line"/>
      <point x="247.66666666666666" y="1255.6666666666667" type="line"/>
      <point x="223.33333333333331" y="1115.3333333333333" type="line"/>
      <point x="611.0" y="1346.6666666666667" type="line"/>
      <point x="619.9999999999999" y="1346.6666666666667" type="line"/>
      <point x="396.3333333333333" y="0.0" type="line"/>
      <point x="532.6666666666666" y="0.0" type="line"/>
    </contour>
  </outline>
</glyph>
<glyph name="two" format="2">
  <advance height="2479.0" width="1249.6666666666667"/>
  <unicode hex="0032"/>
  <anchor x="857.6666666666666" y="760.3333333333334" name="cross"/>
  <outline>
    <contour>
      <point x="72.66666666666666" y="0.0" type="line"/>
      <point x="999.0" y="0.0" type="line"/>
      <point x="1019.3333333333334" y="122.33333333333334" type="line"/>
      <point x="282.33333333333337" y="122.33333333333334" type="line"/>
      <point x="283.6666666666667" y="132.0" type="line"/>
      <point x="721.3333333333334" y="543.6666666666666" type="line" smooth="yes"/>
      <point x="1013.0" y="817.3333333333334"/>
      <point x="1108.6666666666667" y="940.6666666666666"/>
      <point x="1136.6666666666667" y="1106.6666666666667" type="curve" smooth="yes"/>
      <point x="1174.6666666666667" y="1333.6666666666667"/>
      <point x="1026.6666666666665" y="1510.0"/>
      <point x="778.0" y="1510.0" type="curve" smooth="yes"/>
      <point x="525.6666666666666" y="1510.0"/>
      <point x="306.33333333333337" y="1332.0"/>
      <point x="265.33333333333337" y="1086.3333333333333" type="curve"/>
      <point x="395.6666666666667" y="1086.3333333333333" type="line"/>
      <point x="425.6666666666667" y="1261.3333333333333"/>
      <point x="573.0000000000001" y="1389.6666666666667"/>
      <point x="756.6666666666666" y="1389.6666666666667" type="curve" smooth="yes"/>
      <point x="930.6666666666667" y="1389.6666666666667"/>
      <point x="1036.3333333333335" y="1276.3333333333333"/>
      <point x="1008.3333333333334" y="1106.6666666666667" type="curve" smooth="yes"/>
      <point x="985.3333333333334" y="965.6666666666666"/>
      <point x="892.3333333333334" y="861.0"/>
      <point x="666.0" y="646.6666666666666" type="curve" smooth="yes"/>
      <point x="89.99999999999999" y="100.0" type="line"/>
    </contour>
  </outline>
</glyph>
<glyph name="three" format="2">
  <advance height="2479.0" width="1287.6666666666667"/>
  <unicode hex="0033"/>
  <outline>
    <contour>
      <point x="559.3333333333334" y="-20.0" type="curve" smooth="yes"/>
      <point x="842.0" y="-20.0"/>
      <point x="1063.0" y="145.0"/>
      <point x="1103.6666666666667" y="391.0" type="curve" smooth="yes"/>
      <point x="1135.0" y="579.3333333333334"/>
      <point x="1043.0000000000002" y="726.3333333333334"/>
      <point x="859.0" y="764.0" type="curve"/>
      <point x="859.0" y="772.0" type="line"/>
      <point x="1022.3333333333334" y="819.6666666666666"/>
      <point x="1144.6666666666667" y="942.0"/>
      <point x="1170.6666666666667" y="1109.6666666666667" type="curve" smooth="yes"/>
      <point x="1206.6666666666667" y="1325.6666666666665"/>
      <point x="1067.3333333333335" y="1510.0"/>
      <point x="802.0" y="1510.0" type="curve" smooth="yes"/>
      <point x="556.0" y="1510.0"/>
      <point x="333.3333333333333" y="1349.0"/>
      <point x="290.66666666666663" y="1117.0" type="curve"/>
      <point x="423.0" y="1117.0" type="line"/>
      <point x="452.33333333333337" y="1283.6666666666667"/>
      <point x="623.0000000000001" y="1389.6666666666667"/>
      <point x="797.0" y="1389.6666666666667" type="curve" smooth="yes"/>
      <point x="977.3333333333334" y="1389.6666666666667"/>
      <point x="1067.0000000000002" y="1278.3333333333333"/>
      <point x="1040.3333333333335" y="1119.0" type="curve" smooth="yes"/>
      <point x="1011.6666666666667" y="940.6666666666667"/>
      <point x="850.0" y="826.3333333333334"/>
      <point x="657.3333333333333" y="826.3333333333334" type="curve" smooth="yes"/>
      <point x="574.3333333333334" y="826.3333333333334" type="line"/>
      <point x="554.3333333333334" y="704.3333333333334" type="line"/>
      <point x="644.3333333333333" y="704.3333333333334" type="line" smooth="yes"/>
      <point x="880.0" y="704.3333333333334"/>
      <point x="998.6666666666666" y="581.3333333333333"/>
      <point x="971.6666666666666" y="406.3333333333333" type="curve" smooth="yes"/>
      <point x="943.6666666666666" y="224.33333333333334"/>
      <point x="765.3333333333334" y="102.0"/>
      <point x="561.3333333333334" y="102.0" type="curve" smooth="yes"/>
      <point x="369.3333333333333" y="102.0"/>
      <point x="251.00000000000003" y="210.66666666666669"/>
      <point x="271.0" y="372.0" type="curve"/>
      <point x="134.66666666666666" y="372.0" type="line"/>
      <point x="102.0" y="139.66666666666669"/>
      <point x="282.0" y="-20.0"/>
    </contour>
  </outline>
</glyph>
<glyph name="four" format="2">
  <advance height="2479.0" width="1283.0"/>
  <unicode hex="0034"/>
  <outline>
    <contour>
      <point x="91.33333333333333" y="319.6666666666667" type="line"/>
      <point x="1114.3333333333333" y="319.6666666666667" type="line"/>
      <point x="1134.3333333333333" y="442.0" type="line"/>
      <point x="264.0" y="442.0" type="line"/>
      <point x="264.0" y="451.6666666666667" type="line"/>
      <point x="939.6666666666666" y="1304.3333333333333" type="line"/>
      <point x="1000.0" y="1304.3333333333333" type="line"/>
      <point x="1030.0000000000002" y="1489.0" type="line"/>
      <point x="948.3333333333334" y="1489.0" type="line"/>
      <point x="108.66666666666666" y="430.6666666666667" type="line"/>
    </contour>
    <contour>
      <point x="732.0" y="0.0" type="line"/>
      <point x="862.0" y="0.0" type="line"/>
      <point x="1109.3333333333333" y="1489.0" type="line"/>
      <point x="979.6666666666666" y="1489.0" type="line"/>
      <point x="800.0" y="405.3333333333333" type="line"/>
      <point x="791.0" y="356.0" type="line"/>
    </contour>
  </outline>
</glyph>
<glyph name="five" format="2">
  <advance height="2479.0" width="1219.6666666666667"/>
  <unicode hex="0035"/>
  <outline>
    <contour>
      <point x="505.33333333333337" y="-20.0" type="curve" smooth="yes"/>
      <point x="781.3333333333334" y="-20.0"/>
      <point x="1014.3333333333334" y="188.0"/>
      <point x="1062.0" y="470.3333333333333" type="curve" smooth="yes"/>
      <point x="1111.6666666666667" y="758.0"/>
      <point x="941.6666666666667" y="963.3333333333334"/>
      <point x="679.6666666666666" y="963.3333333333334" type="curve" smooth="yes"/>
      <point x="571.6666666666666" y="963.3333333333334"/>
      <point x="467.6666666666667" y="925.3333333333334"/>
      <point x="392.3333333333333" y="868.6666666666666" type="curve"/>
      <point x="385.0" y="868.6666666666666" type="line"/>
      <point x="527.6666666666667" y="1367.0" type="line"/>
      <point x="1149.0" y="1367.0" type="line"/>
      <point x="1169.6666666666667" y="1489.0" type="line"/>
      <point x="433.6666666666667" y="1489.0" type="line"/>
      <point x="223.66666666666666" y="765.6666666666666" type="line"/>
      <point x="356.6666666666667" y="748.6666666666666" type="line"/>
      <point x="430.0" y="801.3333333333334"/>
      <point x="542.0" y="839.0"/>
      <point x="641.0" y="839.0" type="curve" smooth="yes"/>
      <point x="840.3333333333334" y="839.0"/>
      <point x="965.3333333333334" y="686.3333333333334"/>
      <point x="929.6666666666666" y="468.3333333333333" type="curve" smooth="yes"/>
      <point x="895.3333333333334" y="258.3333333333333"/>
      <point x="722.0" y="102.0"/>
      <point x="522.6666666666667" y="102.0" type="curve" smooth="yes"/>
      <point x="352.6666666666667" y="102.0"/>
      <point x="244.99999999999997" y="215.66666666666666"/>
      <point x="262.0" y="372.0" type="curve"/>
      <point x="130.0" y="372.0" type="line"/>
      <point x="99.33333333333333" y="144.33333333333334"/>
      <point x="257.6666666666667" y="-20.0"/>
    </contour>
  </outline>
</glyph>
<glyph name="six" format="2">
  <advance height="2479.0" width="1249.0"/>
  <unicode hex="0036"/>
  <outline>
    <contour>
      <point x="546.6666666666667" y="-20.0" type="curve" smooth="yes"/>
      <point x="827.3333333333334" y="-22.0"/>
      <point x="1045.3333333333333" y="198.0"/>
      <point x="1091.0" y="460.3333333333333" type="curve" smooth="yes"/>
      <point x="1138.3333333333333" y="744.6666666666666"/>
      <point x="963.0" y="953.6666666666666"/>
      <point x="709.6666666666666" y="953.6666666666666" type="curve" smooth="yes"/>
      <point x="552.0000000000001" y="953.6666666666666"/>
      <point x="400.3333333333333" y="871.0"/>
      <point x="308.3333333333333" y="740.3333333333334" type="curve"/>
      <point x="299.0" y="732.3333333333334" type="line"/>
      <point x="370.6666666666667" y="1158.6666666666665"/>
      <point x="559.0" y="1387.6666666666667"/>
      <point x="804.3333333333333" y="1387.6666666666667" type="curve" smooth="yes"/>
      <point x="974.3333333333334" y="1387.6666666666667"/>
      <point x="1053.6666666666667" y="1275.6666666666665"/>
      <point x="1051.0" y="1117.0" type="curve"/>
      <point x="1181.3333333333333" y="1117.0" type="line"/>
      <point x="1191.0" y="1350.0"/>
      <point x="1045.0" y="1510.0"/>
      <point x="806.6666666666666" y="1510.0" type="curve" smooth="yes"/>
      <point x="465.6666666666667" y="1510.0"/>
      <point x="244.0" y="1171.3333333333333"/>
      <point x="164.66666666666666" y="690.3333333333334" type="curve" smooth="yes"/>
      <point x="76.66666666666666" y="164.33333333333331"/>
      <point x="295.6666666666667" y="-18.666666666666668"/>
    </contour>
    <contour>
      <point x="550.6666666666667" y="102.0" type="curve" smooth="yes"/>
      <point x="366.66666666666663" y="102.0"/>
      <point x="260.6666666666667" y="250.33333333333334"/>
      <point x="278.0" y="451.6666666666667" type="curve" smooth="yes"/>
      <point x="296.3333333333333" y="651.6666666666666"/>
      <point x="488.0" y="831.3333333333334"/>
      <point x="689.6666666666667" y="831.3333333333334" type="curve" smooth="yes"/>
      <point x="879.3333333333333" y="831.3333333333334"/>
      <point x="993.0" y="673.0"/>
      <point x="961.0" y="476.3333333333333" type="curve" smooth="yes"/>
      <point x="926.0" y="269.6666666666667"/>
      <point x="746.3333333333334" y="102.0"/>
    </contour>
  </outline>
</glyph>
<glyph name="seven" format="2">
  <advance height="2479.0" width="1152.6666666666667"/>
  <unicode hex="0037"/>
  <outline>
    <contour>
      <point x="115.66666666666666" y="0.0" type="line"/>
      <point x="259.0" y="0.0" type="line"/>
      <point x="1161.6666666666667" y="1361.6666666666667" type="line"/>
      <point x="1183.6666666666667" y="1489.0" type="line"/>
      <point x="259.6666666666667" y="1489.0" type="line"/>
      <point x="239.66666666666669" y="1367.0" type="line"/>
      <point x="1021.0" y="1367.0" type="line"/>
      <point x="1019.0" y="1357.6666666666667" type="line"/>
    </contour>
  </outline>
</glyph>
<glyph name="eight" format="2">
  <advance height="2479.0" width="1253.0"/>
  <unicode hex="0038"/>
  <outline>
    <contour>
      <point x="538.3333333333334" y="-20.0" type="curve" smooth="yes"/>
      <point x="817.0" y="-20.0"/>
      <point x="1049.3333333333333" y="150.66666666666669"/>
      <point x="1088.6666666666667" y="384.0" type="curve" smooth="yes"/>
      <point x="1120.3333333333333" y="571.6666666666667"/>
      <point x="1016.3333333333334" y="737.0"/>
      <point x="852.6666666666666" y="772.0" type="curve"/>
      <point x="852.6666666666666" y="778.0" type="line"/>
      <point x="1002.6666666666666" y="818.6666666666667"/>
      <point x="1128.3333333333333" y="947.6666666666667"/>
      <point x="1156.6666666666667" y="1112.6666666666667" type="curve" smooth="yes"/>
      <point x="1195.0" y="1338.0"/>
      <point x="1027.6666666666667" y="1510.0"/>
      <point x="776.0" y="1510.0" type="curve" smooth="yes"/>
      <point x="529.6666666666666" y="1510.0"/>
      <point x="322.33333333333337" y="1348.6666666666667"/>
      <point x="282.0" y="1128.0" type="curve" smooth="yes"/>
      <point x="251.66666666666669" y="965.0"/>
      <point x="322.66666666666663" y="820.0"/>
      <point x="462.3333333333333" y="778.0" type="curve"/>
      <point x="462.3333333333333" y="772.0" type="line"/>
      <point x="288.6666666666667" y="739.0"/>
      <point x="137.33333333333334" y="581.0"/>
      <point x="107.66666666666666" y="399.3333333333333" type="curve" smooth="yes"/>
      <point x="67.66666666666667" y="162.66666666666669"/>
      <point x="249.0" y="-20.0"/>
    </contour>
    <contour>
      <point x="541.3333333333334" y="102.0" type="curve" smooth="yes"/>
      <point x="332.3333333333333" y="102.0"/>
      <point x="214.66666666666669" y="220.33333333333331"/>
      <point x="241.33333333333334" y="391.0" type="curve" smooth="yes"/>
      <point x="270.6666666666667" y="573.0"/>
      <point x="455.66666666666663" y="710.6666666666666"/>
      <point x="663.0" y="710.6666666666666" type="curve" smooth="yes"/>
      <point x="863.3333333333333" y="710.6666666666666"/>
      <point x="987.3333333333333" y="583.0"/>
      <point x="959.3333333333334" y="406.3333333333333" type="curve" smooth="yes"/>
      <point x="931.3333333333333" y="229.66666666666666"/>
      <point x="759.0" y="102.0"/>
    </contour>
    <contour>
      <point x="660.3333333333334" y="827.3333333333334" type="curve" smooth="yes"/>
      <point x="490.0" y="827.3333333333334"/>
      <point x="382.6666666666667" y="940.3333333333334"/>
      <point x="410.0" y="1104.6666666666667" type="curve" smooth="yes"/>
      <point x="437.0" y="1271.3333333333333"/>
      <point x="590.6666666666667" y="1389.6666666666667"/>
      <point x="775.0" y="1389.6666666666667" type="curve" smooth="yes"/>
      <point x="950.6666666666667" y="1389.6666666666667"/>
      <point x="1054.6666666666665" y="1282.6666666666665"/>
      <point x="1027.0" y="1120.0" type="curve" smooth="yes"/>
      <point x="997.6666666666666" y="952.3333333333334"/>
      <point x="840.6666666666666" y="827.3333333333334"/>
    </contour>
  </outline>
</glyph>
<glyph name="nine" format="2">
  <advance height="2479.0" width="1249.0"/>
  <unicode hex="0039"/>
  <outline>
    <contour>
      <point x="766.3333333333333" y="1510.0" type="curve" smooth="yes"/>
      <point x="485.0" y="1512.0"/>
      <point x="267.66666666666663" y="1295.0"/>
      <point x="221.66666666666666" y="1031.6666666666665" type="curve" smooth="yes"/>
      <point x="173.66666666666666" y="747.6666666666666"/>
      <point x="350.0" y="539.3333333333334"/>
      <point x="603.0" y="539.3333333333334" type="curve" smooth="yes"/>
      <point x="761.0" y="539.3333333333334"/>
      <point x="912.3333333333333" y="621.6666666666666"/>
      <point x="1004.6666666666666" y="752.6666666666666" type="curve"/>
      <point x="1014.6666666666666" y="760.0" type="line"/>
      <point x="943.0" y="331.3333333333333"/>
      <point x="753.3333333333334" y="102.0"/>
      <point x="509.33333333333337" y="102.0" type="curve" smooth="yes"/>
      <point x="337.6666666666667" y="102.0"/>
      <point x="260.0" y="214.66666666666666"/>
      <point x="261.6666666666667" y="375.0" type="curve"/>
      <point x="131.66666666666669" y="375.0" type="line"/>
      <point x="122.0" y="141.0"/>
      <point x="267.3333333333333" y="-20.0"/>
      <point x="506.33333333333337" y="-20.0" type="curve" smooth="yes"/>
      <point x="847.3333333333334" y="-20.0"/>
      <point x="1069.0" y="319.33333333333337"/>
      <point x="1148.3333333333333" y="801.6666666666666" type="curve" smooth="yes"/>
      <point x="1235.0" y="1329.0"/>
      <point x="1017.3333333333334" y="1508.0"/>
    </contour>
    <contour>
      <point x="762.3333333333333" y="1387.6666666666667" type="curve" smooth="yes"/>
      <point x="946.3333333333334" y="1387.6666666666667"/>
      <point x="1052.3333333333333" y="1242.3333333333333"/>
      <point x="1034.6666666666667" y="1040.6666666666667" type="curve" smooth="yes"/>
      <point x="1017.0" y="841.0"/>
      <point x="825.0" y="661.3333333333334"/>
      <point x="623.3333333333334" y="661.3333333333334" type="curve" smooth="yes"/>
      <point x="433.6666666666667" y="661.3333333333334"/>
      <point x="320.0" y="819.3333333333334"/>
      <point x="352.0" y="1016.3333333333333" type="curve" smooth="yes"/>
      <point x="385.6666666666667" y="1223.3333333333333"/>
      <point x="566.3333333333334" y="1387.6666666666667"/>
    </contour>
  </outline>
</glyph>
<glyph name="less" format="2">
  <advance height="2479.0" width="1334.3333333333333"/>
  <unicode hex="003C"/>
  <outline>
    <contour>
      <point x="217.0" y="535.6666666666666" type="line"/>
      <point x="1026.6666666666667" y="45.0" type="line"/>
      <point x="1051.0" y="187.33333333333334" type="line"/>
      <point x="384.0" y="581.0" type="line"/>
      <point x="390.6666666666667" y="568.0" type="line"/>
      <point x="393.6666666666667" y="595.0" type="line"/>
      <point x="386.0" y="583.0" type="line"/>
      <point x="1182.3333333333333" y="976.6666666666666" type="line"/>
      <point x="1204.3333333333333" y="1119.0" type="line"/>
      <point x="234.0" y="628.3333333333334" type="line"/>
    </contour>
  </outline>
</glyph>
<glyph name="equal" format="2">
  <advance height="2479.0" width="1334.3333333333333"/>
  <unicode hex="003D"/>
  <outline>
    <contour>
      <point x="281.0" y="730.3333333333334" type="line"/>
      <point x="1109.3333333333333" y="730.3333333333334" type="line"/>
      <point x="1129.6666666666665" y="850.6666666666666" type="line"/>
      <point x="301.3333333333333" y="850.6666666666666" type="line"/>
    </contour>
    <contour>
      <point x="212.33333333333334" y="313.3333333333333" type="line"/>
      <point x="1040.6666666666665" y="313.3333333333333" type="line"/>
      <point x="1061.0" y="433.3333333333333" type="line"/>
      <point x="232.66666666666666" y="433.3333333333333" type="line"/>
    </contour>
  </outline>
</glyph>
<glyph name="greater" format="2">
  <advance height="2479.0" width="1334.3333333333333"/>
  <unicode hex="003E"/>
  <outline>
    <contour>
      <point x="1131.3333333333333" y="535.6666666666666" type="line"/>
      <point x="1148.3333333333333" y="628.3333333333334" type="line"/>
      <point x="338.6666666666667" y="1119.0" type="line"/>
      <point x="315.6666666666667" y="976.6666666666666" type="line"/>
      <point x="980.3333333333334" y="583.0" type="line"/>
      <point x="974.6666666666667" y="595.0" type="line"/>
      <point x="971.6666666666667" y="568.0" type="line"/>
      <point x="978.3333333333334" y="581.0" type="line"/>
      <point x="185.0" y="187.33333333333334" type="line"/>
      <point x="161.0" y="45.0" type="line"/>
    </contour>
  </outline>
</glyph>
<glyph name="question" format="2">
  <advance height="2479.0" width="1019.3333333333334"/>
  <unicode hex="003F"/>
  <outline>
    <contour>
      <point x="374.33333333333337" y="426.6666666666667" type="line"/>
      <point x="505.99999999999994" y="426.6666666666667" type="line"/>
      <point x="513.6666666666666" y="472.0" type="line" smooth="yes"/>
      <point x="541.6666666666666" y="629.0"/>
      <point x="598.6666666666667" y="701.3333333333334"/>
      <point x="742.6666666666666" y="786.3333333333333" type="curve" smooth="yes"/>
      <point x="895.3333333333334" y="875.0"/>
      <point x="982.6666666666666" y="968.6666666666667"/>
      <point x="1007.6666666666666" y="1126.6666666666667" type="curve" smooth="yes"/>
      <point x="1042.6666666666665" y="1345.0"/>
      <point x="906.3333333333334" y="1510.0"/>
      <point x="663.3333333333333" y="1510.0" type="curve" smooth="yes"/>
      <point x="431.33333333333337" y="1510.0"/>
      <point x="226.66666666666666" y="1356.6666666666665"/>
      <point x="179.66666666666666" y="1117.0" type="curve"/>
      <point x="317.33333333333337" y="1117.0" type="line"/>
      <point x="353.33333333333337" y="1293.6666666666667"/>
      <point x="499.6666666666667" y="1393.6666666666667"/>
      <point x="647.9999999999999" y="1393.6666666666667" type="curve" smooth="yes"/>
      <point x="800.3333333333334" y="1393.6666666666667"/>
      <point x="900.3333333333334" y="1290.0"/>
      <point x="875.3333333333334" y="1132.6666666666667" type="curve" smooth="yes"/>
      <point x="858.0" y="1011.3333333333334"/>
      <point x="780.0" y="940.3333333333333"/>
      <point x="665.0" y="872.0" type="curve" smooth="yes"/>
      <point x="509.33333333333337" y="781.3333333333334"/>
      <point x="421.6666666666667" y="699.3333333333334"/>
      <point x="382.33333333333337" y="472.0" type="curve" smooth="yes"/>
    </contour>
    <component base="period" xOffset="192.0"/>
  </outline>
</glyph>
<glyph name="at" format="2">
  <advance height="2479.0" width="1917.0"/>
  <unicode hex="0040"/>
  <outline>
    <contour>
      <point x="839.6666666666666" y="-394.0" type="curve" smooth="yes"/>
      <point x="995.3333333333333" y="-394.0"/>
      <point x="1181.6666666666667" y="-347.0"/>
      <point x="1299.0" y="-288.6666666666667" type="curve"/>
      <point x="1278.0" y="-187.0" type="line"/>
      <point x="1193.0" y="-230.0"/>
      <point x="1019.0000000000001" y="-285.0"/>
      <point x="859.0" y="-285.0" type="curve" smooth="yes"/>
      <point x="378.3333333333333" y="-285.0"/>
      <point x="135.0" y="30.0"/>
      <point x="216.33333333333334" y="520.0" type="curve" smooth="yes"/>
      <point x="295.0" y="1004.0"/>
      <point x="653.6666666666667" y="1326.3333333333333"/>
      <point x="1107.0000000000002" y="1326.3333333333333" type="curve" smooth="yes"/>
      <point x="1564.3333333333333" y="1326.3333333333333"/>
      <point x="1771.6666666666667" y="980.6666666666666"/>
      <point x="1708.3333333333333" y="603.3333333333334" type="curve" smooth="yes"/>
      <point x="1658.0" y="302.3333333333333"/>
      <point x="1565.0" y="144.66666666666666"/>
      <point x="1407.3333333333333" y="144.66666666666666" type="curve" smooth="yes"/>
      <point x="1319.6666666666665" y="144.66666666666666"/>
      <point x="1291.3333333333333" y="205.0"/>
      <point x="1307.0" y="306.3333333333333" type="curve" smooth="yes"/>
      <point x="1421.0" y="982.0" type="line"/>
      <point x="1302.0" y="982.0" type="line"/>
      <point x="1279.0" y="848.3333333333334" type="line"/>
      <point x="1271.0" y="848.3333333333334" type="line"/>
      <point x="1250.6666666666665" y="940.6666666666666"/>
      <point x="1141.6666666666667" y="1010.3333333333334"/>
      <point x="990.6666666666666" y="1001.0" type="curve" smooth="yes"/>
      <point x="767.0" y="985.0"/>
      <point x="564.0" y="793.0"/>
      <point x="521.0" y="529.3333333333334" type="curve" smooth="yes"/>
      <point x="474.0" y="256.0"/>
      <point x="587.6666666666667" y="43.0"/>
      <point x="830.6666666666666" y="37.0" type="curve" smooth="yes"/>
      <point x="993.0" y="33.0"/>
      <point x="1111.3333333333333" y="120.0"/>
      <point x="1173.6666666666667" y="225.0" type="curve"/>
      <point x="1181.0" y="225.0" type="line"/>
      <point x="1170.3333333333333" y="86.33333333333333"/>
      <point x="1281.3333333333333" y="37.666666666666664"/>
      <point x="1387.3333333333333" y="37.666666666666664" type="curve" smooth="yes"/>
      <point x="1662.3333333333333" y="37.666666666666664"/>
      <point x="1779.3333333333333" y="325.0"/>
      <point x="1825.0" y="601.3333333333334" type="curve" smooth="yes"/>
      <point x="1895.0" y="1035.3333333333333"/>
      <point x="1648.3333333333333" y="1433.0"/>
      <point x="1128.3333333333335" y="1433.0" type="curve" smooth="yes"/>
      <point x="596.3333333333334" y="1433.0"/>
      <point x="183.0" y="1070.6666666666667"/>
      <point x="94.0" y="524.0" type="curve" smooth="yes"/>
      <point x="2.0" y="-35.66666666666667"/>
      <point x="286.3333333333333" y="-394.0"/>
    </contour>
    <contour>
      <point x="864.0" y="151.0" type="curve" smooth="yes"/>
      <point x="671.3333333333334" y="151.0"/>
      <point x="604.3333333333334" y="330.6666666666667"/>
      <point x="637.0" y="535.3333333333334" type="curve" smooth="yes"/>
      <point x="669.0" y="728.3333333333334"/>
      <point x="817.3333333333334" y="890.0"/>
      <point x="994.6666666666666" y="890.0" type="curve" smooth="yes"/>
      <point x="1178.3333333333335" y="890.0"/>
      <point x="1273.0" y="778.3333333333334"/>
      <point x="1233.0" y="535.3333333333334" type="curve" smooth="yes"/>
      <point x="1193.0" y="294.0"/>
      <point x="1061.0" y="151.0"/>
    </contour>
  </outline>
</glyph>
<glyph name="A" format="2">
  <advance height="2479.0" width="1344.3333333333333"/>
  <unicode hex="0041"/>
  <anchor x="578.6666666666666" y="0.0" name="bottom"/>
  <anchor x="1193.6666666666667" y="0.0" name="ogonek"/>
  <anchor x="659.6666666666667" y="1489.0" name="tonos"/>
  <anchor x="858.3333333333333" y="1676.0" name="top"/>
  <outline>
    <contour>
      <point x="106.33333333333334" y="0.0" type="line"/>
      <point x="793.3333333333334" y="1313.0" type="line"/>
      <point x="803.3333333333333" y="1313.0" type="line"/>
      <point x="1051.0" y="0.0" type="line"/>
      <point x="1193.6666666666667" y="0.0" type="line"/>
      <point x="899.0" y="1489.0" type="line"/>
      <point x="753.0" y="1489.0" type="line"/>
      <point x="-36.0" y="0.0" type="line"/>
    </contour>
    <contour>
      <point x="304.3333333333333" y="571.3333333333334" type="line"/>
      <point x="284.0" y="449.0" type="line"/>
      <point x="1023.0" y="449.0" type="line"/>
      <point x="1043.0" y="571.3333333333334" type="line"/>
    </contour>
  </outline>
</glyph>
<glyph name="B" format="2">
  <advance height="2479.0" width="1325.3333333333333"/>
  <unicode hex="0042"/>
  <anchor x="550.0" y="0.0" name="bottom"/>
  <anchor x="817.3333333333334" y="1676.0" name="top"/>
  <outline>
    <contour>
      <point x="104.66666666666666" y="0.0" type="line"/>
      <point x="635.0" y="0.0" type="line" smooth="yes"/>
      <point x="955.0000000000001" y="0.0"/>
      <point x="1130.6666666666667" y="165.0"/>
      <point x="1168.6666666666667" y="391.0" type="curve" smooth="yes"/>
      <point x="1205.6666666666667" y="616.6666666666666"/>
      <point x="1077.3333333333335" y="752.3333333333333"/>
      <point x="934.6666666666666" y="763.0" type="curve"/>
      <point x="936.6666666666666" y="775.0" type="line"/>
      <point x="1074.3333333333333" y="810.3333333333334"/>
      <point x="1194.6666666666667" y="913.6666666666667"/>
      <point x="1225.6666666666667" y="1099.6666666666667" type="curve" smooth="yes"/>
      <point x="1264.6666666666667" y="1323.6666666666665"/>
      <point x="1145.6666666666665" y="1489.0"/>
      <point x="854.0" y="1489.0" type="curve" smooth="yes"/>
      <point x="352.3333333333333" y="1489.0" type="line"/>
    </contour>
    <contour>
      <point x="261.0" y="122.33333333333334" type="line"/>
      <point x="356.6666666666667" y="696.3333333333334" type="line"/>
      <point x="757.6666666666666" y="696.3333333333334" type="line" smooth="yes"/>
      <point x="957.3333333333334" y="696.3333333333334"/>
      <point x="1065.3333333333333" y="560.6666666666666"/>
      <point x="1038.3333333333333" y="391.0" type="curve" smooth="yes"/>
      <point x="1011.3333333333333" y="236.66666666666666"/>
      <point x="885.0" y="122.33333333333334"/>
      <point x="655.6666666666666" y="122.33333333333334" type="curve" smooth="yes"/>
    </contour>
    <contour>
      <point x="377.0" y="816.6666666666666" type="line"/>
      <point x="467.6666666666667" y="1367.0" type="line"/>
      <point x="834.0" y="1367.0" type="line" smooth="yes"/>
      <point x="1038.6666666666667" y="1367.0"/>
      <point x="1123.0000000000002" y="1258.0"/>
      <point x="1095.3333333333335" y="1099.6666666666667" type="curve" smooth="yes"/>
      <point x="1070.3333333333335" y="936.0"/>
      <point x="932.0" y="816.6666666666666"/>
      <point x="756.3333333333333" y="816.6666666666666" type="curve" smooth="yes"/>
    </contour>
  </outline>
</glyph>
<glyph name="C" format="2">
  <advance height="2479.0" width="1486.3333333333333"/>
  <unicode hex="0043"/>
  <anchor x="686.3333333333334" y="-8.0" name="cedilla"/>
  <anchor x="962.0" y="1676.0" name="top"/>
  <outline>
    <contour>
      <point x="1439.3333333333333" y="1024.0" type="line"/>
      <point x="1435.3333333333335" y="1298.0"/>
      <point x="1244.3333333333333" y="1510.0"/>
      <point x="925.0" y="1510.0" type="curve" smooth="yes"/>
      <point x="551.0" y="1510.0"/>
      <point x="239.33333333333331" y="1215.0"/>
      <point x="161.66666666666666" y="752.3333333333334" type="curve"/>
      <point x="83.99999999999999" y="282.0"/>
      <point x="305.3333333333333" y="-20.0"/>
      <point x="685.3333333333334" y="-20.0" type="curve" smooth="yes"/>
      <point x="998.3333333333333" y="-20.0"/>
      <point x="1253.3333333333335" y="192.0"/>
      <point x="1348.6666666666665" y="465.0" type="curve"/>
      <point x="1212.0" y="465.0" type="line"/>
      <point x="1136.0" y="261.0"/>
      <point x="929.3333333333333" y="107.33333333333334"/>
      <point x="692.3333333333334" y="107.33333333333334" type="curve" smooth="yes"/>
      <point x="413.6666666666667" y="107.33333333333334"/>
      <point x="223.0" y="326.6666666666667"/>
      <point x="292.0" y="737.0" type="curve"/>
      <point x="360.0" y="1153.0"/>
      <point x="631.0000000000001" y="1381.6666666666667"/>
      <point x="916.3333333333334" y="1381.6666666666667" type="curve" smooth="yes"/>
      <point x="1145.9999999999998" y="1381.6666666666667"/>
      <point x="1297.3333333333333" y="1228.0"/>
      <point x="1304.3333333333333" y="1024.0" type="curve"/>
    </contour>
  </outline>
</glyph>
<glyph name="D" format="2">
  <advance height="2479.0" width="1469.6666666666667"/>
  <unicode hex="0044"/>
  <anchor x="456.33333333333337" y="0.0" name="bottom"/>
  <anchor x="322.6666666666667" y="764.0" name="cross"/>
  <anchor x="931.6666666666666" y="1676.0" name="top"/>
  <outline>
    <contour>
      <point x="545.0" y="0.0" type="line" smooth="yes"/>
      <point x="993.3333333333334" y="0.0"/>
      <point x="1290.3333333333335" y="276.0"/>
      <point x="1368.3333333333333" y="741.0" type="curve" smooth="yes"/>
      <point x="1446.3333333333335" y="1207.0"/>
      <point x="1236.3333333333333" y="1489.0"/>
      <point x="811.0" y="1489.0" type="curve" smooth="yes"/>
      <point x="422.0" y="1489.0" type="line"/>
      <point x="401.0" y="1367.0" type="line"/>
      <point x="790.6666666666666" y="1367.0" type="line" smooth="yes"/>
      <point x="1155.0000000000002" y="1367.0"/>
      <point x="1302.6666666666667" y="1140.3333333333335"/>
      <point x="1238.0" y="756.3333333333334" type="curve" smooth="yes"/>
      <point x="1174.3333333333335" y="365.6666666666667"/>
      <point x="933.0" y="122.33333333333334"/>
      <point x="552.0" y="122.33333333333334" type="curve" smooth="yes"/>
      <point x="200.66666666666666" y="122.33333333333334" type="line"/>
      <point x="180.33333333333331" y="0.0" type="line"/>
    </contour>
    <contour>
      <point x="487.6666666666667" y="1489.0" type="line"/>
      <point x="352.3333333333333" y="1489.0" type="line"/>
      <point x="104.66666666666666" y="0.0" type="line"/>
      <point x="240.66666666666669" y="0.0" type="line"/>
    </contour>
  </outline>
</glyph>
<glyph name="E" format="2">
  <advance height="2479.0" width="1215.3333333333333"/>
  <unicode hex="0045"/>
  <anchor x="516.0" y="0.0" name="bottom"/>
  <anchor x="519.0" y="0.0" name="cedilla"/>
  <anchor x="983.3333333333333" y="0.0" name="ogonek"/>
  <anchor x="303.6666666666667" y="1489.0" name="tonos"/>
  <anchor x="815.6666666666666" y="1676.0" name="top"/>
  <outline>
    <contour>
      <point x="104.66666666666666" y="0.0" type="line"/>
      <point x="983.3333333333333" y="0.0" type="line"/>
      <point x="1003.6666666666666" y="122.33333333333334" type="line"/>
      <point x="261.0" y="122.33333333333334" type="line"/>
      <point x="353.6666666666667" y="684.3333333333334" type="line"/>
      <point x="1036.3333333333335" y="684.3333333333334" type="line"/>
      <point x="1056.6666666666667" y="806.6666666666666" type="line"/>
      <point x="374.0" y="806.6666666666666" type="line"/>
      <point x="467.6666666666667" y="1367.0" type="line"/>
      <point x="1195.3333333333335" y="1367.0" type="line"/>
      <point x="1215.6666666666667" y="1489.0" type="line"/>
      <point x="352.3333333333333" y="1489.0" type="line"/>
    </contour>
  </outline>
</glyph>
<glyph name="F" format="2">
  <advance height="2479.0" width="1200.3333333333333"/>
  <unicode hex="0046"/>
  <anchor x="451.6666666666667" y="12.0" name="bottom"/>
  <anchor x="235.0" y="369.3333333333333" name="cross"/>
  <anchor x="828.0" y="1676.0" name="top"/>
  <outline>
    <contour>
      <point x="104.66666666666666" y="0.0" type="line"/>
      <point x="240.66666666666669" y="0.0" type="line"/>
      <point x="353.6666666666667" y="684.3333333333334" type="line"/>
      <point x="1012.3333333333334" y="684.3333333333334" type="line"/>
      <point x="1032.6666666666667" y="806.6666666666666" type="line"/>
      <point x="374.0" y="806.6666666666666" type="line"/>
      <point x="467.6666666666667" y="1367.0" type="line"/>
      <point x="1193.3333333333335" y="1367.0" type="line"/>
      <point x="1214.3333333333335" y="1489.0" type="line"/>
      <point x="352.3333333333333" y="1489.0" type="line"/>
    </contour>
  </outline>
</glyph>
<glyph name="G" format="2">
  <advance height="2479.0" width="1548.3333333333333"/>
  <unicode hex="0047"/>
  <anchor x="670.6666666666666" y="0.0" name="bottom"/>
  <anchor x="952.0" y="1676.0" name="top"/>
  <outline>
    <contour>
      <point x="1301.6666666666667" y="1024.0" type="curve"/>
      <point x="1441.3333333333333" y="1024.0" type="line"/>
      <point x="1437.6666666666665" y="1286.6666666666667"/>
      <point x="1252.6666666666665" y="1510.0"/>
      <point x="925.6666666666666" y="1510.0" type="curve" smooth="yes"/>
      <point x="549.6666666666666" y="1510.0"/>
      <point x="236.0" y="1211.0"/>
      <point x="160.33333333333331" y="745.0" type="curve" smooth="yes"/>
      <point x="81.99999999999999" y="278.0"/>
      <point x="292.6666666666667" y="-20.0"/>
      <point x="682.0" y="-20.0" type="curve" smooth="yes"/>
      <point x="1030.3333333333333" y="-20.0"/>
      <point x="1320.0" y="217.0"/>
      <point x="1381.3333333333335" y="599.3333333333334" type="curve" smooth="yes"/>
      <point x="1403.3333333333335" y="721.6666666666666" type="line"/>
      <point x="838.3333333333334" y="721.6666666666666" type="line"/>
      <point x="816.0" y="599.3333333333334" type="line"/>
      <point x="1293.0" y="599.3333333333334" type="line"/>
      <point x="1252.6666666666667" y="612.6666666666666" type="line"/>
      <point x="1204.0" y="302.3333333333333"/>
      <point x="967.6666666666667" y="107.33333333333334"/>
      <point x="695.0" y="107.33333333333334" type="curve" smooth="yes"/>
      <point x="390.3333333333333" y="107.33333333333334"/>
      <point x="225.66666666666666" y="342.3333333333333"/>
      <point x="292.6666666666667" y="745.0" type="curve" smooth="yes"/>
      <point x="361.3333333333333" y="1156.3333333333333"/>
      <point x="637.3333333333333" y="1381.6666666666667"/>
      <point x="915.0" y="1381.6666666666667" type="curve" smooth="yes"/>
      <point x="1164.3333333333335" y="1381.6666666666667"/>
      <point x="1282.3333333333333" y="1223.6666666666665"/>
    </contour>
  </outline>
</glyph>
<glyph name="H" format="2">
  <advance height="2479.0" width="1513.0"/>
  <unicode hex="0048"/>
  <anchor x="662.0" y="0.0" name="bottom"/>
  <anchor x="185.66666666666666" y="-2.0" name="cedilla"/>
  <anchor x="1281.6666666666665" y="44.66666666666667" name="cyrtic"/>
  <anchor x="1219.6666666666667" y="0.0" name="right"/>
  <anchor x="313.3333333333333" y="1489.0" name="tonos"/>
  <anchor x="947.3333333333334" y="1678.0" name="top"/>
  <outline>
    <contour>
      <point x="104.66666666666666" y="0.0" type="line"/>
      <point x="240.66666666666669" y="0.0" type="line"/>
      <point x="353.6666666666667" y="684.3333333333334" type="line"/>
      <point x="1199.3333333333333" y="684.3333333333334" type="line"/>
      <point x="1086.3333333333333" y="0.0" type="line"/>
      <point x="1221.6666666666667" y="0.0" type="line"/>
      <point x="1468.6666666666667" y="1489.0" type="line"/>
      <point x="1333.3333333333333" y="1489.0" type="line"/>
      <point x="1220.3333333333333" y="806.6666666666666" type="line"/>
      <point x="374.0" y="806.6666666666666" type="line"/>
      <point x="487.6666666666667" y="1489.0" type="line"/>
      <point x="352.3333333333333" y="1489.0" type="line"/>
    </contour>
  </outline>
</glyph>
<glyph name="J" format="2">
  <advance height="2479.0" width="1096.6666666666665"/>
  <unicode hex="004A"/>
  <anchor x="885.3333333333334" y="884.0" name="cross"/>
  <anchor x="1016.3333333333334" y="1676.0" name="top"/>
  <outline>
    <contour>
      <point x="916.6666666666667" y="1489.0" type="line"/>
      <point x="739.6666666666667" y="419.3333333333333" type="line"/>
      <point x="703.0" y="202.33333333333334"/>
      <point x="572.0" y="102.0"/>
      <point x="411.3333333333333" y="102.0" type="curve" smooth="yes"/>
      <point x="260.33333333333337" y="102.0"/>
      <point x="164.33333333333334" y="189.33333333333334"/>
      <point x="184.33333333333334" y="325.6666666666667" type="curve"/>
      <point x="54.0" y="325.6666666666667" type="line"/>
      <point x="21.33333333333333" y="116.66666666666667"/>
      <point x="171.99999999999997" y="-20.0"/>
      <point x="406.3333333333333" y="-20.0" type="curve" smooth="yes"/>
      <point x="645.0" y="-20.0"/>
      <point x="825.6666666666666" y="120.33333333333334"/>
      <point x="874.0" y="411.3333333333333" type="curve"/>
      <point x="1052.0" y="1489.0" type="line"/>
    </contour>
  </outline>
</glyph>
<glyph name="K" format="2">
  <advance height="2479.0" width="1311.0"/>
  <unicode hex="004B"/>
  <anchor x="577.6666666666667" y="0.0" name="bottom"/>
  <anchor x="844.3333333333334" y="1676.0" name="top"/>
  <outline>
    <contour>
      <point x="104.66666666666666" y="0.0" type="line"/>
      <point x="240.66666666666669" y="0.0" type="line"/>
      <point x="322.0" y="484.0" type="line"/>
      <point x="557.3333333333334" y="705.6666666666666" type="line"/>
      <point x="991.3333333333333" y="0.0" type="line"/>
      <point x="1157.0" y="0.0" type="line"/>
      <point x="657.3333333333334" y="800.6666666666666" type="line"/>
      <point x="1407.0" y="1489.0" type="line"/>
      <point x="1228.3333333333333" y="1489.0" type="line"/>
      <point x="368.3333333333333" y="687.6666666666666" type="line"/>
      <point x="355.0" y="687.6666666666666" type="line"/>
      <point x="487.6666666666667" y="1489.0" type="line"/>
      <point x="352.3333333333333" y="1489.0" type="line"/>
    </contour>
  </outline>
</glyph>
<glyph name="L" format="2">
  <advance height="2479.0" width="1152.0"/>
  <unicode hex="004C"/>
  <anchor x="533.0" y="0.0" name="bottom"/>
  <anchor x="300.3333333333333" y="768.0" name="cross"/>
  <anchor x="641.0" y="778.6666666666666" name="dot"/>
  <anchor x="770.0" y="1489.0" name="raccent"/>
  <anchor x="454.0" y="1676.0" name="top"/>
  <outline>
    <contour>
      <point x="104.66666666666666" y="0.0" type="line"/>
      <point x="950.3333333333333" y="0.0" type="line"/>
      <point x="970.6666666666666" y="122.33333333333334" type="line"/>
      <point x="261.0" y="122.33333333333334" type="line"/>
      <point x="487.6666666666667" y="1489.0" type="line"/>
      <point x="352.3333333333333" y="1489.0" type="line"/>
    </contour>
  </outline>
</glyph>
<glyph name="M" format="2">
  <advance height="2479.0" width="1804.3333333333333"/>
  <unicode hex="004D"/>
  <anchor x="808.3333333333334" y="0.0" name="bottom"/>
  <anchor x="1499.0" y="0.0" name="right"/>
  <anchor x="1088.3333333333333" y="1676.0" name="top"/>
  <outline>
    <contour>
      <point x="352.3333333333333" y="1489.0" type="line"/>
      <point x="104.66666666666666" y="0.0" type="line"/>
      <point x="232.66666666666669" y="0.0" type="line"/>
      <point x="433.33333333333337" y="1202.6666666666667" type="line"/>
      <point x="445.33333333333337" y="1202.6666666666667" type="line"/>
      <point x="746.6666666666666" y="0.0" type="line"/>
      <point x="871.0" y="0.0" type="line"/>
      <point x="1573.6666666666667" y="1202.6666666666667" type="line"/>
      <point x="1585.3333333333335" y="1202.6666666666667" type="line"/>
      <point x="1384.6666666666667" y="0.0" type="line"/>
      <point x="1513.0" y="0.0" type="line"/>
      <point x="1760.0" y="1489.0" type="line"/>
      <point x="1603.0" y="1489.0" type="line"/>
      <point x="848.6666666666667" y="192.0" type="line"/>
      <point x="834.6666666666666" y="192.0" type="line"/>
      <point x="509.3333333333333" y="1489.0" type="line"/>
    </contour>
  </outline>
</glyph>
<glyph name="N" format="2">
  <advance height="2479.0" width="1556.3333333333335"/>
  <unicode hex="004E"/>
  <anchor x="684.6666666666666" y="0.0" name="bottom"/>
  <anchor x="1245.6666666666665" y="0.0" name="right"/>
  <anchor x="963.6666666666666" y="1676.0" name="top"/>
  <outline>
    <contour>
      <point x="1512.0" y="1489.0" type="line"/>
      <point x="1377.6666666666667" y="1489.0" type="line"/>
      <point x="1170.3333333333335" y="240.33333333333334" type="line"/>
      <point x="1159.0" y="240.33333333333334" type="line"/>
      <point x="483.6666666666667" y="1489.0" type="line"/>
      <point x="352.3333333333333" y="1489.0" type="line"/>
      <point x="104.66666666666666" y="0.0" type="line"/>
      <point x="240.66666666666669" y="0.0" type="line"/>
      <point x="448.33333333333337" y="1246.6666666666667" type="line"/>
      <point x="459.6666666666667" y="1246.6666666666667" type="line"/>
      <point x="1132.6666666666667" y="0.0" type="line"/>
      <point x="1264.3333333333333" y="0.0" type="line"/>
    </contour>
  </outline>
</glyph>
<glyph name="O" format="2">
  <advance height="2479.0" width="1549.3333333333333"/>
  <unicode hex="004F"/>
  <anchor x="689.3333333333334" y="4.0" name="bottom"/>
  <anchor x="797.3333333333334" y="0.0" name="ogonek"/>
  <anchor x="343.3333333333333" y="1489.0" name="tonos"/>
  <anchor x="957.0" y="1676.0" name="top"/>
  <outline>
    <contour>
      <point x="1447.6666666666667" y="737.0" type="curve"/>
      <point x="1526.3333333333335" y="1207.3333333333335"/>
      <point x="1303.6666666666665" y="1510.0"/>
      <point x="926.0" y="1510.0" type="curve" smooth="yes"/>
      <point x="552.0000000000001" y="1510.0"/>
      <point x="240.33333333333331" y="1214.6666666666665"/>
      <point x="161.66666666666666" y="752.3333333333334" type="curve"/>
      <point x="85.33333333333333" y="283.0"/>
      <point x="303.66666666666663" y="-20.0"/>
      <point x="686.3333333333334" y="-20.0" type="curve" smooth="yes"/>
      <point x="1059.0" y="-20.0"/>
      <point x="1371.0" y="275.0"/>
    </contour>
    <contour>
      <point x="1318.0" y="752.3333333333334" type="curve"/>
      <point x="1253.0" y="349.0"/>
      <point x="988.6666666666666" y="107.33333333333334"/>
      <point x="689.3333333333334" y="107.33333333333334" type="curve" smooth="yes"/>
      <point x="399.0" y="107.33333333333334"/>
      <point x="225.33333333333334" y="339.0"/>
      <point x="292.0" y="737.0" type="curve"/>
      <point x="359.6666666666667" y="1142.0"/>
      <point x="623.0" y="1381.6666666666667"/>
      <point x="921.0" y="1381.6666666666667" type="curve" smooth="yes"/>
      <point x="1209.6666666666667" y="1381.6666666666667"/>
      <point x="1384.6666666666667" y="1150.6666666666665"/>
    </contour>
  </outline>
</glyph>
<glyph name="P" format="2">
  <advance height="2479.0" width="1278.6666666666667"/>
  <unicode hex="0050"/>
  <anchor x="314.3333333333333" y="1489.0" name="tonos"/>
  <anchor x="831.0" y="1676.0" name="top"/>
  <outline>
    <contour>
      <point x="104.66666666666666" y="0.0" type="line"/>
      <point x="240.66666666666669" y="0.0" type="line"/>
      <point x="467.6666666666667" y="1367.0" type="line"/>
      <point x="809.0" y="1367.0" type="line" smooth="yes"/>
      <point x="1044.3333333333333" y="1367.0"/>
      <point x="1134.3333333333335" y="1227.0"/>
      <point x="1102.6666666666667" y="1029.6666666666667" type="curve" smooth="yes"/>
      <point x="1070.6666666666667" y="836.0"/>
      <point x="932.3333333333333" y="691.3333333333334"/>
      <point x="698.3333333333334" y="691.3333333333334" type="curve" smooth="yes"/>
      <point x="323.6666666666667" y="691.3333333333334" type="line"/>
      <point x="303.6666666666667" y="569.3333333333334" type="line"/>
      <point x="682.0" y="569.3333333333334" type="line" smooth="yes"/>
      <point x="996.0" y="569.3333333333334"/>
      <point x="1193.6666666666667" y="770.6666666666666"/>
      <point x="1236.0" y="1029.6666666666667" type="curve" smooth="yes"/>
      <point x="1280.0" y="1291.6666666666667"/>
      <point x="1149.0" y="1489.0"/>
      <point x="833.0" y="1489.0" type="curve" smooth="yes"/>
      <point x="352.3333333333333" y="1489.0" type="line"/>
    </contour>
  </outline>
</glyph>
<glyph name="Q" format="2">
  <advance height="2479.0" width="1572.0"/>
  <unicode hex="0051"/>
  <anchor x="689.3333333333334" y="4.0" name="bottom"/>
  <anchor x="797.3333333333334" y="0.0" name="ogonek"/>
  <anchor x="343.3333333333333" y="1489.0" name="tonos"/>
  <anchor x="957.0" y="1676.0" name="top"/>
  <outline>
    <contour>
      <point x="716.3333333333334" y="465.0" type="line"/>
      <point x="971.3333333333333" y="130.0" type="line"/>
      <point x="1001.6666666666666" y="89.66666666666667" type="line"/>
      <point x="1173.3333333333333" y="-140.0" type="line"/>
      <point x="1324.6666666666665" y="-140.0" type="line"/>
      <point x="1091.3333333333333" y="170.66666666666666" type="line"/>
      <point x="1059.0" y="213.0" type="line"/>
      <point x="867.6666666666667" y="465.0" type="line"/>
    </contour>
    <component base="O"/>
  </outline>
</glyph>
<glyph name="R" format="2">
  <advance height="2479.0" width="1292.6666666666667"/>
  <unicode hex="0052"/>
  <anchor x="570.3333333333334" y="0.0" name="bottom"/>
  <anchor x="825.3333333333334" y="1676.0" name="top"/>
  <outline>
    <contour>
      <point x="104.66666666666666" y="0.0" type="line"/>
      <point x="240.66666666666669" y="0.0" type="line"/>
      <point x="467.6666666666667" y="1367.0" type="line"/>
      <point x="809.0" y="1367.0" type="line" smooth="yes"/>
      <point x="1044.3333333333333" y="1367.0"/>
      <point x="1137.3333333333335" y="1240.3333333333333"/>
      <point x="1105.6666666666667" y="1043.6666666666667" type="curve" smooth="yes"/>
      <point x="1073.6666666666667" y="849.3333333333333"/>
      <point x="938.3333333333334" y="726.3333333333334"/>
      <point x="705.0" y="726.3333333333334" type="curve" smooth="yes"/>
      <point x="299.3333333333333" y="726.3333333333334" type="line"/>
      <point x="278.3333333333333" y="602.3333333333334" type="line"/>
      <point x="687.3333333333334" y="602.3333333333334" type="line" smooth="yes"/>
      <point x="1002.0" y="602.3333333333334"/>
      <point x="1195.6666666666667" y="784.6666666666666"/>
      <point x="1239.0" y="1043.6666666666667" type="curve" smooth="yes"/>
      <point x="1282.0" y="1305.0"/>
      <point x="1149.0" y="1489.0"/>
      <point x="833.0" y="1489.0" type="curve" smooth="yes"/>
      <point x="352.3333333333333" y="1489.0" type="line"/>
    </contour>
    <contour>
      <point x="872.6666666666666" y="672.0" type="line"/>
      <point x="720.3333333333334" y="672.0" type="line"/>
      <point x="971.3333333333334" y="0.0" type="line"/>
      <point x="1127.6666666666667" y="0.0" type="line"/>
    </contour>
  </outline>
</glyph>
<glyph name="S" format="2">
  <advance height="2479.0" width="1288.6666666666667"/>
  <unicode hex="0053"/>
  <anchor x="550.0" y="-25.0" name="bottom"/>
  <anchor x="554.3333333333334" y="0.0" name="cedilla"/>
  <anchor x="830.3333333333334" y="1676.0" name="top"/>
  <outline>
    <contour>
      <point x="1097.6666666666665" y="1109.0" type="curve"/>
      <point x="1229.6666666666667" y="1109.0" type="line"/>
      <point x="1254.6666666666667" y="1343.0"/>
      <point x="1089.6666666666667" y="1511.0"/>
      <point x="812.3333333333334" y="1511.0" type="curve" smooth="yes"/>
      <point x="536.3333333333334" y="1511.0"/>
      <point x="299.3333333333333" y="1347.3333333333333"/>
      <point x="257.66666666666663" y="1105.6666666666667" type="curve" smooth="yes"/>
      <point x="227.0" y="914.3333333333334"/>
      <point x="341.66666666666663" y="794.6666666666666"/>
      <point x="563.6666666666666" y="726.3333333333334" type="curve" smooth="yes"/>
      <point x="734.0" y="674.3333333333334" type="line" smooth="yes"/>
      <point x="910.6666666666666" y="620.3333333333334"/>
      <point x="1025.6666666666667" y="550.0"/>
      <point x="999.6666666666667" y="397.3333333333333" type="curve" smooth="yes"/>
      <point x="970.6666666666667" y="219.0"/>
      <point x="789.3333333333334" y="99.0"/>
      <point x="566.3333333333334" y="99.0" type="curve" smooth="yes"/>
      <point x="365.6666666666667" y="99.0"/>
      <point x="223.0" y="195.33333333333334"/>
      <point x="238.33333333333334" y="372.3333333333333" type="curve"/>
      <point x="98.66666666666666" y="372.3333333333333" type="line"/>
      <point x="75.99999999999999" y="136.66666666666666"/>
      <point x="242.33333333333331" y="-25.0"/>
      <point x="546.3333333333334" y="-25.0" type="curve" smooth="yes"/>
      <point x="872.6666666666666" y="-25.0"/>
      <point x="1091.3333333333333" y="154.33333333333334"/>
      <point x="1132.0" y="395.3333333333333" type="curve" smooth="yes"/>
      <point x="1172.6666666666667" y="643.3333333333334"/>
      <point x="973.0" y="741.6666666666666"/>
      <point x="794.3333333333334" y="795.3333333333334" type="curve" smooth="yes"/>
      <point x="643.6666666666666" y="839.6666666666666" type="line" smooth="yes"/>
      <point x="506.3333333333333" y="880.6666666666666"/>
      <point x="366.0" y="954.6666666666667"/>
      <point x="392.0" y="1111.6666666666667" type="curve" smooth="yes"/>
      <point x="418.0" y="1271.0"/>
      <point x="581.6666666666666" y="1388.6666666666667"/>
      <point x="789.0" y="1388.6666666666667" type="curve" smooth="yes"/>
      <point x="987.0" y="1388.6666666666667"/>
      <point x="1103.6666666666665" y="1283.6666666666667"/>
    </contour>
  </outline>
</glyph>
<glyph name="T" format="2">
  <advance height="2479.0" width="1295.6666666666667"/>
  <unicode hex="0054"/>
  <anchor x="554.3333333333334" y="0.0" name="bottom"/>
  <anchor x="568.0" y="-2.0" name="cedilla"/>
  <anchor x="682.3333333333334" y="768.0" name="cross"/>
  <anchor x="692.0" y="44.66666666666667" name="cyrtic"/>
  <anchor x="585.6666666666666" y="0.0" name="right"/>
  <anchor x="834.3333333333334" y="1676.0" name="top"/>
  <outline>
    <contour>
      <point x="241.66666666666669" y="1367.0" type="line"/>
      <point x="713.6666666666666" y="1367.0" type="line"/>
      <point x="486.66666666666663" y="0.0" type="line"/>
      <point x="623.0" y="0.0" type="line"/>
      <point x="849.6666666666666" y="1367.0" type="line"/>
      <point x="1321.6666666666667" y="1367.0" type="line"/>
      <point x="1342.0" y="1489.0" type="line"/>
      <point x="261.6666666666667" y="1489.0" type="line"/>
    </contour>
  </outline>
</glyph>
<glyph name="U" format="2">
  <advance height="2479.0" width="1524.0"/>
  <unicode hex="0055"/>
  <anchor x="665.0" y="-21.0" name="bottom"/>
  <anchor x="784.0" y="0.0" name="ogonek"/>
  <anchor x="745.3333333333334" y="0.0" name="right"/>
  <anchor x="945.6666666666666" y="1676.0" name="top"/>
  <outline>
    <contour>
      <point x="1343.3333333333333" y="1489.0" type="line"/>
      <point x="1181.6666666666667" y="513.0" type="line" smooth="yes"/>
      <point x="1141.6666666666667" y="276.0"/>
      <point x="942.6666666666666" y="103.0"/>
      <point x="683.0" y="103.0" type="curve" smooth="yes"/>
      <point x="423.6666666666667" y="103.0"/>
      <point x="284.6666666666667" y="276.0"/>
      <point x="324.6666666666667" y="513.0" type="curve" smooth="yes"/>
      <point x="486.33333333333337" y="1489.0" type="line"/>
      <point x="350.66666666666663" y="1489.0" type="line"/>
      <point x="187.66666666666666" y="503.0" type="line" smooth="yes"/>
      <point x="138.0" y="199.33333333333334"/>
      <point x="329.3333333333333" y="-25.0"/>
      <point x="663.6666666666666" y="-25.0" type="curve" smooth="yes"/>
      <point x="1000.3333333333334" y="-25.0"/>
      <point x="1266.6666666666665" y="199.0"/>
      <point x="1316.6666666666665" y="503.0" type="curve" smooth="yes"/>
      <point x="1479.6666666666665" y="1489.0" type="line"/>
    </contour>
  </outline>
</glyph>
<glyph name="V" format="2">
  <advance height="2479.0" width="1344.3333333333333"/>
  <unicode hex="0056"/>
  <anchor x="579.0" y="0.0" name="bottom"/>
  <anchor x="856.0" y="1676.0" name="top"/>
  <outline>
    <contour>
      <point x="352.6666666666667" y="1489.0" type="line"/>
      <point x="210.0" y="1489.0" type="line"/>
      <point x="504.3333333333333" y="0.0" type="line"/>
      <point x="650.3333333333334" y="0.0" type="line"/>
      <point x="1439.6666666666667" y="1489.0" type="line"/>
      <point x="1297.3333333333333" y="1489.0" type="line"/>
      <point x="614.3333333333333" y="176.66666666666669" type="line"/>
      <point x="601.0" y="176.66666666666669" type="line"/>
    </contour>
  </outline>
</glyph>
<glyph name="W" format="2">
  <advance height="2479.0" width="1904.3333333333333"/>
  <unicode hex="0057"/>
  <anchor x="860.3333333333334" y="12.0" name="bottom"/>
  <anchor x="1136.0000000000002" y="1676.0" name="top"/>
  <outline>
    <contour>
      <point x="362.33333333333337" y="0.0" type="line"/>
      <point x="507.6666666666667" y="0.0" type="line"/>
      <point x="1063.3333333333333" y="1263.6666666666667" type="line"/>
      <point x="1072.6666666666665" y="1263.6666666666667" type="line"/>
      <point x="1207.6666666666665" y="0.0" type="line"/>
      <point x="1354.0" y="0.0" type="line"/>
      <point x="2009.6666666666665" y="1489.0" type="line"/>
      <point x="1870.3333333333333" y="1489.0" type="line"/>
      <point x="1320.3333333333335" y="208.33333333333334" type="line"/>
      <point x="1308.3333333333335" y="208.33333333333334" type="line"/>
      <point x="1183.6666666666665" y="1489.0" type="line"/>
      <point x="1026.3333333333333" y="1489.0" type="line"/>
      <point x="475.33333333333337" y="208.33333333333334" type="line"/>
      <point x="464.00000000000006" y="208.33333333333334" type="line"/>
      <point x="339.6666666666667" y="1489.0" type="line"/>
      <point x="201.33333333333331" y="1489.0" type="line"/>
    </contour>
  </outline>
</glyph>
<glyph name="X" format="2">
  <advance height="2479.0" width="1276.3333333333333"/>
  <unicode hex="0058"/>
  <anchor x="547.6666666666666" y="12.0" name="bottom"/>
  <anchor x="669.6666666666666" y="745.0" name="cross"/>
  <anchor x="1109.3333333333333" y="44.66666666666667" name="cyrtic"/>
  <anchor x="1019.3333333333333" y="0.0" name="right"/>
  <anchor x="824.3333333333333" y="1676.0" name="top"/>
  <outline>
    <contour>
      <point x="374.33333333333337" y="1489.0" type="line"/>
      <point x="214.0" y="1489.0" type="line"/>
      <point x="578.6666666666666" y="745.0" type="line"/>
      <point x="-33.0" y="0.0" type="line"/>
      <point x="130.33333333333334" y="0.0" type="line"/>
      <point x="648.3333333333334" y="639.0" type="line"/>
      <point x="658.3333333333333" y="639.0" type="line"/>
      <point x="963.6666666666666" y="0.0" type="line"/>
      <point x="1123.3333333333333" y="0.0" type="line"/>
      <point x="768.6666666666666" y="745.0" type="line"/>
      <point x="1370.3333333333333" y="1489.0" type="line"/>
      <point x="1208.0" y="1489.0" type="line"/>
      <point x="689.6666666666666" y="842.6666666666666" type="line"/>
      <point x="679.6666666666667" y="842.6666666666666" type="line"/>
    </contour>
  </outline>
</glyph>
<glyph name="Y" format="2">
  <advance height="2479.0" width="1326.3333333333333"/>
  <unicode hex="0059"/>
  <anchor x="570.3333333333334" y="0.0" name="bottom"/>
  <anchor x="670.3333333333334" y="597.0" name="cross"/>
  <anchor x="638.3333333333334" y="0.0" name="ogonek"/>
  <anchor x="160.33333333333331" y="1489.0" name="tonos"/>
  <anchor x="849.6666666666667" y="1676.0" name="top"/>
  <outline>
    <contour>
      <point x="212.66666666666666" y="1489.0" type="line"/>
      <point x="608.6666666666666" y="645.0" type="line"/>
      <point x="501.99999999999994" y="0.0" type="line"/>
      <point x="638.3333333333334" y="0.0" type="line"/>
      <point x="745.0" y="645.0" type="line"/>
      <point x="1422.3333333333333" y="1489.0" type="line"/>
      <point x="1264.6666666666667" y="1489.0" type="line"/>
      <point x="706.6666666666666" y="782.3333333333334" type="line"/>
      <point x="692.6666666666667" y="782.3333333333334" type="line"/>
      <point x="367.33333333333337" y="1489.0" type="line"/>
    </contour>
  </outline>
</glyph>
<glyph name="Z" format="2">
  <advance height="2479.0" width="1266.3333333333333"/>
  <unicode hex="005A"/>
  <anchor x="559.6666666666667" y="0.0" name="bottom"/>
  <anchor x="676.6666666666667" y="760.3333333333334" name="cross"/>
  <anchor x="829.3333333333334" y="1676.0" name="top"/>
  <outline>
    <contour>
      <point x="45.66666666666666" y="0.0" type="line"/>
      <point x="1042.6666666666667" y="0.0" type="line"/>
      <point x="1063.0" y="122.33333333333334" type="line"/>
      <point x="228.66666666666666" y="122.33333333333334" type="line"/>
      <point x="1266.3333333333335" y="1387.0" type="line"/>
      <point x="1281.6666666666667" y="1489.0" type="line"/>
      <point x="288.66666666666663" y="1489.0" type="line"/>
      <point x="269.3333333333333" y="1367.0" type="line"/>
      <point x="1098.6666666666667" y="1367.0" type="line"/>
      <point x="63.99999999999999" y="103.0" type="line"/>
    </contour>
  </outline>
</glyph>
<glyph name="bracketleft" format="2">
  <advance height="2479.0" width="710.0"/>
  <unicode hex="005B"/>
  <outline>
    <contour>
      <point x="103.66666666666667" y="-303.0" type="line"/>
      <point x="475.66666666666663" y="-303.0" type="line"/>
      <point x="494.66666666666663" y="-192.0" type="line"/>
      <point x="246.33333333333331" y="-192.0" type="line"/>
      <point x="517.9999999999999" y="1449.0" type="line"/>
      <point x="766.3333333333333" y="1449.0" type="line"/>
      <point x="784.6666666666666" y="1559.0" type="line"/>
      <point x="412.0" y="1559.0" type="line"/>
    </contour>
  </outline>
</glyph>
<glyph name="backslash" format="2">
  <advance height="2479.0" width="706.6666666666666"/>
  <unicode hex="005C"/>
  <outline>
    <contour>
      <point x="404.3333333333333" y="-224.0" type="line"/>
      <point x="522.0" y="-224.0" type="line"/>
      <point x="337.0" y="1559.0" type="line"/>
      <point x="219.33333333333331" y="1559.0" type="line"/>
    </contour>
  </outline>
</glyph>
<glyph name="asciicircum" format="2">
  <advance height="2479.0" width="913.3333333333334"/>
  <unicode hex="005E"/>
  <outline>
    <contour>
      <point x="575.6666666666667" y="1378.6666666666667" type="line"/>
      <point x="566.3333333333334" y="1315.0" type="line"/>
      <point x="610.6666666666666" y="1315.0" type="line"/>
      <point x="620.6666666666666" y="1378.6666666666667" type="line"/>
    </contour>
    <contour>
      <point x="129.0" y="815.0" type="line"/>
      <point x="266.3333333333333" y="815.0" type="line"/>
      <point x="601.3333333333334" y="1344.0" type="line"/>
      <point x="581.6666666666666" y="1344.0" type="line"/>
      <point x="741.6666666666667" y="815.0" type="line"/>
      <point x="869.6666666666667" y="815.0" type="line"/>
      <point x="673.6666666666666" y="1443.0" type="line"/>
      <point x="530.6666666666666" y="1443.0" type="line"/>
    </contour>
  </outline>
</glyph>
<glyph name="underscore" format="2">
  <advance height="2479.0" width="908.0"/>
  <unicode hex="005F"/>
  <anchor x="395.3333333333333" y="163.66666666666666" name="_bottom"/>
  <outline>
    <contour>
      <point x="818.3333333333333" y="0.0" type="line"/>
      <point x="-97.0" y="0.0" type="line"/>
      <point x="-117.33333333333333" y="-122.33333333333334" type="line"/>
      <point x="799.3333333333333" y="-122.33333333333334" type="line"/>
    </contour>
  </outline>
</glyph>
<glyph name="grave" format="2">
  <advance height="2479.0" width="1018.0"/>
  <unicode hex="0060"/>
  <anchor x="737.0" y="1303.0" name="_top"/>
  <anchor x="784.6666666666666" y="1676.0" name="top"/>
  <outline>
    <contour>
      <point x="676.6666666666666" y="1272.0" type="line"/>
      <point x="792.6666666666667" y="1272.0" type="line"/>
      <point x="661.9999999999999" y="1602.0" type="line"/>
      <point x="510.3333333333333" y="1602.0" type="line"/>
    </contour>
  </outline>
</glyph>
<glyph name="a" format="2">
  <advance height="2479.0" width="1139.3333333333333"/>
  <unicode hex="0061"/>
  <anchor x="484.33333333333337" y="0.0" name="bottom"/>
  <anchor x="874.0" y="0.0" name="ogonek"/>
  <anchor x="697.3333333333334" y="1303.0" name="rhalfring"/>
  <anchor x="704.3333333333333" y="1303.0" name="top"/>
  <outline>
    <contour>
      <point x="387.0" y="-24.333333333333332" type="curve" smooth="yes"/>
      <point x="573.3333333333334" y="-24.333333333333332"/>
      <point x="704.0" y="78.0"/>
      <point x="766.3333333333333" y="176.33333333333334" type="curve"/>
      <point x="773.6666666666666" y="176.33333333333334" type="line"/>
      <point x="743.6666666666666" y="0.0" type="line"/>
      <point x="874.0" y="0.0" type="line"/>
      <point x="999.6666666666666" y="758.3333333333334" type="line" smooth="yes"/>
      <point x="1049.6666666666667" y="1058.0"/>
      <point x="836.6666666666666" y="1133.0"/>
      <point x="666.3333333333334" y="1133.0" type="curve" smooth="yes"/>
      <point x="495.6666666666667" y="1133.0"/>
      <point x="306.3333333333333" y="1064.3333333333333"/>
      <point x="201.66666666666666" y="882.6666666666666" type="curve"/>
      <point x="316.0" y="838.0" type="line"/>
      <point x="373.6666666666667" y="932.6666666666666"/>
      <point x="495.33333333333337" y="1016.0"/>
      <point x="656.3333333333334" y="1016.0" type="curve" smooth="yes"/>
      <point x="825.0" y="1016.0"/>
      <point x="881.3333333333333" y="923.6666666666666"/>
      <point x="871.6666666666666" y="769.6666666666666" type="curve" smooth="yes"/>
      <point x="867.6666666666666" y="744.0" type="line" smooth="yes"/>
      <point x="863.0" y="659.6666666666666"/>
      <point x="747.3333333333334" y="658.3333333333334"/>
      <point x="557.6666666666666" y="635.3333333333334" type="curve" smooth="yes"/>
      <point x="299.3333333333333" y="604.3333333333333"/>
      <point x="111.66666666666667" y="533.3333333333334"/>
      <point x="73.66666666666667" y="312.3333333333333" type="curve" smooth="yes"/>
      <point x="39.66666666666667" y="97.0"/>
      <point x="184.0" y="-24.333333333333332"/>
    </contour>
    <contour>
      <point x="419.66666666666663" y="93.66666666666667" type="curve" smooth="yes"/>
      <point x="273.6666666666667" y="93.66666666666667"/>
      <point x="181.0" y="170.66666666666666"/>
      <point x="204.0" y="306.3333333333333" type="curve" smooth="yes"/>
      <point x="226.0" y="441.0"/>
      <point x="347.0" y="498.3333333333333"/>
      <point x="540.3333333333333" y="521.3333333333334" type="curve" smooth="yes"/>
      <point x="631.0" y="532.3333333333334"/>
      <point x="798.0" y="553.0"/>
      <point x="841.6666666666666" y="589.3333333333334" type="curve"/>
      <point x="814.6666666666666" y="428.3333333333333" type="line" smooth="yes"/>
      <point x="784.6666666666666" y="245.66666666666666"/>
      <point x="626.3333333333334" y="93.66666666666667"/>
    </contour>
  </outline>
</glyph>
<glyph name="b" format="2">
  <advance height="2479.0" width="1255.6666666666667"/>
  <unicode hex="0062"/>
  <anchor x="560.6666666666667" y="0.0" name="bottom"/>
  <anchor x="383.0" y="1280.0" name="cross"/>
  <anchor x="797.0" y="1303.0" name="top"/>
  <outline>
    <contour>
      <point x="104.66666666666666" y="0.0" type="line"/>
      <point x="230.66666666666669" y="0.0" type="line"/>
      <point x="265.6666666666667" y="207.66666666666666" type="line"/>
      <point x="281.6666666666667" y="207.66666666666666" type="line"/>
      <point x="310.66666666666663" y="105.0"/>
      <point x="383.0" y="-23.0"/>
      <point x="586.3333333333334" y="-23.0" type="curve" smooth="yes"/>
      <point x="861.3333333333334" y="-23.0"/>
      <point x="1085.0" y="209.66666666666666"/>
      <point x="1142.6666666666667" y="556.0" type="curve" smooth="yes"/>
      <point x="1199.6666666666667" y="900.0"/>
      <point x="1052.3333333333335" y="1133.0"/>
      <point x="776.3333333333334" y="1133.0" type="curve" smooth="yes"/>
      <point x="572.0" y="1133.0"/>
      <point x="457.6666666666667" y="1004.6666666666666"/>
      <point x="398.0" y="904.0" type="curve"/>
      <point x="386.0" y="904.0" type="line"/>
      <point x="481.6666666666667" y="1489.0" type="line"/>
      <point x="352.3333333333333" y="1489.0" type="line"/>
    </contour>
    <contour>
      <point x="325.6666666666667" y="558.0" type="curve" smooth="yes"/>
      <point x="369.6666666666667" y="825.3333333333334"/>
      <point x="527.3333333333333" y="1014.0"/>
      <point x="745.6666666666666" y="1014.0" type="curve" smooth="yes"/>
      <point x="969.6666666666666" y="1014.0"/>
      <point x="1054.3333333333335" y="815.3333333333334"/>
      <point x="1012.3333333333334" y="558.0" type="curve" smooth="yes"/>
      <point x="968.6666666666667" y="297.6666666666667"/>
      <point x="811.0" y="95.0"/>
      <point x="588.3333333333334" y="95.0" type="curve" smooth="yes"/>
      <point x="371.6666666666667" y="95.0"/>
      <point x="282.0" y="287.6666666666667"/>
    </contour>
  </outline>
</glyph>
<glyph name="c" format="2">
  <advance height="2479.0" width="1138.6666666666665"/>
  <unicode hex="0063"/>
  <anchor x="513.6666666666667" y="0.0" name="cedilla"/>
  <anchor x="720.6666666666667" y="1303.0" name="top"/>
  <outline>
    <contour>
      <point x="510.6666666666667" y="-23.0" type="curve" smooth="yes"/>
      <point x="742.3333333333333" y="-23.0"/>
      <point x="929.6666666666667" y="122.66666666666667"/>
      <point x="995.0000000000001" y="326.0" type="curve"/>
      <point x="864.6666666666666" y="326.0" type="line"/>
      <point x="810.3333333333333" y="184.33333333333331"/>
      <point x="677.0" y="95.0"/>
      <point x="528.0" y="95.0" type="curve" smooth="yes"/>
      <point x="308.66666666666663" y="95.0"/>
      <point x="197.0" y="286.0"/>
      <point x="242.66666666666666" y="558.0" type="curve" smooth="yes"/>
      <point x="286.3333333333333" y="828.6666666666667"/>
      <point x="468.3333333333333" y="1014.0"/>
      <point x="685.3333333333334" y="1014.0" type="curve" smooth="yes"/>
      <point x="843.6666666666667" y="1014.0"/>
      <point x="933.0" y="913.6666666666666"/>
      <point x="939.0" y="785.6666666666666" type="curve"/>
      <point x="1070.0" y="785.6666666666666" type="line"/>
      <point x="1073.3333333333333" y="993.0"/>
      <point x="925.0" y="1133.0"/>
      <point x="700.6666666666666" y="1133.0" type="curve" smooth="yes"/>
      <point x="408.3333333333333" y="1133.0"/>
      <point x="167.00000000000003" y="890.3333333333333"/>
      <point x="113.0" y="554.0" type="curve" smooth="yes"/>
      <point x="58.00000000000001" y="221.33333333333334"/>
      <point x="208.66666666666666" y="-23.0"/>
    </contour>
  </outline>
</glyph>
<glyph name="d" format="2">
  <advance height="2479.0" width="1258.3333333333333"/>
  <unicode hex="0064"/>
  <anchor x="515.6666666666666" y="0.0" name="bottom"/>
  <anchor x="1114.0" y="1280.0" name="cross"/>
  <anchor x="1362.3333333333333" y="1489.0" name="raccent"/>
  <anchor x="741.3333333333334" y="1489.0" name="top"/>
  <outline>
    <contour>
      <point x="478.3333333333333" y="-23.0" type="curve" smooth="yes"/>
      <point x="681.3333333333334" y="-23.0"/>
      <point x="797.0" y="105.66666666666667"/>
      <point x="859.6666666666666" y="207.66666666666666" type="curve"/>
      <point x="875.6666666666666" y="207.66666666666666" type="line"/>
      <point x="840.0" y="0.0" type="line"/>
      <point x="966.3333333333334" y="0.0" type="line"/>
      <point x="1214.0" y="1489.0" type="line"/>
      <point x="1083.9999999999998" y="1489.0" type="line"/>
      <point x="986.3333333333333" y="904.0" type="line"/>
      <point x="975.0" y="904.0" type="line"/>
      <point x="947.0" y="1004.6666666666666"/>
      <point x="876.0" y="1133.0"/>
      <point x="671.3333333333334" y="1133.0" type="curve" smooth="yes"/>
      <point x="396.3333333333333" y="1133.0"/>
      <point x="171.66666666666669" y="900.0"/>
      <point x="113.66666666666667" y="556.0" type="curve" smooth="yes"/>
      <point x="57.333333333333336" y="209.0"/>
      <point x="203.33333333333334" y="-23.0"/>
    </contour>
    <contour>
      <point x="507.00000000000006" y="95.0" type="curve" smooth="yes"/>
      <point x="284.0" y="95.0"/>
      <point x="201.66666666666666" y="297.6666666666667"/>
      <point x="244.66666666666666" y="558.0" type="curve" smooth="yes"/>
      <point x="287.0" y="815.3333333333334"/>
      <point x="440.0" y="1014.0"/>
      <point x="663.3333333333334" y="1014.0" type="curve" smooth="yes"/>
      <point x="882.0" y="1014.0"/>
      <point x="975.6666666666666" y="825.3333333333334"/>
      <point x="931.3333333333333" y="558.0" type="curve" smooth="yes"/>
      <point x="886.3333333333333" y="287.6666666666667"/>
      <point x="723.6666666666666" y="95.0"/>
    </contour>
  </outline>
</glyph>
<glyph name="e" format="2">
  <advance height="2479.0" width="1221.3333333333333"/>
  <unicode hex="0065"/>
  <anchor x="502.6666666666667" y="0.0" name="bottom"/>
  <anchor x="505.6666666666667" y="0.0" name="cedilla"/>
  <anchor x="632.6666666666667" y="0.0" name="ogonek"/>
  <anchor x="718.3333333333334" y="1303.0" name="top"/>
  <outline>
    <contour>
      <point x="526.3333333333334" y="-23.0" type="curve"/>
      <point x="750.3333333333334" y="-23.0"/>
      <point x="920.6666666666666" y="97.66666666666667"/>
      <point x="994.3333333333334" y="238.66666666666666" type="curve"/>
      <point x="879.0" y="278.0" type="line"/>
      <point x="819.6666666666667" y="178.33333333333334"/>
      <point x="704.0" y="95.0"/>
      <point x="544.6666666666667" y="95.0" type="curve" smooth="yes"/>
      <point x="306.0" y="95.0"/>
      <point x="191.66666666666666" y="242.33333333333331"/>
      <point x="237.33333333333334" y="525.3333333333334" type="curve" smooth="yes"/>
      <point x="251.66666666666666" y="611.6666666666667" type="line" smooth="yes"/>
      <point x="288.0" y="818.6666666666666"/>
      <point x="476.0" y="1014.0"/>
      <point x="681.3333333333334" y="1014.0" type="curve"/>
      <point x="881.6666666666666" y="1014.0"/>
      <point x="992.3333333333334" y="849.6666666666666"/>
      <point x="955.6666666666667" y="634.3333333333334" type="curve"/>
      <point x="215.0" y="634.3333333333334" type="line"/>
      <point x="196.33333333333331" y="519.6666666666666" type="line"/>
      <point x="1069.6666666666665" y="519.6666666666666" type="line"/>
      <point x="1079.6666666666665" y="583.6666666666666" type="line" smooth="yes"/>
      <point x="1142.6666666666665" y="957.0"/>
      <point x="941.0" y="1133.0"/>
      <point x="698.6666666666666" y="1133.0" type="curve" smooth="yes"/>
      <point x="409.0" y="1133.0"/>
      <point x="169.00000000000003" y="890.0"/>
      <point x="113.0" y="552.0" type="curve" smooth="yes"/>
      <point x="56.66666666666667" y="213.66666666666666"/>
      <point x="213.66666666666666" y="-23.0"/>
    </contour>
  </outline>
</glyph>
<glyph name="g" format="2">
  <advance height="2479.0" width="1230.3333333333335"/>
  <unicode hex="0067"/>
  <anchor x="437.33333333333337" y="-440.0" name="bottom"/>
  <anchor x="997.0" y="562.3333333333334" name="cross"/>
  <anchor x="739.0" y="1303.0" name="top"/>
  <outline>
    <contour>
      <point x="434.00000000000006" y="-442.0" type="curve" smooth="yes"/>
      <point x="697.6666666666666" y="-442.0"/>
      <point x="913.3333333333334" y="-313.3333333333333"/>
      <point x="961.0" y="-29.0" type="curve" smooth="yes"/>
      <point x="1150.6666666666667" y="1117.0" type="line"/>
      <point x="1024.3333333333333" y="1117.0" type="line"/>
      <point x="989.6666666666666" y="904.0" type="line"/>
      <point x="975.6666666666666" y="904.0" type="line"/>
      <point x="947.0" y="1004.6666666666666"/>
      <point x="876.0" y="1133.0"/>
      <point x="670.0" y="1133.0" type="curve" smooth="yes"/>
      <point x="393.6666666666667" y="1133.0"/>
      <point x="170.33333333333334" y="901.0"/>
      <point x="114.33333333333334" y="561.3333333333334" type="curve" smooth="yes"/>
      <point x="57.333333333333336" y="219.0"/>
      <point x="214.99999999999997" y="11.333333333333334"/>
      <point x="483.0" y="11.333333333333334" type="curve" smooth="yes"/>
      <point x="683.6666666666666" y="11.333333333333334"/>
      <point x="801.3333333333333" y="127.66666666666667"/>
      <point x="861.3333333333333" y="231.0" type="curve"/>
      <point x="873.0" y="231.0" type="line"/>
      <point x="833.3333333333333" y="-21.0" type="line" smooth="yes"/>
      <point x="798.3333333333333" y="-229.0"/>
      <point x="644.0" y="-326.0"/>
      <point x="447.33333333333337" y="-326.0" type="curve" smooth="yes"/>
      <point x="254.33333333333334" y="-326.0"/>
      <point x="182.66666666666666" y="-234.33333333333331"/>
      <point x="149.66666666666669" y="-149.33333333333334" type="curve"/>
      <point x="32.33333333333332" y="-218.0" type="line"/>
      <point x="77.00000000000001" y="-345.6666666666667"/>
      <point x="204.33333333333334" y="-442.0"/>
    </contour>
    <contour>
      <point x="512.3333333333334" y="130.33333333333334" type="curve" smooth="yes"/>
      <point x="289.0" y="130.33333333333334"/>
      <point x="202.33333333333334" y="307.6666666666667"/>
      <point x="244.66666666666666" y="563.3333333333334" type="curve" smooth="yes"/>
      <point x="286.3333333333333" y="815.3333333333334"/>
      <point x="436.3333333333333" y="1014.0"/>
      <point x="661.6666666666667" y="1014.0" type="curve" smooth="yes"/>
      <point x="880.0" y="1014.0"/>
      <point x="974.3333333333333" y="825.3333333333334"/>
      <point x="931.3333333333333" y="563.3333333333334" type="curve" smooth="yes"/>
      <point x="886.6666666666666" y="293.6666666666667"/>
      <point x="726.6666666666666" y="130.33333333333334"/>
    </contour>
  </outline>
</glyph>
<glyph name="h" format="2">
  <advance height="2479.0" width="1194.6666666666667"/>
  <unicode hex="0068"/>
  <anchor x="502.33333333333337" y="0.0" name="bottom"/>
  <anchor x="153.0" y="-2.0" name="cedilla"/>
  <anchor x="361.00000000000006" y="1310.0" name="cross"/>
  <anchor x="423.00000000000006" y="1676.0" name="top"/>
  <outline>
    <contour>
      <point x="322.6666666666667" y="698.3333333333334" type="line" smooth="yes"/>
      <point x="356.6666666666667" y="893.0"/>
      <point x="509.3333333333333" y="1013.0"/>
      <point x="687.3333333333334" y="1013.0" type="curve" smooth="yes"/>
      <point x="860.0" y="1013.0"/>
      <point x="950.3333333333333" y="900.0"/>
      <point x="920.3333333333333" y="715.6666666666666" type="curve" smooth="yes"/>
      <point x="800.6666666666666" y="0.0" type="line"/>
      <point x="931.0" y="0.0" type="line"/>
      <point x="1052.0" y="723.6666666666666" type="line" smooth="yes"/>
      <point x="1096.0" y="990.3333333333333"/>
      <point x="965.0" y="1132.0"/>
      <point x="739.0" y="1132.0" type="curve" smooth="yes"/>
      <point x="569.6666666666666" y="1132.0"/>
      <point x="446.0" y="1058.0"/>
      <point x="376.0" y="942.0" type="curve"/>
      <point x="364.6666666666667" y="942.0" type="line"/>
      <point x="455.0" y="1489.0" type="line"/>
      <point x="324.66666666666663" y="1489.0" type="line"/>
      <point x="77.66666666666666" y="0.0" type="line"/>
      <point x="207.66666666666669" y="0.0" type="line"/>
    </contour>
  </outline>
</glyph>
<glyph name="k" format="2">
  <advance height="2479.0" width="1075.3333333333333"/>
  <unicode hex="006B"/>
  <anchor x="470.33333333333337" y="0.0" name="bottom"/>
  <anchor x="423.00000000000006" y="1676.0" name="top"/>
  <outline>
    <contour>
      <point x="265.6666666666667" y="421.6666666666667" type="line"/>
      <point x="482.0" y="597.6666666666666" type="line"/>
      <point x="493.3333333333333" y="599.6666666666666" type="line"/>
      <point x="1096.6666666666665" y="1117.0" type="line"/>
      <point x="931.0" y="1117.0" type="line"/>
      <point x="321.0" y="592.6666666666666" type="line"/>
      <point x="292.0" y="592.6666666666666" type="line"/>
    </contour>
    <contour>
      <point x="77.66666666666666" y="0.0" type="line"/>
      <point x="207.66666666666669" y="0.0" type="line"/>
      <point x="455.0" y="1489.0" type="line"/>
      <point x="324.66666666666663" y="1489.0" type="line"/>
    </contour>
    <contour>
      <point x="776.0" y="0.0" type="line"/>
      <point x="939.6666666666667" y="0.0" type="line"/>
      <point x="521.6666666666666" y="663.3333333333334" type="line"/>
      <point x="416.3333333333333" y="574.3333333333334" type="line"/>
    </contour>
  </outline>
</glyph>
<glyph name="m" format="2">
  <advance height="2479.0" width="1757.0"/>
  <unicode hex="006D"/>
  <anchor x="785.3333333333334" y="0.0" name="bottom"/>
  <anchor x="1000.3333333333334" y="1303.0" name="top"/>
  <outline>
    <contour>
      <point x="77.66666666666666" y="0.0" type="line"/>
      <point x="207.66666666666669" y="0.0" type="line"/>
      <point x="326.6666666666667" y="715.6666666666666" type="line" smooth="yes"/>
      <point x="354.6666666666667" y="889.0"/>
      <point x="493.6666666666667" y="1013.0"/>
      <point x="649.0" y="1013.0" type="curve" smooth="yes"/>
      <point x="802.3333333333334" y="1013.0"/>
      <point x="870.6666666666666" y="911.3333333333333"/>
      <point x="846.6666666666666" y="760.3333333333334" type="curve" smooth="yes"/>
      <point x="719.6666666666666" y="0.0" type="line"/>
      <point x="851.0" y="0.0" type="line"/>
      <point x="975.0" y="735.0" type="line" smooth="yes"/>
      <point x="1001.0" y="897.0"/>
      <point x="1117.6666666666667" y="1013.0"/>
      <point x="1289.0" y="1013.0" type="curve" smooth="yes"/>
      <point x="1436.3333333333335" y="1013.0"/>
      <point x="1516.6666666666667" y="924.6666666666666"/>
      <point x="1488.6666666666667" y="749.0" type="curve" smooth="yes"/>
      <point x="1363.6666666666667" y="0.0" type="line"/>
      <point x="1493.3333333333333" y="0.0" type="line"/>
      <point x="1618.3333333333333" y="749.0" type="line" smooth="yes"/>
      <point x="1660.3333333333333" y="997.6666666666667"/>
      <point x="1552.6666666666665" y="1132.0"/>
      <point x="1346.0" y="1132.0" type="curve" smooth="yes"/>
      <point x="1183.0" y="1132.0"/>
      <point x="1050.9999999999998" y="1053.0"/>
      <point x="981.0" y="929.3333333333334" type="curve"/>
      <point x="971.6666666666666" y="929.3333333333334" type="line"/>
      <point x="942.6666666666666" y="1055.0"/>
      <point x="857.6666666666667" y="1132.0"/>
      <point x="704.0" y="1132.0" type="curve" smooth="yes"/>
      <point x="557.6666666666667" y="1132.0"/>
      <point x="437.0" y="1061.0"/>
      <point x="372.0" y="945.6666666666666" type="curve"/>
      <point x="360.6666666666667" y="945.6666666666666" type="line"/>
      <point x="389.6666666666667" y="1117.0" type="line"/>
      <point x="263.66666666666663" y="1117.0" type="line"/>
    </contour>
  </outline>
</glyph>
<glyph name="n" format="2">
  <advance height="2479.0" width="1187.3333333333333"/>
  <unicode hex="006E"/>
  <anchor x="500.33333333333337" y="0.0" name="bottom"/>
  <anchor x="716.3333333333334" y="1303.0" name="top"/>
  <outline>
    <contour>
      <point x="322.6666666666667" y="698.3333333333334" type="line" smooth="yes"/>
      <point x="356.6666666666667" y="893.0"/>
      <point x="505.3333333333333" y="1013.0"/>
      <point x="682.0" y="1013.0" type="curve" smooth="yes"/>
      <point x="854.6666666666667" y="1013.0"/>
      <point x="942.3333333333334" y="898.0"/>
      <point x="912.3333333333334" y="715.6666666666666" type="curve" smooth="yes"/>
      <point x="793.3333333333334" y="0.0" type="line"/>
      <point x="923.0" y="0.0" type="line"/>
      <point x="1044.6666666666667" y="723.6666666666666" type="line" smooth="yes"/>
      <point x="1088.0" y="988.3333333333334"/>
      <point x="957.0" y="1132.0"/>
      <point x="733.0" y="1132.0" type="curve" smooth="yes"/>
      <point x="569.6666666666667" y="1132.0"/>
      <point x="442.0" y="1056.0"/>
      <point x="372.0" y="942.0" type="curve"/>
      <point x="360.6666666666667" y="942.0" type="line"/>
      <point x="389.6666666666667" y="1117.0" type="line"/>
      <point x="263.66666666666663" y="1117.0" type="line"/>
      <point x="77.66666666666666" y="0.0" type="line"/>
      <point x="207.66666666666669" y="0.0" type="line"/>
    </contour>
  </outline>
</glyph>
<glyph name="o" format="2">
  <advance height="2479.0" width="1210.3333333333333"/>
  <unicode hex="006F"/>
  <anchor x="512.6666666666666" y="0.0" name="bottom"/>
  <anchor x="616.6666666666666" y="0.0" name="ogonek"/>
  <anchor x="728.6666666666666" y="1303.0" name="top"/>
  <outline>
    <contour>
      <point x="516.6666666666666" y="-23.0" type="curve" smooth="yes"/>
      <point x="801.3333333333334" y="-23.0"/>
      <point x="1038.3333333333335" y="208.66666666666669"/>
      <point x="1094.0" y="544.0" type="curve" smooth="yes"/>
      <point x="1148.6666666666667" y="891.0"/>
      <point x="984.3333333333334" y="1133.0"/>
      <point x="690.6666666666666" y="1133.0" type="curve" smooth="yes"/>
      <point x="405.66666666666663" y="1133.0"/>
      <point x="169.33333333333334" y="901.0"/>
      <point x="114.33333333333334" y="563.0" type="curve" smooth="yes"/>
      <point x="58.00000000000001" y="217.0"/>
      <point x="222.66666666666666" y="-23.0"/>
    </contour>
    <contour>
      <point x="518.6666666666666" y="95.0" type="curve" smooth="yes"/>
      <point x="291.33333333333337" y="95.0"/>
      <point x="199.0" y="298.66666666666663"/>
      <point x="240.33333333333334" y="544.0" type="curve" smooth="yes"/>
      <point x="281.0" y="799.0"/>
      <point x="452.66666666666663" y="1014.0"/>
      <point x="689.6666666666666" y="1014.0" type="curve" smooth="yes"/>
      <point x="915.6666666666667" y="1014.0"/>
      <point x="1007.0" y="809.0"/>
      <point x="967.6666666666667" y="563.0" type="curve" smooth="yes"/>
      <point x="926.0" y="307.0"/>
      <point x="756.0" y="95.0"/>
    </contour>
  </outline>
</glyph>
<glyph name="p" format="2">
  <advance height="2479.0" width="1260.6666666666667"/>
  <unicode hex="0070"/>
  <anchor x="72.66666666666667" y="-419.0" name="bottom"/>
  <anchor x="1033.3333333333333" y="-498.6666666666667" name="bottom0315"/>
  <anchor x="118.00000000000001" y="-163.0" name="cross"/>
  <anchor x="770.6666666666667" y="1303.0" name="top"/>
  <outline>
    <contour>
      <point x="7.666666666666657" y="-419.0" type="line"/>
      <point x="138.33333333333334" y="-419.0" type="line"/>
      <point x="243.33333333333334" y="207.66666666666666" type="line"/>
      <point x="254.33333333333334" y="207.66666666666666" type="line"/>
      <point x="283.33333333333337" y="105.0"/>
      <point x="356.6666666666667" y="-23.0"/>
      <point x="560.0" y="-23.0" type="curve" smooth="yes"/>
      <point x="833.0" y="-23.0"/>
      <point x="1058.3333333333333" y="209.66666666666666"/>
      <point x="1115.6666666666667" y="556.0" type="curve" smooth="yes"/>
      <point x="1172.3333333333333" y="901.0"/>
      <point x="1026.0000000000002" y="1133.0"/>
      <point x="750.0" y="1133.0" type="curve" smooth="yes"/>
      <point x="543.6666666666666" y="1133.0"/>
      <point x="431.33333333333337" y="1004.6666666666667"/>
      <point x="370.6666666666667" y="904.0" type="curve"/>
      <point x="355.6666666666667" y="904.0" type="line"/>
      <point x="390.33333333333337" y="1117.0" type="line"/>
      <point x="264.3333333333333" y="1117.0" type="line"/>
    </contour>
    <contour>
      <point x="299.33333333333337" y="558.0" type="curve" smooth="yes"/>
      <point x="342.33333333333337" y="825.3333333333334"/>
      <point x="500.6666666666667" y="1014.0"/>
      <point x="719.3333333333334" y="1014.0" type="curve" smooth="yes"/>
      <point x="943.3333333333334" y="1014.0"/>
      <point x="1027.0" y="815.3333333333334"/>
      <point x="986.0" y="558.0" type="curve" smooth="yes"/>
      <point x="941.3333333333334" y="297.6666666666667"/>
      <point x="783.6666666666666" y="95.0"/>
      <point x="562.0" y="95.0" type="curve" smooth="yes"/>
      <point x="345.33333333333337" y="95.0"/>
      <point x="255.33333333333334" y="287.6666666666667"/>
    </contour>
  </outline>
</glyph>
<glyph name="q" format="2">
  <advance height="2479.0" width="1260.3333333333335"/>
  <unicode hex="0071"/>
  <anchor x="864.0" y="-419.0" name="bottom"/>
  <anchor x="904.0" y="-163.0" name="cross"/>
  <anchor x="736.0" y="1303.0" name="top"/>
  <outline>
    <contour>
      <point x="798.3333333333333" y="-419.0" type="line"/>
      <point x="927.6666666666666" y="-419.0" type="line"/>
      <point x="1182.6666666666667" y="1117.0" type="line"/>
      <point x="1056.3333333333333" y="1117.0" type="line"/>
      <point x="1020.3333333333331" y="904.0" type="line"/>
      <point x="1004.3333333333331" y="904.0" type="line"/>
      <point x="976.3333333333334" y="1004.3333333333334"/>
      <point x="907.0" y="1133.0"/>
      <point x="701.3333333333334" y="1133.0" type="curve" smooth="yes"/>
      <point x="425.0" y="1133.0"/>
      <point x="201.00000000000003" y="900.6666666666666"/>
      <point x="145.00000000000003" y="556.0" type="curve" smooth="yes"/>
      <point x="87.66666666666667" y="209.66666666666666"/>
      <point x="235.33333333333334" y="-23.0"/>
      <point x="508.6666666666667" y="-23.0" type="curve" smooth="yes"/>
      <point x="711.0" y="-23.0"/>
      <point x="828.3333333333333" y="105.0"/>
      <point x="890.0" y="207.66666666666666" type="curve"/>
      <point x="901.0" y="207.66666666666666" type="line"/>
    </contour>
    <contour>
      <point x="543.0" y="95.0" type="curve" smooth="yes"/>
      <point x="321.33333333333337" y="95.0"/>
      <point x="231.66666666666666" y="297.6666666666667"/>
      <point x="274.6666666666667" y="558.0" type="curve" smooth="yes"/>
      <point x="317.6666666666667" y="815.3333333333334"/>
      <point x="471.0" y="1014.0"/>
      <point x="695.6666666666667" y="1014.0" type="curve" smooth="yes"/>
      <point x="914.3333333333333" y="1014.0"/>
      <point x="1005.6666666666666" y="825.3333333333334"/>
      <point x="961.3333333333333" y="558.0" type="curve" smooth="yes"/>
      <point x="916.3333333333333" y="287.6666666666667"/>
      <point x="759.6666666666666" y="95.0"/>
    </contour>
  </outline>
</glyph>
<glyph name="r" format="2">
  <advance height="2479.0" width="732.0"/>
  <unicode hex="0072"/>
  <anchor x="141.33333333333334" y="0.0" name="bottom"/>
  <anchor x="233.33333333333334" y="535.0" name="cross"/>
  <anchor x="546.0" y="1303.0" name="top"/>
  <outline>
    <contour>
      <point x="77.66666666666666" y="0.0" type="line"/>
      <point x="207.66666666666669" y="0.0" type="line"/>
      <point x="326.6666666666667" y="721.6666666666666" type="line" smooth="yes"/>
      <point x="354.6666666666667" y="887.0"/>
      <point x="501.33333333333337" y="1007.6666666666666"/>
      <point x="676.0" y="1007.6666666666666" type="curve" smooth="yes"/>
      <point x="710.6666666666666" y="1007.6666666666666"/>
      <point x="742.0" y="1001.6666666666666"/>
      <point x="753.6666666666666" y="999.6666666666666" type="curve"/>
      <point x="776.0" y="1132.0" type="line"/>
      <point x="758.0" y="1134.0"/>
      <point x="729.3333333333333" y="1134.0"/>
      <point x="707.6666666666666" y="1134.0" type="curve" smooth="yes"/>
      <point x="567.6666666666667" y="1134.0"/>
      <point x="432.6666666666667" y="1058.0"/>
      <point x="370.6666666666667" y="945.3333333333334" type="curve"/>
      <point x="360.6666666666667" y="945.3333333333334" type="line"/>
      <point x="389.6666666666667" y="1117.0" type="line"/>
      <point x="263.66666666666663" y="1117.0" type="line"/>
    </contour>
  </outline>
</glyph>
<glyph name="s" format="2">
  <advance height="2479.0" width="1050.3333333333333"/>
  <unicode hex="0073"/>
  <anchor x="447.33333333333337" y="0.0" name="bottom"/>
  <anchor x="444.33333333333337" y="0.0" name="cedilla"/>
  <anchor x="663.3333333333334" y="1303.0" name="top"/>
  <outline>
    <contour>
      <point x="973.6666666666666" y="871.6666666666666" type="line"/>
      <point x="945.6666666666667" y="1033.6666666666667"/>
      <point x="843.0" y="1133.0"/>
      <point x="637.3333333333334" y="1133.0" type="curve" smooth="yes"/>
      <point x="412.3333333333333" y="1133.0"/>
      <point x="227.66666666666669" y="1005.3333333333334"/>
      <point x="196.66666666666669" y="821.6666666666666" type="curve" smooth="yes"/>
      <point x="171.66666666666669" y="671.6666666666667"/>
      <point x="247.33333333333334" y="569.3333333333333"/>
      <point x="434.6666666666667" y="521.6666666666666" type="curve" smooth="yes"/>
      <point x="608.0" y="478.3333333333333" type="line" smooth="yes"/>
      <point x="727.6666666666667" y="448.66666666666663"/>
      <point x="776.0" y="388.0"/>
      <point x="760.3333333333333" y="298.0" type="curve" smooth="yes"/>
      <point x="742.0" y="182.0"/>
      <point x="614.0" y="93.0"/>
      <point x="441.33333333333337" y="93.0" type="curve" smooth="yes"/>
      <point x="290.0" y="93.0"/>
      <point x="206.00000000000003" y="162.0"/>
      <point x="198.0" y="293.6666666666667" type="curve"/>
      <point x="67.66666666666667" y="265.0" type="line"/>
      <point x="76.66666666666667" y="79.0"/>
      <point x="207.99999999999997" y="-23.0"/>
      <point x="427.33333333333337" y="-23.0" type="curve" smooth="yes"/>
      <point x="673.0" y="-23.0"/>
      <point x="863.6666666666666" y="111.0"/>
      <point x="895.0" y="299.3333333333333" type="curve" smooth="yes"/>
      <point x="920.0" y="450.3333333333333"/>
      <point x="843.0" y="549.6666666666667"/>
      <point x="662.3333333333334" y="596.3333333333334" type="curve" smooth="yes"/>
      <point x="499.6666666666667" y="638.3333333333334" type="line" smooth="yes"/>
      <point x="367.6666666666667" y="672.3333333333334"/>
      <point x="312.6666666666667" y="728.3333333333334"/>
      <point x="329.0" y="823.0" type="curve" smooth="yes"/>
      <point x="346.3333333333333" y="936.6666666666667"/>
      <point x="468.66666666666663" y="1018.0"/>
      <point x="621.0" y="1018.0" type="curve" smooth="yes"/>
      <point x="771.3333333333334" y="1018.0"/>
      <point x="829.6666666666666" y="940.6666666666667"/>
      <point x="849.6666666666666" y="839.6666666666666" type="curve"/>
    </contour>
  </outline>
</glyph>
<glyph name="t" format="2">
  <advance height="2479.0" width="734.3333333333334"/>
  <unicode hex="0074"/>
  <anchor x="669.0000000000001" y="1562.0" name="raccent"/>
  <anchor x="327.6666666666667" y="0.0" name="bottom"/>
  <anchor x="393.6666666666667" y="0.0" name="cedilla"/>
  <anchor x="464.3333333333333" y="1489.0" name="top"/>
  <outline>
    <contour>
      <point x="704.0" y="1117.0" type="line"/>
      <point x="170.66666666666669" y="1117.0" type="line"/>
      <point x="152.33333333333334" y="1005.0" type="line"/>
      <point x="685.6666666666666" y="1005.0" type="line"/>
    </contour>
    <component base="_part.t_base"/>
  </outline>
</glyph>
<glyph name="u" format="2">
  <advance height="2479.0" width="1227.0"/>
  <unicode hex="0075"/>
  <anchor x="498.00000000000006" y="0.0" name="bottom"/>
  <anchor x="916.6666666666666" y="0.0" name="ogonek"/>
  <anchor x="713.0" y="1303.0" name="top"/>
  <outline>
    <contour>
      <point x="857.6666666666667" y="427.0" type="line" smooth="yes"/>
      <point x="823.6666666666667" y="222.0"/>
      <point x="652.3333333333334" y="111.33333333333334"/>
      <point x="501.0" y="111.33333333333334" type="curve" smooth="yes"/>
      <point x="339.66666666666663" y="111.33333333333334"/>
      <point x="246.00000000000003" y="227.0"/>
      <point x="274.0" y="401.6666666666667" type="curve" smooth="yes"/>
      <point x="393.6666666666667" y="1117.0" type="line"/>
      <point x="263.3333333333333" y="1117.0" type="line"/>
      <point x="142.33333333333331" y="393.6666666666667" type="line" smooth="yes"/>
      <point x="98.33333333333333" y="129.0"/>
      <point x="227.33333333333334" y="-15.0"/>
      <point x="442.00000000000006" y="-15.0" type="curve" smooth="yes"/>
      <point x="605.3333333333334" y="-15.0"/>
      <point x="738.3333333333334" y="71.0"/>
      <point x="808.3333333333334" y="185.0" type="curve"/>
      <point x="818.3333333333334" y="185.0" type="line"/>
      <point x="787.0" y="0.0" type="line"/>
      <point x="916.6666666666666" y="0.0" type="line"/>
      <point x="1103.3333333333333" y="1117.0" type="line"/>
      <point x="973.3333333333334" y="1117.0" type="line"/>
    </contour>
  </outline>
</glyph>
<glyph name="v" format="2">
  <advance height="2479.0" width="1117.0"/>
  <unicode hex="0076"/>
  <anchor x="465.33333333333337" y="0.0" name="bottom"/>
  <anchor x="680.3333333333334" y="1303.0" name="top"/>
  <outline>
    <contour>
      <point x="1129.0" y="1117.0" type="line"/>
      <point x="982.3333333333333" y="1117.0" type="line"/>
      <point x="492.6666666666667" y="170.66666666666669" type="line"/>
      <point x="483.6666666666667" y="170.66666666666669" type="line"/>
      <point x="309.3333333333333" y="1117.0" type="line"/>
      <point x="174.66666666666669" y="1117.0" type="line"/>
      <point x="396.6666666666667" y="0.0" type="line"/>
      <point x="534.0" y="0.0" type="line"/>
    </contour>
  </outline>
</glyph>
<glyph name="w" format="2">
  <advance height="2479.0" width="1648.3333333333333"/>
  <unicode hex="0077"/>
  <anchor x="731.3333333333334" y="0.0" name="bottom"/>
  <anchor x="946.3333333333334" y="1303.0" name="top"/>
  <outline>
    <contour>
      <point x="325.6666666666667" y="0.0" type="line"/>
      <point x="459.66666666666663" y="0.0" type="line"/>
      <point x="875.6666666666667" y="914.3333333333334" type="line"/>
      <point x="889.0" y="914.3333333333334" type="line"/>
      <point x="1002.6666666666667" y="0.0" type="line"/>
      <point x="1136.6666666666667" y="0.0" type="line"/>
      <point x="1660.0" y="1117.0" type="line"/>
      <point x="1522.3333333333333" y="1117.0" type="line"/>
      <point x="1104.6666666666665" y="198.0" type="line"/>
      <point x="1094.6666666666667" y="198.0" type="line"/>
      <point x="986.0" y="1117.0" type="line"/>
      <point x="848.6666666666667" y="1117.0" type="line"/>
      <point x="431.66666666666663" y="196.0" type="line"/>
      <point x="421.6666666666667" y="196.0" type="line"/>
      <point x="310.0" y="1117.0" type="line"/>
      <point x="174.66666666666669" y="1117.0" type="line"/>
    </contour>
  </outline>
</glyph>
<glyph name="x" format="2">
  <advance height="2479.0" width="1078.0"/>
  <unicode hex="0078"/>
  <anchor x="446.33333333333337" y="0.0" name="bottom"/>
  <anchor x="539.3333333333334" y="559.0" name="cross"/>
  <anchor x="871.6666666666666" y="44.66666666666667" name="cyrtic"/>
  <anchor x="742.6666666666666" y="0.0" name="right"/>
  <anchor x="662.0" y="1303.0" name="top"/>
  <outline>
    <contour>
      <point x="342.6666666666667" y="1117.0" type="line"/>
      <point x="193.66666666666669" y="1117.0" type="line"/>
      <point x="456.0" y="559.6666666666666" type="line"/>
      <point x="6.666666666666671" y="0.0" type="line"/>
      <point x="159.0" y="0.0" type="line"/>
      <point x="523.3333333333334" y="459.6666666666667" type="line"/>
      <point x="734.3333333333334" y="0.0" type="line"/>
      <point x="883.3333333333334" y="0.0" type="line"/>
      <point x="617.3333333333334" y="557.0" type="line"/>
      <point x="1071.3333333333335" y="1117.0" type="line"/>
      <point x="919.3333333333334" y="1117.0" type="line"/>
      <point x="552.0" y="640.3333333333334" type="line"/>
    </contour>
  </outline>
</glyph>
<glyph name="y" format="2">
  <advance height="2479.0" width="1117.0"/>
  <unicode hex="0079"/>
  <anchor x="708.3333333333334" y="-61.33333333333333" name="bottom"/>
  <anchor x="518.3333333333333" y="-419.0" name="ogonek"/>
  <anchor x="682.3333333333334" y="1303.0" name="top"/>
  <outline>
    <contour>
      <point x="99.33333333333336" y="-419.0" type="curve" smooth="yes"/>
      <point x="234.99999999999997" y="-419.0"/>
      <point x="353.3333333333333" y="-341.66666666666663"/>
      <point x="441.99999999999994" y="-175.33333333333331" type="curve" smooth="yes"/>
      <point x="1129.0" y="1117.0" type="line"/>
      <point x="982.3333333333333" y="1117.0" type="line"/>
      <point x="492.6666666666667" y="168.66666666666669" type="line"/>
      <point x="483.6666666666667" y="168.66666666666669" type="line"/>
      <point x="309.3333333333333" y="1117.0" type="line"/>
      <point x="174.66666666666669" y="1117.0" type="line"/>
      <point x="395.6666666666667" y="-5.666666666666666" type="line"/>
      <point x="334.66666666666663" y="-119.0" type="line" smooth="yes"/>
      <point x="243.66666666666666" y="-287.3333333333333"/>
      <point x="154.66666666666666" y="-323.3333333333333"/>
      <point x="32.666666666666664" y="-281.0" type="curve"/>
      <point x="-21.666666666666675" y="-396.0" type="line"/>
      <point x="2.333333333333343" y="-407.6666666666667"/>
      <point x="47.99999999999999" y="-419.0"/>
    </contour>
  </outline>
</glyph>
<glyph name="z" format="2">
  <advance height="2479.0" width="1085.6666666666667"/>
  <unicode hex="007A"/>
  <anchor x="439.33333333333337" y="0.0" name="bottom"/>
  <anchor x="542.3333333333334" y="559.0" name="cross"/>
  <anchor x="664.3333333333334" y="1303.0" name="top"/>
  <outline>
    <contour>
      <point x="42.66666666666666" y="0.0" type="line"/>
      <point x="878.6666666666666" y="0.0" type="line"/>
      <point x="899.0" y="122.33333333333334" type="line"/>
      <point x="243.66666666666666" y="122.33333333333334" type="line"/>
      <point x="245.66666666666666" y="132.0" type="line"/>
      <point x="1023.0" y="1010.3333333333334" type="line"/>
      <point x="1041.0" y="1117.0" type="line"/>
      <point x="257.3333333333333" y="1117.0" type="line"/>
      <point x="236.33333333333331" y="995.0" type="line"/>
      <point x="853.3333333333334" y="995.0" type="line"/>
      <point x="851.3333333333334" y="985.0" type="line"/>
      <point x="60.99999999999999" y="103.0" type="line"/>
    </contour>
  </outline>
</glyph>
<glyph name="braceleft" format="2">
  <advance height="2479.0" width="710.0"/>
  <unicode hex="007B"/>
  <outline>
    <contour>
      <point x="105.66666666666666" y="618.3333333333334" type="line"/>
      <point x="379.0" y="618.3333333333333"/>
      <point x="458.6666666666667" y="709.6666666666666"/>
      <point x="484.6666666666667" y="875.0" type="curve" smooth="yes"/>
      <point x="538.3333333333334" y="1195.3333333333333" type="line" smooth="yes"/>
      <point x="566.3333333333334" y="1372.0"/>
      <point x="637.3333333333333" y="1449.0"/>
      <point x="800.3333333333333" y="1449.0" type="curve"/>
      <point x="818.6666666666666" y="1559.0" type="line"/>
      <point x="568.3333333333334" y="1559.0"/>
      <point x="458.3333333333333" y="1444.6666666666665"/>
      <point x="418.3333333333333" y="1195.3333333333333" type="curve" smooth="yes"/>
      <point x="372.3333333333333" y="913.6666666666666" type="line" smooth="yes"/>
      <point x="345.3333333333333" y="751.0"/>
      <point x="282.3333333333333" y="694.6666666666666"/>
      <point x="117.33333333333333" y="694.6666666666666" type="curve"/>
    </contour>
    <contour>
      <point x="509.66666666666663" y="-303.0" type="curve"/>
      <point x="528.6666666666666" y="-192.0" type="line"/>
      <point x="364.66666666666663" y="-191.99999999999997"/>
      <point x="319.6666666666667" y="-115.0"/>
      <point x="349.6666666666667" y="61.0" type="curve" smooth="yes"/>
      <point x="403.6666666666667" y="382.0" type="line" smooth="yes"/>
      <point x="429.6666666666667" y="546.6666666666667"/>
      <point x="381.66666666666663" y="638.0"/>
      <point x="107.33333333333333" y="638.0" type="curve"/>
      <point x="96.33333333333333" y="562.3333333333334" type="line"/>
      <point x="260.0" y="562.3333333333334"/>
      <point x="302.3333333333333" y="505.33333333333337"/>
      <point x="275.3333333333333" y="343.3333333333333" type="curve" smooth="yes"/>
      <point x="229.66666666666666" y="61.0" type="line" smooth="yes"/>
      <point x="189.33333333333331" y="-188.0"/>
      <point x="259.6666666666667" y="-303.0"/>
    </contour>
    <contour>
      <point x="93.33333333333333" y="562.3333333333334" type="line"/>
      <point x="260.6666666666667" y="562.3333333333334" type="line"/>
      <point x="282.33333333333337" y="694.6666666666666" type="line"/>
      <point x="114.33333333333333" y="694.6666666666666" type="line"/>
    </contour>
  </outline>
</glyph>
<glyph name="bar" format="2">
  <advance height="2479.0" width="632.3333333333334"/>
  <unicode hex="007C"/>
  <outline>
    <contour>
      <point x="605.6666666666666" y="1969.0" type="line"/>
      <point x="493.3333333333333" y="1969.0" type="line"/>
      <point x="88.0" y="-480.0" type="line"/>
      <point x="200.99999999999997" y="-480.0" type="line"/>
    </contour>
  </outline>
</glyph>
<glyph name="asciitilde" format="2">
  <advance height="2479.0" width="1334.3333333333333"/>
  <unicode hex="007E"/>
  <outline>
    <contour>
      <point x="158.66666666666666" y="457.6666666666667" type="curve"/>
      <point x="279.0" y="455.6666666666667" type="line"/>
      <point x="302.6666666666667" y="572.0"/>
      <point x="377.33333333333337" y="627.6666666666666"/>
      <point x="468.0" y="627.6666666666666" type="curve" smooth="yes"/>
      <point x="532.6666666666667" y="627.6666666666667"/>
      <point x="575.0" y="605.3333333333334"/>
      <point x="633.0" y="551.0" type="curve" smooth="yes"/>
      <point x="711.0" y="477.0"/>
      <point x="770.6666666666666" y="433.6666666666667"/>
      <point x="865.6666666666667" y="433.66666666666663" type="curve" smooth="yes"/>
      <point x="1008.6666666666666" y="433.6666666666667"/>
      <point x="1144.0" y="514.3333333333334"/>
      <point x="1184.0" y="715.6666666666666" type="curve"/>
      <point x="1064.6666666666667" y="719.6666666666666" type="line"/>
      <point x="1039.6666666666667" y="611.0"/>
      <point x="969.0" y="549.0"/>
      <point x="878.3333333333334" y="549.0" type="curve" smooth="yes"/>
      <point x="820.3333333333333" y="549.0"/>
      <point x="782.6666666666666" y="576.0"/>
      <point x="724.3333333333333" y="629.3333333333334" type="curve" smooth="yes"/>
      <point x="645.3333333333334" y="703.6666666666666"/>
      <point x="582.0" y="747.6666666666666"/>
      <point x="482.0" y="747.6666666666666" type="curve" smooth="yes"/>
      <point x="334.33333333333337" y="747.6666666666666"/>
      <point x="197.33333333333334" y="661.0"/>
    </contour>
  </outline>
</glyph>
<glyph name="cent" format="2">
  <advance height="2479.0" width="1138.6666666666665"/>
  <unicode hex="00A2"/>
  <anchor x="545.3333333333334" y="190.33333333333334" name="cedilla"/>
  <anchor x="752.3333333333334" y="1493.3333333333333" name="top"/>
  <outline>
    <contour>
      <point x="444.33333333333337" y="0.0" type="line"/>
      <point x="540.0" y="0.0" type="line"/>
      <point x="809.3333333333334" y="1489.0" type="line"/>
      <point x="714.3333333333334" y="1489.0" type="line"/>
    </contour>
    <component base="c" xOffset="31.666666666666668" yOffset="190.33333333333334"/>
  </outline>
</glyph>
<glyph name="sterling" format="2">
  <advance height="2479.0" width="1292.0"/>
  <unicode hex="00A3"/>
  <outline>
    <contour>
      <point x="1010.3333333333334" y="0.0" type="line"/>
      <point x="1030.6666666666667" y="122.33333333333334" type="line"/>
      <point x="70.99999999999999" y="122.33333333333334" type="line"/>
      <point x="50.66666666666666" y="0.0" type="line"/>
    </contour>
    <contour>
      <point x="806.0" y="592.6666666666666" type="line"/>
      <point x="828.3333333333334" y="718.6666666666666" type="line"/>
      <point x="166.66666666666666" y="718.6666666666666" type="line"/>
      <point x="144.66666666666666" y="592.6666666666666" type="line"/>
    </contour>
    <contour>
      <point x="515.0" y="1058.3333333333333" type="line"/>
      <point x="549.6666666666666" y="1274.3333333333333"/>
      <point x="709.0" y="1387.6666666666667"/>
      <point x="869.6666666666666" y="1387.6666666666667" type="curve" smooth="yes"/>
      <point x="1023.0" y="1387.6666666666667"/>
      <point x="1138.6666666666665" y="1283.6666666666667"/>
      <point x="1089.0" y="1127.6666666666667" type="curve"/>
      <point x="1210.3333333333333" y="1093.0" type="line"/>
      <point x="1296.3333333333335" y="1306.3333333333333"/>
      <point x="1143.3333333333335" y="1510.0"/>
      <point x="884.6666666666666" y="1510.0" type="curve" smooth="yes"/>
      <point x="655.6666666666666" y="1510.0"/>
      <point x="425.0" y="1351.0"/>
      <point x="387.0" y="1058.3333333333333" type="curve" smooth="yes"/>
      <point x="293.0" y="368.3333333333333" type="line" smooth="yes"/>
      <point x="278.3333333333333" y="265.66666666666663"/>
      <point x="227.66666666666666" y="122.33333333333334"/>
      <point x="134.66666666666666" y="122.33333333333334" type="curve"/>
      <point x="254.33333333333331" y="80.33333333333334" type="line"/>
      <point x="355.0" y="122.33333333333334"/>
      <point x="405.6666666666667" y="233.66666666666669"/>
      <point x="422.6666666666667" y="368.3333333333333" type="curve" smooth="yes"/>
    </contour>
  </outline>
</glyph>
<glyph name="currency" format="2">
  <advance height="2479.0" width="1452.3333333333333"/>
  <unicode hex="00A4"/>
  <outline>
    <contour>
      <point x="627.0" y="-20.0" type="curve" smooth="yes"/>
      <point x="955.0" y="-20.0"/>
      <point x="1262.3333333333335" y="252.0"/>
      <point x="1320.6666666666667" y="608.0" type="curve" smooth="yes"/>
      <point x="1378.3333333333335" y="962.3333333333334"/>
      <point x="1160.0" y="1233.0"/>
      <point x="831.3333333333334" y="1233.0" type="curve" smooth="yes"/>
      <point x="503.0" y="1233.0"/>
      <point x="200.33333333333334" y="965.3333333333334"/>
      <point x="141.33333333333334" y="608.0" type="curve"/>
      <point x="83.33333333333333" y="255.0"/>
      <point x="299.3333333333333" y="-20.0"/>
    </contour>
    <contour>
      <point x="644.3333333333334" y="102.0" type="curve" smooth="yes"/>
      <point x="386.3333333333333" y="102.0"/>
      <point x="216.66666666666666" y="326.6666666666667"/>
      <point x="263.66666666666663" y="608.0" type="curve"/>
      <point x="311.0" y="890.6666666666666"/>
      <point x="554.3333333333334" y="1113.0"/>
      <point x="813.0" y="1113.0" type="curve" smooth="yes"/>
      <point x="1072.3333333333333" y="1113.0"/>
      <point x="1242.6666666666667" y="892.0"/>
      <point x="1194.3333333333333" y="608.0" type="curve" smooth="yes"/>
      <point x="1147.3333333333335" y="329.0"/>
      <point x="904.0" y="102.0"/>
    </contour>
    <contour>
      <point x="1207.0" y="950.3333333333334" type="line"/>
      <point x="1434.0" y="1148.3333333333333" type="line"/>
      <point x="1359.3333333333333" y="1242.3333333333335" type="line"/>
      <point x="1133.6666666666667" y="1044.3333333333335" type="line"/>
    </contour>
    <contour>
      <point x="1150.3333333333333" y="-10.0" type="line"/>
      <point x="1255.0" y="82.66666666666667" type="line"/>
      <point x="1093.6666666666667" y="278.0" type="line"/>
      <point x="991.3333333333334" y="188.0" type="line"/>
    </contour>
    <contour>
      <point x="107.00000000000001" y="-10.0" type="line"/>
      <point x="333.3333333333333" y="188.0" type="line"/>
      <point x="258.3333333333333" y="279.6666666666667" type="line"/>
      <point x="33.666666666666664" y="84.0" type="line"/>
    </contour>
    <contour>
      <point x="371.3333333333333" y="951.3333333333334" type="line"/>
      <point x="475.6666666666667" y="1043.3333333333335" type="line"/>
      <point x="315.00000000000006" y="1241.3333333333335" type="line"/>
      <point x="212.66666666666666" y="1149.3333333333333" type="line"/>
    </contour>
  </outline>
</glyph>
<glyph name="yen" format="2">
  <advance height="2479.0" width="1105.6666666666667"/>
  <unicode hex="00A5"/>
  <outline>
    <contour>
      <point x="338.33333333333337" y="1489.0" type="line"/>
      <point x="188.0" y="1489.0" type="line"/>
      <point x="491.6666666666667" y="615.6666666666666" type="line"/>
      <point x="608.6666666666666" y="654.3333333333334" type="line"/>
    </contour>
    <contour>
      <point x="526.6666666666666" y="654.3333333333334" type="line"/>
      <point x="631.0" y="615.6666666666666" type="line"/>
      <point x="1225.6666666666667" y="1489.0" type="line"/>
      <point x="1072.6666666666667" y="1489.0" type="line"/>
    </contour>
    <contour>
      <point x="653.3333333333334" y="752.6666666666666" type="line"/>
      <point x="517.6666666666667" y="752.6666666666666" type="line"/>
      <point x="391.6666666666667" y="0.0" type="line"/>
      <point x="527.6666666666666" y="0.0" type="line"/>
    </contour>
    <contour>
      <point x="980.6666666666666" y="719.6666666666666" type="line"/>
      <point x="177.66666666666666" y="719.6666666666666" type="line"/>
      <point x="161.0" y="616.6666666666666" type="line"/>
      <point x="963.6666666666666" y="616.6666666666666" type="line"/>
    </contour>
    <contour>
      <point x="938.6666666666666" y="465.6666666666667" type="line"/>
      <point x="135.66666666666666" y="465.6666666666667" type="line"/>
      <point x="119.66666666666667" y="362.6666666666667" type="line"/>
      <point x="922.3333333333334" y="362.6666666666667" type="line"/>
    </contour>
  </outline>
</glyph>
<glyph name="brokenbar" format="2">
  <advance height="2479.0" width="490.0"/>
  <unicode hex="00A6"/>
  <outline>
    <contour>
      <point x="157.66666666666666" y="396.3333333333333" type="line"/>
      <point x="43.99999999999999" y="-279.0" type="line"/>
      <point x="166.0" y="-279.0" type="line"/>
      <point x="280.0" y="396.3333333333333" type="line"/>
    </contour>
    <contour>
      <point x="460.0" y="1489.0" type="line"/>
      <point x="337.66666666666663" y="1489.0" type="line"/>
      <point x="225.66666666666666" y="816.6666666666666" type="line"/>
      <point x="347.6666666666667" y="816.6666666666666" type="line"/>
    </contour>
  </outline>
</glyph>
<glyph name="section" format="2">
  <advance height="2479.0" width="1114.3333333333333"/>
  <unicode hex="00A7"/>
  <outline>
    <contour>
      <point x="1004.6666666666666" y="1154.6666666666667" type="line"/>
      <point x="1034.6666666666665" y="1363.6666666666667"/>
      <point x="921.6666666666666" y="1510.0"/>
      <point x="711.0" y="1510.0" type="curve" smooth="yes"/>
      <point x="513.3333333333334" y="1510.0"/>
      <point x="347.99999999999994" y="1380.3333333333333"/>
      <point x="317.3333333333333" y="1205.6666666666667" type="curve" smooth="yes"/>
      <point x="302.3333333333333" y="1106.0"/>
      <point x="337.0" y="1023.0"/>
      <point x="403.3333333333333" y="959.3333333333334" type="curve"/>
      <point x="403.3333333333333" y="953.3333333333334" type="line"/>
      <point x="267.66666666666663" y="933.0"/>
      <point x="157.66666666666669" y="821.0"/>
      <point x="138.66666666666669" y="705.6666666666666" type="curve" smooth="yes"/>
      <point x="112.66666666666667" y="543.0"/>
      <point x="218.66666666666669" y="444.66666666666663"/>
      <point x="335.0" y="369.66666666666663" type="curve" smooth="yes"/>
      <point x="547.6666666666666" y="232.33333333333334" type="line" smooth="yes"/>
      <point x="647.6666666666666" y="169.0"/>
      <point x="711.6666666666667" y="108.0"/>
      <point x="694.6666666666667" y="4.666666666666667" type="curve" smooth="yes"/>
      <point x="675.6666666666667" y="-114.0"/>
      <point x="557.6666666666666" y="-184.0"/>
      <point x="425.0" y="-184.0" type="curve" smooth="yes"/>
      <point x="277.6666666666667" y="-184.0"/>
      <point x="187.0" y="-96.66666666666666"/>
      <point x="207.66666666666666" y="56.333333333333336" type="curve"/>
      <point x="80.33333333333333" y="56.333333333333336" type="line"/>
      <point x="47.99999999999999" y="-163.0"/>
      <point x="185.33333333333334" y="-303.0"/>
      <point x="409.0" y="-303.0" type="curve" smooth="yes"/>
      <point x="604.3333333333334" y="-303.0"/>
      <point x="787.6666666666667" y="-196.66666666666666"/>
      <point x="820.3333333333334" y="2.666666666666667" type="curve" smooth="yes"/>
      <point x="836.3333333333334" y="97.66666666666667"/>
      <point x="812.0" y="181.66666666666669"/>
      <point x="727.6666666666667" y="255.0" type="curve"/>
      <point x="727.6666666666667" y="257.6666666666667" type="line"/>
      <point x="854.6666666666667" y="281.0"/>
      <point x="972.3333333333333" y="392.0"/>
      <point x="990.3333333333333" y="506.6666666666667" type="curve" smooth="yes"/>
      <point x="1018.0" y="664.3333333333334"/>
      <point x="912.0" y="759.6666666666667"/>
      <point x="792.6666666666666" y="838.6666666666666" type="curve" smooth="yes"/>
      <point x="585.6666666666666" y="973.6666666666666" type="line" smooth="yes"/>
      <point x="496.33333333333337" y="1032.0"/>
      <point x="428.0" y="1110.0"/>
      <point x="443.0" y="1202.6666666666667" type="curve" smooth="yes"/>
      <point x="461.3333333333333" y="1298.6666666666665"/>
      <point x="554.9999999999999" y="1392.6666666666667"/>
      <point x="693.6666666666667" y="1392.6666666666667" type="curve" smooth="yes"/>
      <point x="836.3333333333334" y="1392.6666666666667"/>
      <point x="898.3333333333333" y="1294.0"/>
      <point x="878.3333333333334" y="1154.6666666666667" type="curve"/>
    </contour>
    <contour>
      <point x="868.3333333333333" y="508.6666666666667" type="curve"/>
      <point x="850.6666666666666" y="389.66666666666663"/>
      <point x="710.6666666666666" y="309.66666666666663"/>
      <point x="621.6666666666667" y="337.3333333333333" type="curve" smooth="yes"/>
      <point x="413.0" y="471.66666666666663" type="line" smooth="yes"/>
      <point x="307.0" y="541.3333333333333"/>
      <point x="245.0" y="607.0"/>
      <point x="260.99999999999994" y="704.0" type="curve" smooth="yes"/>
      <point x="281.3333333333333" y="825.0"/>
      <point x="407.66666666666663" y="907.0"/>
      <point x="499.3333333333333" y="877.6666666666666" type="curve" smooth="yes"/>
      <point x="715.0" y="737.0" type="line" smooth="yes"/>
      <point x="825.6666666666666" y="664.3333333333334"/>
      <point x="883.6666666666666" y="595.6666666666666"/>
    </contour>
  </outline>
</glyph>
<glyph name="dieresis" format="2">
  <advance height="2479.0" width="1256.6666666666667"/>
  <unicode hex="00A8"/>
  <anchor x="750.3333333333334" y="1303.0" name="_top"/>
  <anchor x="814.3333333333334" y="1676.0" name="top"/>
  <outline>
    <contour>
      <point x="573.9999999999999" y="1309.0" type="curve" smooth="yes"/>
      <point x="624.3333333333334" y="1309.0"/>
      <point x="667.0" y="1349.0"/>
      <point x="674.0" y="1392.3333333333333" type="curve" smooth="yes"/>
      <point x="683.3333333333334" y="1451.0"/>
      <point x="645.6666666666667" y="1495.3333333333333"/>
      <point x="587.3333333333333" y="1495.3333333333333" type="curve" smooth="yes"/>
      <point x="542.9999999999999" y="1495.3333333333333"/>
      <point x="497.0" y="1459.3333333333335"/>
      <point x="489.6666666666667" y="1411.6666666666665" type="curve" smooth="yes"/>
      <point x="481.6666666666667" y="1357.3333333333333"/>
      <point x="521.6666666666666" y="1309.0"/>
    </contour>
    <contour>
      <point x="946.3333333333334" y="1309.0" type="curve" smooth="yes"/>
      <point x="997.0" y="1309.0"/>
      <point x="1038.3333333333333" y="1348.0"/>
      <point x="1046.3333333333333" y="1392.3333333333333" type="curve" smooth="yes"/>
      <point x="1056.6666666666665" y="1450.6666666666667"/>
      <point x="1018.0" y="1495.3333333333333"/>
      <point x="959.6666666666666" y="1495.3333333333333" type="curve" smooth="yes"/>
      <point x="915.3333333333334" y="1495.3333333333333"/>
      <point x="870.0" y="1459.0"/>
      <point x="862.0" y="1411.6666666666665" type="curve" smooth="yes"/>
      <point x="852.6666666666667" y="1356.3333333333333"/>
      <point x="894.0" y="1309.0"/>
    </contour>
  </outline>
</glyph>
<glyph name="copyright" format="2">
  <advance height="2479.0" width="1873.0"/>
  <unicode hex="00A9"/>
  <outline>
    <contour>
      <point x="547.3333333333334" y="745.0" type="curve" smooth="yes"/>
      <point x="507.33333333333337" y="506.0"/>
      <point x="669.3333333333333" y="313.0"/>
      <point x="907.3333333333334" y="313.0" type="curve" smooth="yes"/>
      <point x="1102.6666666666667" y="313.0"/>
      <point x="1274.6666666666667" y="443.0"/>
      <point x="1341.3333333333335" y="621.0" type="curve"/>
      <point x="1206.3333333333335" y="621.0" type="line"/>
      <point x="1157.3333333333333" y="515.0"/>
      <point x="1039.0" y="440.3333333333333"/>
      <point x="915.0" y="440.3333333333333" type="curve" smooth="yes"/>
      <point x="748.3333333333334" y="440.3333333333333"/>
      <point x="648.3333333333333" y="583.3333333333333"/>
      <point x="674.6666666666666" y="745.0" type="curve" smooth="yes"/>
      <point x="703.6666666666666" y="919.6666666666666"/>
      <point x="875.6666666666666" y="1048.6666666666667"/>
      <point x="1041.6666666666667" y="1048.6666666666667" type="curve" smooth="yes"/>
      <point x="1166.6666666666667" y="1048.6666666666667"/>
      <point x="1244.6666666666667" y="975.3333333333333"/>
      <point x="1257.0" y="869.0" type="curve"/>
      <point x="1391.6666666666667" y="869.0" type="line"/>
      <point x="1384.0" y="1046.0"/>
      <point x="1245.0" y="1177.0"/>
      <point x="1050.3333333333335" y="1177.0" type="curve" smooth="yes"/>
      <point x="811.3333333333333" y="1177.0"/>
      <point x="586.3333333333334" y="983.0"/>
    </contour>
    <component base="whiteCircle" xOffset="0.6666666666666667"/>
  </outline>
</glyph>
<glyph name="ordfeminine" format="2">
  <advance height="2479.0" width="859.0"/>
  <unicode hex="00AA"/>
  <outline>
    <contour>
      <point x="625.3333333333333" y="861.0" type="line"/>
      <point x="616.3333333333334" y="809.3333333333334"/>
      <point x="615.6666666666667" y="753.6666666666666"/>
      <point x="621.3333333333333" y="708.0" type="curve"/>
      <point x="756.3333333333334" y="708.0" type="line"/>
      <point x="748.0" y="763.6666666666666"/>
      <point x="750.6666666666666" y="821.0"/>
      <point x="762.3333333333334" y="887.0" type="curve" smooth="yes"/>
      <point x="814.6666666666666" y="1201.0" type="line"/>
      <point x="843.6666666666666" y="1384.3333333333333"/>
      <point x="755.0" y="1478.0"/>
      <point x="586.3333333333334" y="1478.0" type="curve" smooth="yes"/>
      <point x="410.0" y="1478.0"/>
      <point x="281.6666666666667" y="1383.6666666666667"/>
      <point x="255.66666666666666" y="1246.0" type="curve"/>
      <point x="383.3333333333333" y="1235.3333333333333" type="line"/>
      <point x="401.3333333333333" y="1318.6666666666667"/>
      <point x="469.0" y="1363.0"/>
      <point x="570.3333333333334" y="1363.0" type="curve" smooth="yes"/>
      <point x="666.0" y="1363.0"/>
      <point x="699.0" y="1312.3333333333333"/>
      <point x="682.3333333333333" y="1201.0" type="curve"/>
    </contour>
    <contour>
      <point x="704.6666666666667" y="1143.3333333333333" type="line"/>
      <point x="550.9999999999999" y="1143.3333333333333" type="line"/>
      <point x="331.0" y="1143.3333333333333"/>
      <point x="210.33333333333334" y="1063.6666666666667"/>
      <point x="186.33333333333331" y="914.3333333333334" type="curve" smooth="yes"/>
      <point x="163.99999999999997" y="783.3333333333334"/>
      <point x="240.0" y="692.0"/>
      <point x="389.66666666666663" y="692.0" type="curve" smooth="yes"/>
      <point x="509.0" y="692.0"/>
      <point x="593.6666666666666" y="757.0"/>
      <point x="659.3333333333333" y="831.0" type="curve"/>
      <point x="655.6666666666667" y="918.6666666666666" type="line"/>
      <point x="622.3333333333334" y="860.3333333333334"/>
      <point x="518.0000000000001" y="804.3333333333334"/>
      <point x="435.0" y="805.0" type="curve" smooth="yes"/>
      <point x="345.0" y="805.3333333333334"/>
      <point x="309.0" y="846.3333333333334"/>
      <point x="319.66666666666663" y="918.3333333333334" type="curve" smooth="yes"/>
      <point x="332.0" y="995.3333333333334"/>
      <point x="403.3333333333333" y="1051.3333333333333"/>
      <point x="534.9999999999999" y="1051.3333333333333" type="curve"/>
      <point x="689.0" y="1051.3333333333333" type="line"/>
    </contour>
  </outline>
</glyph>
<glyph name="logicalnot" format="2">
  <advance height="2479.0" width="1077.6666666666667"/>
  <unicode hex="00AC"/>
  <outline>
    <contour>
      <point x="995.6666666666667" y="806.0" type="line"/>
      <point x="168.33333333333331" y="806.0" type="line"/>
      <point x="146.33333333333331" y="675.6666666666666" type="line"/>
      <point x="973.3333333333334" y="675.6666666666666" type="line"/>
    </contour>
    <contour>
      <point x="987.0" y="746.3333333333334" type="line"/>
      <point x="837.3333333333334" y="746.3333333333334" type="line"/>
      <point x="776.0" y="375.0" type="line"/>
      <point x="925.3333333333334" y="375.0" type="line"/>
    </contour>
  </outline>
</glyph>
<glyph name="registered" format="2">
  <advance height="2479.0" width="1373.0"/>
  <unicode hex="00AE"/>
  <outline>
    <contour>
      <point x="507.3333333333333" y="666.0" type="line"/>
      <point x="601.6666666666667" y="666.0" type="line"/>
      <point x="678.0" y="1129.3333333333333" type="line"/>
      <point x="813.3333333333333" y="1129.3333333333333" type="line" smooth="yes"/>
      <point x="859.3333333333334" y="1129.3333333333333"/>
      <point x="902.3333333333334" y="1102.6666666666667"/>
      <point x="892.0" y="1035.0" type="curve" smooth="yes"/>
      <point x="882.3333333333334" y="968.6666666666666"/>
      <point x="828.6666666666667" y="932.3333333333334"/>
      <point x="779.3333333333333" y="932.3333333333334" type="curve" smooth="yes"/>
      <point x="605.0" y="932.3333333333334" type="line"/>
      <point x="593.0" y="858.6666666666666" type="line"/>
      <point x="792.3333333333334" y="858.6666666666666" type="line" smooth="yes"/>
      <point x="876.0" y="858.6666666666666"/>
      <point x="975.0" y="925.3333333333334"/>
      <point x="994.0" y="1035.0" type="curve" smooth="yes"/>
      <point x="1013.3333333333333" y="1144.0"/>
      <point x="934.3333333333334" y="1203.0"/>
      <point x="854.3333333333334" y="1203.0" type="curve" smooth="yes"/>
      <point x="596.3333333333333" y="1203.0" type="line"/>
    </contour>
    <contour>
      <point x="862.6666666666667" y="915.3333333333334" type="line"/>
      <point x="761.0" y="915.3333333333334" type="line"/>
      <point x="850.0" y="666.0" type="line"/>
      <point x="954.0" y="666.0" type="line"/>
    </contour>
    <contour>
      <point x="748.0" y="346.0" type="curve" smooth="yes"/>
      <point x="1068.0" y="346.0"/>
      <point x="1329.0" y="607.0"/>
      <point x="1329.0" y="928.0" type="curve" smooth="yes"/>
      <point x="1330.0" y="1249.0"/>
      <point x="1068.0" y="1510.0"/>
      <point x="748.0" y="1510.0" type="curve" smooth="yes"/>
      <point x="425.0" y="1510.0"/>
      <point x="165.0" y="1249.0"/>
      <point x="166.0" y="928.0" type="curve" smooth="yes"/>
      <point x="167.0" y="607.0"/>
      <point x="425.0" y="346.0"/>
    </contour>
    <contour>
      <point x="748.0" y="455.0" type="curve" smooth="yes"/>
      <point x="485.6666666666667" y="455.0"/>
      <point x="274.0" y="666.6666666666666"/>
      <point x="274.0" y="928.0" type="curve" smooth="yes"/>
      <point x="275.0" y="1189.3333333333333"/>
      <point x="485.6666666666667" y="1401.0"/>
      <point x="748.0" y="1401.0" type="curve" smooth="yes"/>
      <point x="1008.3333333333334" y="1401.0"/>
      <point x="1220.0" y="1189.3333333333333"/>
      <point x="1221.0" y="928.0" type="curve" smooth="yes"/>
      <point x="1222.0" y="666.6666666666666"/>
      <point x="1008.3333333333334" y="455.0"/>
    </contour>
  </outline>
</glyph>
<glyph name="macron" format="2">
  <advance height="2479.0" width="812.3333333333334"/>
  <unicode hex="00AF"/>
  <anchor x="529.0000000000001" y="1303.0" name="_top"/>
  <outline>
    <contour>
      <point x="859.6666666666666" y="1456.3333333333333" type="line"/>
      <point x="250.33333333333334" y="1456.3333333333333" type="line"/>
      <point x="232.00000000000003" y="1344.0" type="line"/>
      <point x="841.3333333333333" y="1344.0" type="line"/>
    </contour>
  </outline>
</glyph>
<glyph name="degree" format="2">
  <advance height="2479.0" width="931.0"/>
  <unicode hex="00B0"/>
  <outline>
    <contour>
      <point x="568.0" y="856.3333333333334" type="curve" smooth="yes"/>
      <point x="747.0" y="856.3333333333334"/>
      <point x="891.3333333333334" y="1001.3333333333334"/>
      <point x="891.3333333333334" y="1180.3333333333333" type="curve" smooth="yes"/>
      <point x="891.3333333333334" y="1359.0"/>
      <point x="747.0" y="1504.0"/>
      <point x="568.0" y="1504.0" type="curve" smooth="yes"/>
      <point x="388.6666666666667" y="1504.0"/>
      <point x="243.66666666666666" y="1359.0"/>
      <point x="243.66666666666666" y="1180.3333333333333" type="curve" smooth="yes"/>
      <point x="243.66666666666666" y="1001.3333333333334"/>
      <point x="388.6666666666667" y="856.3333333333334"/>
    </contour>
    <contour>
      <point x="568.0" y="968.3333333333334" type="curve" smooth="yes"/>
      <point x="450.6666666666667" y="968.3333333333334"/>
      <point x="356.66666666666663" y="1063.0"/>
      <point x="356.66666666666663" y="1180.3333333333333" type="curve" smooth="yes"/>
      <point x="356.66666666666663" y="1297.0"/>
      <point x="450.6666666666667" y="1391.6666666666667"/>
      <point x="568.0" y="1391.6666666666667" type="curve" smooth="yes"/>
      <point x="685.0" y="1391.6666666666667"/>
      <point x="779.3333333333334" y="1297.0"/>
      <point x="779.3333333333334" y="1180.3333333333333" type="curve" smooth="yes"/>
      <point x="779.3333333333334" y="1063.0"/>
      <point x="685.0" y="968.3333333333334"/>
    </contour>
  </outline>
</glyph>
<glyph name="plusminus" format="2">
  <advance height="2479.0" width="1334.3333333333333"/>
  <unicode hex="00B1"/>
  <outline>
    <contour>
      <point x="136.66666666666666" y="93.33333333333333" type="line"/>
      <point x="1042.6666666666667" y="93.33333333333333" type="line"/>
      <point x="1062.6666666666667" y="217.33333333333334" type="line"/>
      <point x="157.0" y="217.33333333333334" type="line"/>
    </contour>
    <contour>
      <point x="233.66666666666666" y="670.6666666666666" type="line"/>
      <point x="1139.6666666666667" y="670.6666666666666" type="line"/>
      <point x="1159.6666666666667" y="795.0" type="line"/>
      <point x="253.99999999999997" y="795.0" type="line"/>
    </contour>
    <contour>
      <point x="571.0" y="349.3333333333333" type="line"/>
      <point x="695.0" y="349.3333333333333" type="line"/>
      <point x="822.0" y="1117.0" type="line"/>
      <point x="698.3333333333333" y="1117.0" type="line"/>
    </contour>
  </outline>
</glyph>
<glyph name="twosuperior" format="2">
  <advance height="2479.0" width="853.3333333333334"/>
  <unicode hex="00B2"/>
  <anchor x="687.3333333333334" y="1211.3333333333333" name="cross"/>
  <outline>
    <contour>
      <point x="138.66666666666669" y="745.0" type="line"/>
      <point x="787.3333333333334" y="745.0" type="line"/>
      <point x="803.6666666666667" y="844.6666666666666" type="line"/>
      <point x="328.66666666666663" y="844.6666666666666" type="line"/>
      <point x="328.66666666666663" y="849.6666666666666" type="line"/>
      <point x="585.6666666666666" y="1056.6666666666667" type="line" smooth="yes"/>
      <point x="774.6666666666667" y="1208.3333333333333"/>
      <point x="840.6666666666666" y="1282.6666666666667"/>
      <point x="858.3333333333333" y="1391.6666666666667" type="curve" smooth="yes"/>
      <point x="881.6666666666666" y="1537.0"/>
      <point x="778.6666666666667" y="1649.0"/>
      <point x="596.3333333333334" y="1649.0" type="curve" smooth="yes"/>
      <point x="413.66666666666663" y="1649.0"/>
      <point x="271.6666666666667" y="1537.0"/>
      <point x="246.33333333333334" y="1384.6666666666667" type="curve"/>
      <point x="364.66666666666663" y="1384.6666666666667" type="line"/>
      <point x="380.3333333333333" y="1482.6666666666667"/>
      <point x="474.3333333333333" y="1552.3333333333333"/>
      <point x="586.0" y="1552.3333333333333" type="curve" smooth="yes"/>
      <point x="695.6666666666666" y="1552.3333333333333"/>
      <point x="764.3333333333333" y="1488.3333333333333"/>
      <point x="748.6666666666666" y="1395.6666666666667" type="curve" smooth="yes"/>
      <point x="735.6666666666666" y="1315.6666666666667"/>
      <point x="676.6666666666666" y="1257.0"/>
      <point x="539.0" y="1145.3333333333333" type="curve" smooth="yes"/>
      <point x="152.00000000000003" y="832.0" type="line"/>
    </contour>
  </outline>
</glyph>
<glyph name="threesuperior" format="2">
  <advance height="2479.0" width="866.3333333333333"/>
  <unicode hex="00B3"/>
  <outline>
    <contour>
      <point x="467.3333333333333" y="733.0" type="curve" smooth="yes"/>
      <point x="663.3333333333334" y="733.0"/>
      <point x="818.6666666666666" y="835.0"/>
      <point x="843.6666666666666" y="984.0" type="curve" smooth="yes"/>
      <point x="861.0" y="1097.0"/>
      <point x="790.6666666666666" y="1182.0"/>
      <point x="661.6666666666666" y="1204.0" type="curve"/>
      <point x="661.6666666666666" y="1209.0" type="line"/>
      <point x="781.6666666666666" y="1233.6666666666667"/>
      <point x="860.6666666666666" y="1295.6666666666667"/>
      <point x="878.6666666666666" y="1401.0" type="curve" smooth="yes"/>
      <point x="901.6666666666666" y="1544.6666666666667"/>
      <point x="795.3333333333333" y="1649.0"/>
      <point x="609.9999999999999" y="1649.0" type="curve" smooth="yes"/>
      <point x="439.0" y="1649.0"/>
      <point x="288.66666666666663" y="1549.6666666666667"/>
      <point x="261.66666666666663" y="1398.6666666666667" type="curve"/>
      <point x="377.66666666666663" y="1398.6666666666667" type="line"/>
      <point x="393.66666666666663" y="1491.3333333333333"/>
      <point x="501.33333333333337" y="1552.3333333333333"/>
      <point x="608.9999999999999" y="1552.3333333333333" type="curve" smooth="yes"/>
      <point x="728.6666666666666" y="1552.3333333333333"/>
      <point x="778.6666666666666" y="1490.3333333333333"/>
      <point x="763.3333333333333" y="1403.0" type="curve" smooth="yes"/>
      <point x="749.6666666666666" y="1319.0"/>
      <point x="651.6666666666666" y="1249.3333333333333"/>
      <point x="523.3333333333333" y="1249.3333333333333" type="curve" smooth="yes"/>
      <point x="469.6666666666667" y="1249.3333333333333" type="line"/>
      <point x="455.6666666666667" y="1156.6666666666667" type="line"/>
      <point x="513.0" y="1156.6666666666667" type="line" smooth="yes"/>
      <point x="656.6666666666666" y="1156.6666666666667"/>
      <point x="737.6666666666666" y="1097.0"/>
      <point x="721.6666666666666" y="998.3333333333334" type="curve" smooth="yes"/>
      <point x="705.6666666666666" y="908.6666666666666"/>
      <point x="601.0" y="835.0"/>
      <point x="472.3333333333333" y="835.0" type="curve" smooth="yes"/>
      <point x="354.66666666666663" y="835.0"/>
      <point x="277.0" y="895.6666666666666"/>
      <point x="291.0" y="986.3333333333334" type="curve"/>
      <point x="170.66666666666669" y="986.3333333333334" type="line"/>
      <point x="148.66666666666669" y="838.0"/>
      <point x="272.66666666666663" y="733.0"/>
    </contour>
  </outline>
</glyph>
<glyph name="acute" format="2">
  <advance height="2479.0" width="1018.0"/>
  <unicode hex="00B4"/>
  <anchor x="616.0000000000001" y="1303.0" name="_top"/>
  <anchor x="694.0" y="1676.0" name="top"/>
  <outline>
    <contour>
      <point x="549.3333333333334" y="1272.0" type="line"/>
      <point x="666.3333333333333" y="1272.0" type="line"/>
      <point x="944.3333333333334" y="1602.0" type="line"/>
      <point x="790.0" y="1602.0" type="line"/>
    </contour>
  </outline>
</glyph>
<glyph name="micro" format="2">
  <advance height="2479.0" width="1234.3333333333333"/>
  <unicode hex="00B5"/>
  <outline>
    <contour>
      <point x="5.666666666666657" y="-423.6666666666667" type="line"/>
      <point x="136.0" y="-423.6666666666667" type="line"/>
      <point x="236.33333333333334" y="176.66666666666666" type="line"/>
      <point x="243.66666666666666" y="176.66666666666666" type="line"/>
      <point x="283.0" y="55.0"/>
      <point x="391.6666666666667" y="-15.0"/>
      <point x="525.6666666666666" y="-15.0" type="curve" smooth="yes"/>
      <point x="660.3333333333333" y="-15.0"/>
      <point x="791.0" y="53.0"/>
      <point x="869.0" y="169.66666666666666" type="curve"/>
      <point x="876.3333333333334" y="169.66666666666666" type="line"/>
      <point x="847.3333333333334" y="0.0" type="line"/>
      <point x="977.3333333333334" y="0.0" type="line"/>
      <point x="1163.6666666666667" y="1117.0" type="line"/>
      <point x="1034.0000000000002" y="1117.0" type="line"/>
      <point x="918.3333333333334" y="427.0" type="line" smooth="yes"/>
      <point x="888.3333333333334" y="243.0"/>
      <point x="735.6666666666666" y="111.33333333333334"/>
      <point x="546.3333333333333" y="111.33333333333334" type="curve" smooth="yes"/>
      <point x="357.33333333333337" y="111.33333333333334"/>
      <point x="246.66666666666666" y="241.33333333333334"/>
      <point x="276.6666666666667" y="427.0" type="curve" smooth="yes"/>
      <point x="392.0" y="1117.0" type="line"/>
      <point x="261.66666666666663" y="1117.0" type="line"/>
    </contour>
  </outline>
</glyph>
<glyph name="paragraph" format="2">
  <advance height="2479.0" width="1198.0"/>
  <unicode hex="00B6"/>
  <outline>
    <contour>
      <point x="1130.3333333333333" y="1367.0" type="line"/>
      <point x="1151.3333333333333" y="1489.0" type="line"/>
      <point x="766.6666666666666" y="1489.0" type="line" smooth="yes"/>
      <point x="449.6666666666667" y="1489.0"/>
      <point x="243.66666666666669" y="1289.0"/>
      <point x="196.66666666666669" y="1021.0" type="curve" smooth="yes"/>
      <point x="152.33333333333334" y="751.0"/>
      <point x="295.6666666666667" y="553.0"/>
      <point x="612.6666666666666" y="553.0" type="curve" smooth="yes"/>
      <point x="697.6666666666666" y="553.0" type="line"/>
      <point x="831.3333333333333" y="1367.0" type="line"/>
    </contour>
    <contour>
      <point x="771.0" y="0.0" type="line"/>
      <point x="906.6666666666666" y="0.0" type="line"/>
      <point x="1153.6666666666665" y="1489.0" type="line"/>
      <point x="1018.0" y="1489.0" type="line"/>
    </contour>
  </outline>
</glyph>
<glyph name="cedilla" format="2">
  <advance height="2479.0" width="504.3333333333333"/>
  <unicode hex="00B8"/>
  <anchor x="164.66666666666666" y="0.0" name="_cedilla"/>
  <outline>
    <contour>
      <point x="108.66666666666666" y="6.0" type="line"/>
      <point x="59.66666666666668" y="-123.33333333333333" type="line"/>
      <point x="169.33333333333334" y="-128.33333333333334"/>
      <point x="213.33333333333334" y="-154.66666666666669"/>
      <point x="202.0" y="-227.0" type="curve" smooth="yes"/>
      <point x="190.33333333333334" y="-295.3333333333333"/>
      <point x="127.33333333333333" y="-324.0"/>
      <point x="30.99999999999999" y="-325.0" type="curve"/>
      <point x="19.666666666666657" y="-415.6666666666667" type="line"/>
      <point x="195.66666666666666" y="-414.3333333333333"/>
      <point x="301.0" y="-340.33333333333337"/>
      <point x="320.0" y="-223.0" type="curve" smooth="yes"/>
      <point x="338.33333333333337" y="-117.66666666666667"/>
      <point x="280.0" y="-65.33333333333333"/>
      <point x="197.66666666666666" y="-52.0" type="curve"/>
      <point x="219.66666666666669" y="6.0" type="line"/>
    </contour>
  </outline>
</glyph>
<glyph name="onesuperior" format="2">
  <advance height="2479.0" width="613.6666666666666"/>
  <unicode hex="00B9"/>
  <outline>
    <contour>
      <point x="345.66666666666663" y="745.0" type="line"/>
      <point x="461.6666666666667" y="745.0" type="line"/>
      <point x="610.6666666666667" y="1638.0" type="line"/>
      <point x="488.0" y="1638.0" type="line"/>
      <point x="239.00000000000003" y="1489.0" type="line"/>
      <point x="218.33333333333334" y="1368.0" type="line"/>
      <point x="466.0" y="1515.3333333333333" type="line"/>
      <point x="473.66666666666663" y="1515.3333333333333" type="line"/>
    </contour>
  </outline>
</glyph>
<glyph name="ordmasculine" format="2">
  <advance height="2479.0" width="879.3333333333334"/>
  <unicode hex="00BA"/>
  <outline>
    <contour>
      <point x="186.33333333333331" y="1044.6666666666667" type="line"/>
      <point x="150.33333333333331" y="836.3333333333334"/>
      <point x="257.6666666666667" y="694.0"/>
      <point x="464.6666666666667" y="694.0" type="curve" smooth="yes"/>
      <point x="673.0" y="694.0"/>
      <point x="819.6666666666666" y="833.0"/>
      <point x="856.0" y="1044.6666666666667" type="curve"/>
      <point x="869.0" y="1125.3333333333333" type="line"/>
      <point x="904.3333333333334" y="1333.6666666666667"/>
      <point x="799.0" y="1478.0"/>
      <point x="592.6666666666666" y="1478.0" type="curve" smooth="yes"/>
      <point x="383.6666666666667" y="1478.0"/>
      <point x="234.33333333333331" y="1337.0"/>
      <point x="198.99999999999997" y="1125.3333333333333" type="curve"/>
    </contour>
    <contour>
      <point x="329.6666666666667" y="1125.3333333333333" type="line"/>
      <point x="353.33333333333337" y="1264.6666666666667"/>
      <point x="442.6666666666667" y="1364.0"/>
      <point x="574.6666666666666" y="1364.0" type="curve" smooth="yes"/>
      <point x="708.0" y="1364.0"/>
      <point x="762.6666666666666" y="1266.6666666666667"/>
      <point x="737.6666666666666" y="1125.3333333333333" type="curve"/>
      <point x="725.6666666666666" y="1044.6666666666667" type="line"/>
      <point x="700.6666666666666" y="903.3333333333333"/>
      <point x="614.0" y="806.0"/>
      <point x="482.33333333333337" y="806.0" type="curve" smooth="yes"/>
      <point x="348.6666666666667" y="806.0"/>
      <point x="292.0" y="901.3333333333333"/>
      <point x="316.6666666666667" y="1044.6666666666667" type="curve"/>
    </contour>
  </outline>
</glyph>
<glyph name="AE" format="2">
  <advance height="2479.0" width="2006.6666666666667"/>
  <unicode hex="00C6"/>
  <anchor x="1487.6666666666667" y="1676.0" name="top"/>
  <outline>
    <contour>
      <point x="-36.0" y="0.0" type="line"/>
      <point x="114.33333333333334" y="0.0" type="line"/>
      <point x="1004.0" y="1367.0" type="line"/>
      <point x="1122.6666666666667" y="1367.0" type="line"/>
      <point x="896.0" y="0.0" type="line"/>
      <point x="1774.6666666666667" y="0.0" type="line"/>
      <point x="1795.0" y="122.33333333333334" type="line"/>
      <point x="1052.3333333333333" y="122.33333333333334" type="line"/>
      <point x="1145.0" y="684.3333333333334" type="line"/>
      <point x="1827.6666666666667" y="684.3333333333334" type="line"/>
      <point x="1848.0" y="806.6666666666666" type="line"/>
      <point x="1165.3333333333333" y="806.6666666666666" type="line"/>
      <point x="1259.0" y="1367.0" type="line"/>
      <point x="1986.6666666666667" y="1367.0" type="line"/>
      <point x="2007.0" y="1489.0" type="line"/>
      <point x="945.3333333333334" y="1489.0" type="line"/>
    </contour>
    <contour>
      <point x="349.0" y="449.0" type="line"/>
      <point x="1041.3333333333335" y="449.0" type="line"/>
      <point x="1061.6666666666667" y="571.3333333333334" type="line"/>
      <point x="369.3333333333333" y="571.3333333333334" type="line"/>
    </contour>
  </outline>
</glyph>
<glyph name="multiply" format="2">
  <advance height="2479.0" width="1334.3333333333333"/>
  <unicode hex="00D7"/>
  <outline>
    <contour>
      <point x="964.6666666666666" y="129.66666666666666" type="line"/>
      <point x="1056.0" y="207.33333333333334" type="line"/>
      <point x="372.66666666666663" y="1028.3333333333333" type="line"/>
      <point x="280.6666666666667" y="950.3333333333333" type="line"/>
    </contour>
    <contour>
      <point x="239.66666666666666" y="130.66666666666666" type="line"/>
      <point x="1181.3333333333335" y="935.6666666666666" type="line"/>
      <point x="1103.0" y="1027.0" type="line"/>
      <point x="161.33333333333334" y="222.33333333333334" type="line"/>
    </contour>
  </outline>
</glyph>
<glyph name="Oslash" format="2">
  <advance height="2479.0" width="1549.3333333333333"/>
  <unicode hex="00D8"/>
  <anchor x="688.3333333333334" y="0.0" name="bottom"/>
  <anchor x="796.3333333333334" y="-4.0" name="ogonek"/>
  <anchor x="342.3333333333333" y="1485.0" name="tonos"/>
  <anchor x="956.0" y="1672.0" name="top"/>
  <outline>
    <contour>
      <point x="293.0" y="-52.333333333333336" type="line"/>
      <point x="1402.3333333333335" y="1480.6666666666667" type="line"/>
      <point x="1317.6666666666667" y="1540.0" type="line"/>
      <point x="208.0" y="7.0" type="line"/>
    </contour>
    <component base="O" xOffset="-1.0" yOffset="-4.0"/>
  </outline>
</glyph>
<glyph name="Thorn" format="2">
  <advance height="2479.0" width="1264.3333333333333"/>
  <unicode hex="00DE"/>
  <outline>
    <contour>
      <point x="337.6666666666667" y="1489.0" type="line"/>
      <point x="90.33333333333334" y="0.0" type="line"/>
      <point x="225.0" y="0.0" type="line"/>
      <point x="472.0" y="1489.0" type="line"/>
    </contour>
    <contour>
      <point x="346.33333333333337" y="1164.6666666666667" type="line"/>
      <point x="325.00000000000006" y="1042.3333333333333" type="line"/>
      <point x="708.0" y="1042.3333333333333" type="line" smooth="yes"/>
      <point x="923.3333333333333" y="1042.3333333333333"/>
      <point x="1035.0" y="934.0"/>
      <point x="1002.6666666666666" y="749.0" type="curve" smooth="yes"/>
      <point x="970.3333333333334" y="561.6666666666666"/>
      <point x="830.3333333333334" y="459.66666666666663"/>
      <point x="614.3333333333334" y="459.66666666666663" type="curve" smooth="yes"/>
      <point x="231.33333333333334" y="459.66666666666663" type="line"/>
      <point x="210.33333333333334" y="337.6666666666667" type="line"/>
      <point x="593.3333333333334" y="337.6666666666667" type="line" smooth="yes"/>
      <point x="902.6666666666667" y="337.6666666666667"/>
      <point x="1095.6666666666667" y="518.3333333333333"/>
      <point x="1133.3333333333335" y="751.3333333333334" type="curve" smooth="yes"/>
      <point x="1171.3333333333335" y="978.6666666666667"/>
      <point x="1033.3333333333335" y="1164.6666666666667"/>
      <point x="729.3333333333334" y="1164.6666666666667" type="curve" smooth="yes"/>
    </contour>
  </outline>
</glyph>
<glyph name="germandbls" format="2">
  <advance height="2479.0" width="1224.0"/>
  <unicode hex="00DF"/>
  <outline>
    <contour>
      <point x="104.66666666666666" y="0.0" type="line"/>
      <point x="234.66666666666669" y="0.0" type="line"/>
      <point x="417.6666666666667" y="1108.0" type="line" smooth="yes"/>
      <point x="445.6666666666667" y="1277.3333333333335"/>
      <point x="578.3333333333334" y="1388.3333333333333"/>
      <point x="747.3333333333334" y="1387.6666666666667" type="curve" smooth="yes"/>
      <point x="915.3333333333334" y="1387.3333333333335"/>
      <point x="1001.0" y="1272.6666666666667"/>
      <point x="976.0" y="1117.3333333333333" type="curve" smooth="yes"/>
      <point x="948.3333333333333" y="953.0"/>
      <point x="813.6666666666666" y="822.3333333333334"/>
      <point x="638.3333333333334" y="822.3333333333334" type="curve" smooth="yes"/>
      <point x="568.3333333333333" y="822.3333333333334" type="line"/>
      <point x="548.0" y="698.3333333333334" type="line"/>
      <point x="642.6666666666666" y="698.3333333333334" type="line" smooth="yes"/>
      <point x="856.3333333333334" y="698.3333333333334"/>
      <point x="967.6666666666666" y="579.0"/>
      <point x="939.0" y="400.3333333333333" type="curve" smooth="yes"/>
      <point x="911.3333333333334" y="233.66666666666666"/>
      <point x="774.3333333333334" y="122.33333333333334"/>
      <point x="589.0" y="122.33333333333334" type="curve" smooth="yes"/>
      <point x="445.3333333333333" y="122.33333333333334" type="line"/>
      <point x="425.66666666666663" y="0.0" type="line"/>
      <point x="558.3333333333334" y="0.0" type="line" smooth="yes"/>
      <point x="833.3333333333333" y="0.0"/>
      <point x="1028.3333333333335" y="159.0"/>
      <point x="1069.0" y="403.3333333333333" type="curve" smooth="yes"/>
      <point x="1103.0" y="608.0"/>
      <point x="992.0" y="746.3333333333334"/>
      <point x="798.3333333333334" y="772.3333333333334" type="curve"/>
      <point x="800.3333333333334" y="783.6666666666666" type="line"/>
      <point x="959.6666666666666" y="831.6666666666667"/>
      <point x="1078.9999999999998" y="949.6666666666667"/>
      <point x="1107.0" y="1131.3333333333335" type="curve" smooth="yes"/>
      <point x="1143.3333333333333" y="1363.0"/>
      <point x="998.0" y="1510.0"/>
      <point x="762.6666666666666" y="1510.0" type="curve" smooth="yes"/>
      <point x="520.3333333333333" y="1510.0"/>
      <point x="329.99999999999994" y="1359.6666666666667"/>
      <point x="289.3333333333333" y="1112.0" type="curve" smooth="yes"/>
    </contour>
  </outline>
</glyph>
<glyph name="ae" format="2">
  <advance height="2479.0" width="1924.3333333333333"/>
  <unicode hex="00E6"/>
  <anchor x="1059.9999999999998" y="1303.0" name="top"/>
  <outline>
    <contour>
      <point x="1230.0" y="-23.0" type="curve"/>
      <point x="1453.3333333333333" y="-23.0"/>
      <point x="1623.3333333333335" y="97.66666666666667"/>
      <point x="1697.6666666666667" y="238.66666666666666" type="curve"/>
      <point x="1582.3333333333333" y="278.0" type="line"/>
      <point x="1522.3333333333333" y="178.33333333333334"/>
      <point x="1408.3333333333333" y="95.0"/>
      <point x="1250.0" y="95.0" type="curve" smooth="yes"/>
      <point x="1018.0000000000001" y="95.0"/>
      <point x="899.0" y="270.0"/>
      <point x="942.6666666666666" y="536.3333333333334" type="curve" smooth="yes"/>
      <point x="954.0" y="604.3333333333334" type="line" smooth="yes"/>
      <point x="992.0" y="825.3333333333334"/>
      <point x="1167.3333333333333" y="1014.0"/>
      <point x="1382.0" y="1014.0" type="curve"/>
      <point x="1581.6666666666667" y="1014.0"/>
      <point x="1695.0" y="849.6666666666666"/>
      <point x="1659.0" y="634.3333333333334" type="curve"/>
      <point x="921.6666666666666" y="634.3333333333334" type="line"/>
      <point x="902.6666666666666" y="519.6666666666666" type="line"/>
      <point x="1772.3333333333333" y="519.6666666666666" type="line"/>
      <point x="1783.3333333333333" y="583.6666666666666" type="line" smooth="yes"/>
      <point x="1845.3333333333333" y="957.0"/>
      <point x="1643.6666666666667" y="1133.0"/>
      <point x="1402.0" y="1133.0" type="curve" smooth="yes"/>
      <point x="1207.0" y="1133.0"/>
      <point x="1044.3333333333335" y="1023.0"/>
      <point x="941.3333333333334" y="846.3333333333334" type="curve"/>
      <point x="828.0" y="315.0" type="line"/>
      <point x="842.6666666666666" y="114.66666666666667"/>
      <point x="990.0" y="-23.0"/>
    </contour>
    <contour>
      <point x="422.66666666666663" y="93.0" type="curve" smooth="yes"/>
      <point x="276.6666666666667" y="93.0"/>
      <point x="181.0" y="170.66666666666666"/>
      <point x="204.0" y="306.3333333333333" type="curve" smooth="yes"/>
      <point x="226.0" y="441.0"/>
      <point x="347.0" y="498.3333333333333"/>
      <point x="540.3333333333333" y="521.3333333333334" type="curve" smooth="yes"/>
      <point x="631.0" y="532.3333333333334"/>
      <point x="798.0" y="553.0"/>
      <point x="841.6666666666666" y="589.3333333333334" type="curve"/>
      <point x="814.6666666666666" y="428.3333333333333" type="line" smooth="yes"/>
      <point x="784.6666666666666" y="245.66666666666666"/>
      <point x="629.3333333333334" y="93.0"/>
    </contour>
    <contour>
      <point x="387.0" y="-25.0" type="curve" smooth="yes"/>
      <point x="573.3333333333334" y="-25.0"/>
      <point x="766.3333333333334" y="79.66666666666667"/>
      <point x="845.6666666666666" y="252.33333333333331" type="curve"/>
      <point x="858.0" y="252.33333333333331" type="line"/>
      <point x="1003.6666666666666" y="859.0" type="line"/>
      <point x="993.0" y="1066.0"/>
      <point x="821.3333333333334" y="1133.0"/>
      <point x="666.3333333333334" y="1133.0" type="curve" smooth="yes"/>
      <point x="495.6666666666667" y="1133.0"/>
      <point x="306.3333333333333" y="1064.3333333333333"/>
      <point x="201.66666666666666" y="882.6666666666666" type="curve"/>
      <point x="316.0" y="838.0" type="line"/>
      <point x="373.6666666666667" y="933.6666666666666"/>
      <point x="488.3333333333333" y="1016.0"/>
      <point x="649.3333333333334" y="1016.0" type="curve" smooth="yes"/>
      <point x="818.0" y="1016.0"/>
      <point x="896.6666666666666" y="922.3333333333334"/>
      <point x="871.6666666666666" y="769.6666666666666" type="curve" smooth="yes"/>
      <point x="867.6666666666666" y="744.0" type="line" smooth="yes"/>
      <point x="853.6666666666666" y="660.3333333333334"/>
      <point x="747.3333333333334" y="658.3333333333334"/>
      <point x="557.6666666666666" y="635.3333333333334" type="curve" smooth="yes"/>
      <point x="299.3333333333333" y="604.3333333333334"/>
      <point x="111.66666666666667" y="533.3333333333334"/>
      <point x="73.66666666666667" y="312.3333333333333" type="curve" smooth="yes"/>
      <point x="39.66666666666667" y="97.0"/>
      <point x="184.0" y="-25.0"/>
    </contour>
  </outline>
</glyph>
<glyph name="eth" format="2">
  <advance height="2479.0" width="1197.3333333333333"/>
  <unicode hex="00F0"/>
  <outline>
    <contour>
      <point x="1117.3333333333333" y="1431.0" type="line"/>
      <point x="1093.9999999999998" y="1518.3333333333333" type="line"/>
      <point x="460.66666666666663" y="1240.0" type="line"/>
      <point x="482.0" y="1152.6666666666667" type="line"/>
    </contour>
    <contour>
      <point x="503.3333333333333" y="-23.0" type="curve" smooth="yes"/>
      <point x="789.0" y="-23.0"/>
      <point x="1023.6666666666666" y="190.0"/>
      <point x="1081.3333333333335" y="547.3333333333334" type="curve" smooth="yes"/>
      <point x="1159.6666666666667" y="1024.3333333333333"/>
      <point x="907.0" y="1398.3333333333333"/>
      <point x="583.9999999999999" y="1583.0" type="curve"/>
      <point x="512.6666666666667" y="1485.3333333333333" type="line"/>
      <point x="813.0" y="1314.3333333333333"/>
      <point x="936.6666666666666" y="1065.6666666666667"/>
      <point x="975.0" y="845.3333333333334" type="curve"/>
      <point x="963.0" y="845.3333333333334" type="line"/>
      <point x="919.0" y="955.0"/>
      <point x="818.3333333333333" y="1052.0"/>
      <point x="652.3333333333334" y="1052.0" type="curve" smooth="yes"/>
      <point x="396.66666666666663" y="1052.0"/>
      <point x="158.33333333333334" y="828.6666666666667"/>
      <point x="106.0" y="514.3333333333334" type="curve" smooth="yes"/>
      <point x="56.333333333333336" y="206.33333333333331"/>
      <point x="214.99999999999997" y="-23.0"/>
    </contour>
    <contour>
      <point x="523.0" y="95.0" type="curve" smooth="yes"/>
      <point x="291.66666666666663" y="95.0"/>
      <point x="199.33333333333334" y="288.0"/>
      <point x="236.0" y="514.3333333333334" type="curve" smooth="yes"/>
      <point x="274.3333333333333" y="745.3333333333334"/>
      <point x="442.6666666666667" y="941.6666666666666"/>
      <point x="663.3333333333334" y="941.6666666666666" type="curve" smooth="yes"/>
      <point x="897.6666666666666" y="941.6666666666666"/>
      <point x="985.0" y="726.3333333333334"/>
      <point x="949.6666666666666" y="506.3333333333333" type="curve" smooth="yes"/>
      <point x="911.0" y="277.3333333333333"/>
      <point x="744.3333333333334" y="95.0"/>
    </contour>
  </outline>
</glyph>
<glyph name="divide" format="2">
  <advance height="2479.0" width="1334.3333333333333"/>
  <unicode hex="00F7"/>
  <outline>
    <contour>
      <point x="1132.6666666666667" y="643.6666666666666" type="line"/>
      <point x="231.0" y="643.6666666666666" type="line"/>
      <point x="210.66666666666666" y="519.6666666666666" type="line"/>
      <point x="1112.3333333333335" y="519.6666666666666" type="line"/>
    </contour>
    <contour>
      <point x="603.0" y="116.66666666666666" type="curve" smooth="yes"/>
      <point x="655.3333333333333" y="116.66666666666666"/>
      <point x="706.0" y="159.0"/>
      <point x="712.0" y="213.33333333333334" type="curve" smooth="yes"/>
      <point x="718.6666666666666" y="273.6666666666667"/>
      <point x="676.6666666666666" y="324.3333333333333"/>
      <point x="618.3333333333334" y="324.3333333333333" type="curve" smooth="yes"/>
      <point x="562.6666666666666" y="324.3333333333333"/>
      <point x="513.6666666666667" y="281.0"/>
      <point x="508.33333333333337" y="228.66666666666669" type="curve" smooth="yes"/>
      <point x="501.00000000000006" y="166.33333333333334"/>
      <point x="541.3333333333334" y="116.66666666666666"/>
    </contour>
    <contour>
      <point x="723.3333333333334" y="839.6666666666666" type="curve" smooth="yes"/>
      <point x="775.6666666666666" y="839.6666666666666"/>
      <point x="824.0" y="882.0"/>
      <point x="832.0" y="936.3333333333334" type="curve" smooth="yes"/>
      <point x="840.6666666666666" y="997.0"/>
      <point x="797.0" y="1047.3333333333333"/>
      <point x="738.6666666666667" y="1047.3333333333333" type="curve" smooth="yes"/>
      <point x="683.0" y="1047.3333333333333"/>
      <point x="634.3333333333334" y="1005.0"/>
      <point x="626.3333333333334" y="952.3333333333334" type="curve" smooth="yes"/>
      <point x="617.0" y="890.6666666666666"/>
      <point x="661.6666666666666" y="839.6666666666666"/>
    </contour>
  </outline>
</glyph>
<glyph name="oslash" format="2">
  <advance height="2479.0" width="1210.6666666666665"/>
  <unicode hex="00F8"/>
  <anchor x="513.0" y="1.0" name="bottom"/>
  <anchor x="617.0" y="1.0" name="ogonek"/>
  <anchor x="729.0" y="1304.0" name="top"/>
  <outline>
    <contour>
      <point x="160.66666666666669" y="-50.333333333333336" type="line"/>
      <point x="1127.0" y="1102.6666666666667" type="line"/>
      <point x="1050.3333333333333" y="1161.3333333333333" type="line"/>
      <point x="81.99999999999999" y="9.0" type="line"/>
    </contour>
    <component base="o" xOffset="0.3333333333333333" yOffset="1.0"/>
  </outline>
</glyph>
<glyph name="thorn" format="2">
  <advance height="2479.0" width="1225.3333333333333"/>
  <unicode hex="00FE"/>
  <outline>
    <contour>
      <point x="322.66666666666663" y="1489.0" type="line"/>
      <point x="5.666666666666657" y="-419.0" type="line"/>
      <point x="136.0" y="-419.0" type="line"/>
      <point x="244.66666666666666" y="232.33333333333334" type="line"/>
      <point x="268.6666666666667" y="566.3333333333334" type="line"/>
      <point x="347.0" y="845.3333333333334" type="line"/>
      <point x="453.0" y="1489.0" type="line"/>
    </contour>
    <contour>
      <point x="305.0" y="904.0" type="line"/>
      <point x="185.66666666666666" y="207.66666666666666" type="line"/>
      <point x="252.0" y="207.66666666666666" type="line"/>
      <point x="281.0" y="105.0"/>
      <point x="355.0" y="-23.0"/>
      <point x="557.6666666666666" y="-23.0" type="curve" smooth="yes"/>
      <point x="830.6666666666666" y="-23.0"/>
      <point x="1056.0" y="209.66666666666666"/>
      <point x="1113.0" y="556.0" type="curve" smooth="yes"/>
      <point x="1170.0" y="901.0"/>
      <point x="1023.6666666666666" y="1133.0"/>
      <point x="747.6666666666666" y="1133.0" type="curve" smooth="yes"/>
      <point x="541.9999999999999" y="1133.0"/>
      <point x="429.6666666666667" y="1004.6666666666667"/>
      <point x="368.3333333333333" y="904.0" type="curve"/>
    </contour>
    <contour>
      <point x="983.6666666666666" y="558.0" type="curve" smooth="yes"/>
      <point x="939.6666666666666" y="297.6666666666667"/>
      <point x="781.3333333333334" y="95.0"/>
      <point x="559.6666666666667" y="95.0" type="curve" smooth="yes"/>
      <point x="343.0" y="95.0"/>
      <point x="253.0" y="287.6666666666667"/>
      <point x="297.0" y="558.0" type="curve" smooth="yes"/>
      <point x="340.6666666666667" y="825.3333333333334"/>
      <point x="498.3333333333333" y="1014.0"/>
      <point x="717.0" y="1014.0" type="curve" smooth="yes"/>
      <point x="941.6666666666666" y="1014.0"/>
      <point x="1024.6666666666665" y="815.3333333333334"/>
    </contour>
  </outline>
</glyph>
<glyph name="dcroat" format="2">
  <advance height="2479.0" width="1258.3333333333333"/>
  <unicode hex="0111"/>
  <anchor x="515.6666666666666" y="0.0" name="bottom"/>
  <anchor x="1114.0" y="1280.0" name="cross"/>
  <anchor x="1362.3333333333333" y="1489.0" name="raccent"/>
  <anchor x="741.3333333333334" y="1489.0" name="top"/>
  <outline>
    <contour>
      <point x="731.0" y="1228.3333333333333" type="line"/>
      <point x="1341.6666666666667" y="1228.3333333333333" type="line"/>
      <point x="1360.0" y="1332.6666666666667" type="line"/>
      <point x="749.0" y="1332.6666666666667" type="line"/>
    </contour>
    <component base="d"/>
  </outline>
</glyph>
<glyph name="Hbar" format="2">
  <advance height="2479.0" width="1570.6666666666667"/>
  <unicode hex="0126"/>
  <anchor x="690.3333333333334" y="0.0" name="bottom"/>
  <anchor x="214.00000000000003" y="-2.0" name="cedilla"/>
  <anchor x="1310.0" y="44.66666666666667" name="cyrtic"/>
  <anchor x="1248.0" y="0.0" name="right"/>
  <anchor x="341.6666666666667" y="1489.0" name="tonos"/>
  <anchor x="975.6666666666667" y="1678.0" name="top"/>
  <outline>
    <contour>
      <point x="1558.3333333333333" y="1143.0" type="line"/>
      <point x="205.00000000000003" y="1143.0" type="line"/>
      <point x="186.00000000000003" y="1027.0" type="line"/>
      <point x="1540.0" y="1027.0" type="line"/>
    </contour>
    <component base="H" xOffset="28.333333333333336"/>
  </outline>
</glyph>
<glyph name="kgreenlandic" format="2">
  <advance height="2479.0" width="1075.3333333333333"/>
  <unicode hex="0138"/>
  <outline>
    <contour>
      <point x="265.6666666666667" y="421.6666666666667" type="line"/>
      <point x="482.0" y="597.6666666666666" type="line"/>
      <point x="493.3333333333333" y="599.6666666666666" type="line"/>
      <point x="1096.6666666666665" y="1117.0" type="line"/>
      <point x="931.0" y="1117.0" type="line"/>
      <point x="321.0" y="592.6666666666666" type="line"/>
      <point x="292.0" y="592.6666666666666" type="line"/>
    </contour>
    <contour>
      <point x="77.66666666666666" y="0.0" type="line"/>
      <point x="207.66666666666669" y="0.0" type="line"/>
      <point x="393.6666666666667" y="1117.0" type="line"/>
      <point x="263.66666666666663" y="1117.0" type="line"/>
    </contour>
    <contour>
      <point x="776.0" y="0.0" type="line"/>
      <point x="939.6666666666667" y="0.0" type="line"/>
      <point x="521.6666666666666" y="663.3333333333334" type="line"/>
      <point x="416.3333333333333" y="574.3333333333334" type="line"/>
    </contour>
  </outline>
</glyph>
<glyph name="Lslash" format="2">
  <advance height="2479.0" width="1136.3333333333333"/>
  <unicode hex="0141"/>
  <anchor x="511.6666666666667" y="0.0" name="bottom"/>
  <anchor x="278.99999999999994" y="768.0" name="cross"/>
  <anchor x="619.6666666666666" y="778.6666666666666" name="dot"/>
  <anchor x="748.6666666666667" y="1489.0" name="raccent"/>
  <anchor x="432.66666666666663" y="1676.0" name="top"/>
  <outline>
    <contour>
      <point x="593.3333333333334" y="915.3333333333333" type="line"/>
      <point x="37.0" y="729.3333333333333" type="line"/>
      <point x="41.0" y="627.0" type="line"/>
      <point x="596.3333333333334" y="813.0" type="line"/>
    </contour>
    <component base="L" xOffset="-21.333333333333332"/>
  </outline>
</glyph>
<glyph name="lslash" format="2">
  <advance height="2479.0" width="458.6666666666667"/>
  <unicode hex="0142"/>
  <anchor x="137.0" y="0.0" name="bottom"/>
  <anchor x="265.6666666666667" y="768.0" name="cross"/>
  <anchor x="590.3333333333333" y="1489.0" name="raccent"/>
  <anchor x="415.3333333333333" y="1676.0" name="top"/>
  <outline>
    <contour>
      <point x="518.3333333333333" y="913.6666666666666" type="line"/>
      <point x="30.333333333333332" y="728.3333333333334" type="line"/>
      <point x="9.666666666666666" y="624.6666666666666" type="line"/>
      <point x="502.0" y="809.6666666666667" type="line"/>
    </contour>
    <component base="l" xOffset="-5.666666666666666"/>
  </outline>
</glyph>
<glyph name="Eng" format="2">
  <advance height="2479.0" width="1556.3333333333335"/>
  <unicode hex="014A"/>
  <anchor x="684.6666666666666" y="0.0" name="bottom"/>
  <anchor x="1245.6666666666665" y="0.0" name="right"/>
  <anchor x="963.6666666666666" y="1676.0" name="top"/>
  <outline>
    <contour>
      <point x="1132.6666666666667" y="0.0" type="line"/>
      <point x="1107.6666666666667" y="-133.66666666666666" type="line" smooth="yes"/>
      <point x="1084.0" y="-255.66666666666669"/>
      <point x="1015.6666666666666" y="-301.6666666666667"/>
      <point x="917.6666666666666" y="-301.6666666666667" type="curve" smooth="yes"/>
      <point x="897.6666666666667" y="-301.6666666666667"/>
      <point x="878.6666666666666" y="-299.0"/>
      <point x="864.3333333333334" y="-296.0" type="curve"/>
      <point x="846.6666666666666" y="-410.0" type="line"/>
      <point x="867.0" y="-417.3333333333333"/>
      <point x="899.3333333333333" y="-418.0"/>
      <point x="929.6666666666666" y="-418.0" type="curve" smooth="yes"/>
      <point x="1082.3333333333333" y="-418.0"/>
      <point x="1205.0" y="-318.0"/>
      <point x="1239.3333333333333" y="-135.66666666666666" type="curve" smooth="yes"/>
      <point x="1264.3333333333333" y="0.0" type="line"/>
    </contour>
    <component base="N"/>
  </outline>
</glyph>
<glyph name="eng" format="2">
  <advance height="2479.0" width="1189.0"/>
  <unicode hex="014B"/>
  <anchor x="500.33333333333337" y="0.0" name="bottom"/>
  <anchor x="716.3333333333334" y="1303.0" name="top"/>
  <outline>
    <contour>
      <point x="793.3333333333334" y="0.0" type="line"/>
      <point x="770.3333333333334" y="-136.66666666666666" type="line" smooth="yes"/>
      <point x="750.3333333333334" y="-257.0"/>
      <point x="677.0" y="-304.6666666666667"/>
      <point x="584.0" y="-304.6666666666667" type="curve" smooth="yes"/>
      <point x="563.6666666666666" y="-304.6666666666667"/>
      <point x="540.6666666666666" y="-301.66666666666663"/>
      <point x="524.3333333333334" y="-297.0" type="curve"/>
      <point x="505.33333333333337" y="-408.6666666666667" type="line"/>
      <point x="527.0" y="-417.6666666666667"/>
      <point x="560.0" y="-419.0"/>
      <point x="592.6666666666666" y="-419.0" type="curve" smooth="yes"/>
      <point x="744.3333333333334" y="-419.0"/>
      <point x="869.6666666666666" y="-319.0"/>
      <point x="900.3333333333334" y="-136.66666666666666" type="curve" smooth="yes"/>
      <point x="923.0" y="0.0" type="line"/>
    </contour>
    <component base="n"/>
  </outline>
</glyph>
<glyph name="OE" format="2">
  <advance height="2479.0" width="1928.3333333333335"/>
  <unicode hex="0152"/>
  <anchor x="1229.0" y="0.0" name="bottom"/>
  <anchor x="1232.0" y="0.0" name="cedilla"/>
  <anchor x="1696.3333333333335" y="0.0" name="ogonek"/>
  <anchor x="1016.6666666666666" y="1489.0" name="tonos"/>
  <anchor x="1528.6666666666665" y="1676.0" name="top"/>
  <outline>
    <contour>
      <point x="679.0" y="0.0" type="curve" smooth="yes"/>
      <point x="874.0" y="0.0" type="line"/>
      <point x="896.3333333333334" y="122.33333333333334" type="line"/>
      <point x="701.3333333333334" y="122.33333333333334" type="line" smooth="yes"/>
      <point x="392.0" y="122.33333333333334"/>
      <point x="229.66666666666666" y="372.0"/>
      <point x="292.6666666666667" y="745.0" type="curve" smooth="yes"/>
      <point x="355.0" y="1118.3333333333333"/>
      <point x="602.0000000000001" y="1368.0"/>
      <point x="906.0" y="1367.0" type="curve" smooth="yes"/>
      <point x="1101.0000000000002" y="1367.0" type="line"/>
      <point x="1121.3333333333335" y="1489.0" type="line"/>
      <point x="926.6666666666666" y="1489.0" type="line" smooth="yes"/>
      <point x="541.3333333333334" y="1489.0"/>
      <point x="234.0" y="1193.3333333333333"/>
      <point x="160.33333333333331" y="745.0" type="curve" smooth="yes"/>
      <point x="86.99999999999999" y="301.0"/>
      <point x="296.3333333333333" y="0.0"/>
    </contour>
    <component base="E" xOffset="713.0"/>
  </outline>
</glyph>
<glyph name="tbar" format="2">
  <advance height="2479.0" width="740.0"/>
  <unicode hex="0167"/>
  <anchor x="333.3333333333333" y="0.0" name="bottom"/>
  <anchor x="399.3333333333333" y="0.0" name="cedilla"/>
  <anchor x="674.6666666666666" y="1562.0" name="raccent"/>
  <anchor x="470.0" y="1489.0" name="top"/>
  <outline>
    <contour>
      <point x="93.0" y="640.6666666666666" type="line"/>
      <point x="641.0" y="640.6666666666666" type="line"/>
      <point x="659.3333333333333" y="745.3333333333334" type="line"/>
      <point x="112.33333333333334" y="745.3333333333334" type="line"/>
    </contour>
    <component base="t" xOffset="5.666666666666666"/>
  </outline>
</glyph>
<glyph name="Bhook" format="2">
  <advance height="2479.0" width="1598.6666666666667"/>
  <unicode hex="0181"/>
  <anchor x="823.3333333333334" y="0.0" name="bottom"/>
  <anchor x="1090.6666666666665" y="1676.0" name="top"/>
  <outline>
    <contour>
      <point x="644.0" y="1367.0" type="line"/>
      <point x="665.0" y="1489.0" type="line"/>
      <point x="524.0000000000001" y="1489.0" type="line" smooth="yes"/>
      <point x="350.3333333333333" y="1489.0"/>
      <point x="240.66666666666666" y="1373.0"/>
      <point x="217.66666666666669" y="1222.0" type="curve" smooth="yes"/>
      <point x="204.66666666666669" y="1138.6666666666667" type="line"/>
      <point x="332.6666666666667" y="1138.6666666666667" type="line"/>
      <point x="340.3333333333333" y="1184.0" type="line" smooth="yes"/>
      <point x="356.3333333333333" y="1287.3333333333335"/>
      <point x="391.0" y="1367.0"/>
      <point x="506.6666666666667" y="1367.0" type="curve" smooth="yes"/>
    </contour>
    <component base="B" xOffset="273.3333333333333"/>
  </outline>
</glyph>
<glyph name="Btopbar" format="2">
  <advance height="2479.0" width="1337.3333333333333"/>
  <unicode hex="0182"/>
  <outline>
    <contour>
      <point x="104.66666666666666" y="0.0" type="line"/>
      <point x="663.3333333333334" y="0.0" type="line" smooth="yes"/>
      <point x="965.9999999999999" y="0.0"/>
      <point x="1160.3333333333333" y="168.66666666666666"/>
      <point x="1202.0" y="424.66666666666663" type="curve" smooth="yes"/>
      <point x="1243.6666666666665" y="673.0"/>
      <point x="1097.0" y="835.0"/>
      <point x="801.3333333333334" y="835.0" type="curve" smooth="yes"/>
      <point x="378.6666666666667" y="835.0" type="line"/>
      <point x="467.6666666666667" y="1367.0" type="line"/>
      <point x="1200.3333333333333" y="1367.0" type="line"/>
      <point x="1220.6666666666665" y="1489.0" type="line"/>
      <point x="352.3333333333333" y="1489.0" type="line"/>
    </contour>
    <contour>
      <point x="261.0" y="120.33333333333334" type="line"/>
      <point x="358.33333333333337" y="712.6666666666666" type="line"/>
      <point x="781.0" y="712.6666666666666" type="line" smooth="yes"/>
      <point x="992.6666666666666" y="712.6666666666666"/>
      <point x="1095.6666666666667" y="590.6666666666666"/>
      <point x="1068.3333333333333" y="427.66666666666663" type="curve" smooth="yes"/>
      <point x="1040.0" y="258.0"/>
      <point x="897.0" y="120.33333333333334"/>
      <point x="683.6666666666667" y="120.33333333333334" type="curve" smooth="yes"/>
    </contour>
  </outline>
</glyph>
<glyph name="btopbar" format="2">
  <advance height="2479.0" width="1255.6666666666667"/>
  <unicode hex="0183"/>
  <anchor x="560.6666666666667" y="0.0" name="bottom"/>
  <anchor x="383.0" y="1280.0" name="cross"/>
  <anchor x="797.0" y="1303.0" name="top"/>
  <outline>
    <contour>
      <point x="1158.6666666666667" y="1489.0" type="line"/>
      <point x="458.6666666666667" y="1489.0" type="line"/>
      <point x="436.33333333333337" y="1367.0" type="line"/>
      <point x="1138.3333333333335" y="1367.0" type="line"/>
    </contour>
    <component base="b"/>
  </outline>
</glyph>
<glyph name="Tonesix" format="2">
  <advance height="2479.0" width="1405.3333333333333"/>
  <unicode hex="0184"/>
  <outline>
    <contour>
      <point x="649.3333333333333" y="1489.0" type="line"/>
      <point x="174.0" y="1489.0" type="line"/>
      <point x="153.0" y="1367.0" type="line"/>
      <point x="632.9999999999999" y="1367.0" type="line"/>
    </contour>
    <contour>
      <point x="507.33333333333326" y="835.0" type="line"/>
      <point x="487.0" y="712.6666666666666" type="line"/>
      <point x="947.3333333333334" y="712.6666666666666" type="line"/>
      <point x="1158.0" y="712.6666666666666"/>
      <point x="1261.0" y="590.6666666666666"/>
      <point x="1234.6666666666667" y="427.66666666666663" type="curve"/>
      <point x="1206.0" y="258.0"/>
      <point x="1063.0" y="120.33333333333334"/>
      <point x="850.0" y="120.33333333333334" type="curve"/>
      <point x="427.3333333333333" y="120.33333333333334" type="line"/>
      <point x="653.6666666666666" y="1489.0" type="line"/>
      <point x="518.6666666666666" y="1489.0" type="line"/>
      <point x="270.66666666666663" y="0.0" type="line"/>
      <point x="829.6666666666666" y="0.0" type="line"/>
      <point x="1131.3333333333333" y="0.0"/>
      <point x="1325.6666666666667" y="169.0"/>
      <point x="1368.0" y="424.66666666666663" type="curve"/>
      <point x="1409.6666666666667" y="673.3333333333333"/>
      <point x="1261.6666666666667" y="835.0"/>
      <point x="967.3333333333334" y="835.0" type="curve"/>
    </contour>
  </outline>
</glyph>
<glyph name="tonesix" format="2">
  <advance height="2479.0" width="1172.3333333333335"/>
  <unicode hex="0185"/>
  <outline>
    <contour>
      <point x="627.3333333333334" y="-23.0" type="curve" smooth="yes"/>
      <point x="827.6666666666666" y="-23.0"/>
      <point x="991.3333333333334" y="149.0"/>
      <point x="1035.0" y="412.0" type="curve" smooth="yes"/>
      <point x="1079.3333333333335" y="681.0"/>
      <point x="957.6666666666666" y="847.0"/>
      <point x="769.6666666666667" y="847.6666666666666" type="curve" smooth="yes"/>
      <point x="632.3333333333334" y="847.0"/>
      <point x="534.6666666666667" y="754.3333333333334"/>
      <point x="485.0" y="657.6666666666666" type="curve"/>
      <point x="477.6666666666667" y="657.6666666666666" type="line"/>
      <point x="553.6666666666666" y="1117.0" type="line"/>
      <point x="428.66666666666663" y="1117.0" type="line"/>
      <point x="414.3333333333333" y="1034.3333333333335" type="line"/>
      <point x="409.66666666666663" y="1031.3333333333335" type="line"/>
      <point x="237.33333333333331" y="0.3333333333333333" type="line"/>
      <point x="363.0" y="0.3333333333333333" type="line"/>
      <point x="384.33333333333337" y="148.33333333333334" type="line"/>
      <point x="394.33333333333337" y="148.33333333333334" type="line"/>
      <point x="417.6666666666667" y="43.0"/>
      <point x="500.33333333333337" y="-23.0"/>
    </contour>
    <contour>
      <point x="610.0" y="95.0" type="curve" smooth="yes"/>
      <point x="461.3333333333333" y="95.66666666666667"/>
      <point x="403.6666666666667" y="222.66666666666666"/>
      <point x="435.6666666666667" y="417.6666666666667" type="curve" smooth="yes"/>
      <point x="464.0" y="595.3333333333334"/>
      <point x="573.6666666666666" y="729.6666666666667"/>
      <point x="720.0" y="729.3333333333334" type="curve" smooth="yes"/>
      <point x="869.0" y="729.6666666666667"/>
      <point x="937.0" y="594.6666666666666"/>
      <point x="904.6666666666667" y="408.0" type="curve" smooth="yes"/>
      <point x="874.6666666666667" y="220.66666666666666"/>
      <point x="752.3333333333333" y="95.66666666666667"/>
    </contour>
    <contour>
      <point x="160.33333333333334" y="745.3333333333334" type="line"/>
      <point x="498.3333333333333" y="1033.3333333333333" type="line"/>
      <point x="428.66666666666663" y="1117.0" type="line"/>
      <point x="90.00000000000001" y="828.6666666666666" type="line"/>
    </contour>
  </outline>
</glyph>
<glyph name="Chook" format="2">
  <advance height="2479.0" width="1534.6666666666667"/>
  <unicode hex="0187"/>
  <anchor x="686.3333333333334" y="-8.0" name="cedilla"/>
  <anchor x="962.0" y="1676.0" name="top"/>
  <outline>
    <contour>
      <point x="1439.3333333333333" y="1024.0" type="line"/>
      <point x="1475.3333333333333" y="1235.3333333333333" type="line" smooth="yes"/>
      <point x="1494.3333333333333" y="1351.3333333333333"/>
      <point x="1560.6666666666667" y="1387.3333333333333"/>
      <point x="1643.6666666666665" y="1387.3333333333333" type="curve" smooth="yes"/>
      <point x="1662.6666666666665" y="1387.3333333333333"/>
      <point x="1681.0" y="1385.6666666666667"/>
      <point x="1696.3333333333333" y="1382.6666666666667" type="curve"/>
      <point x="1714.3333333333333" y="1494.6666666666665" type="line"/>
      <point x="1692.6666666666667" y="1501.6666666666667"/>
      <point x="1661.6666666666667" y="1502.3333333333333"/>
      <point x="1633.6666666666667" y="1502.3333333333333" type="curve" smooth="yes"/>
      <point x="1491.6666666666667" y="1502.3333333333333"/>
      <point x="1374.6666666666665" y="1409.6666666666667"/>
      <point x="1345.0" y="1236.3333333333333" type="curve" smooth="yes"/>
      <point x="1309.0" y="1024.0" type="line"/>
    </contour>
    <component base="C"/>
  </outline>
</glyph>
<glyph name="chook" format="2">
  <advance height="2479.0" width="1228.6666666666667"/>
  <unicode hex="0188"/>
  <anchor x="513.6666666666667" y="0.0" name="cedilla"/>
  <anchor x="720.6666666666667" y="1303.0" name="top"/>
  <outline>
    <contour>
      <point x="1070.6666666666667" y="785.6666666666666" type="line"/>
      <point x="1097.6666666666667" y="939.6666666666666" type="line" smooth="yes"/>
      <point x="1118.0" y="1055.6666666666667"/>
      <point x="1183.3333333333333" y="1096.6666666666667"/>
      <point x="1277.6666666666665" y="1096.6666666666667" type="curve" smooth="yes"/>
      <point x="1297.0" y="1096.6666666666667"/>
      <point x="1319.3333333333333" y="1094.0"/>
      <point x="1338.0" y="1091.0" type="curve"/>
      <point x="1355.6666666666667" y="1204.0" type="line"/>
      <point x="1331.6666666666665" y="1211.0"/>
      <point x="1297.3333333333333" y="1211.3333333333333"/>
      <point x="1268.3333333333333" y="1211.3333333333333" type="curve" smooth="yes"/>
      <point x="1116.3333333333335" y="1211.3333333333333"/>
      <point x="999.3333333333334" y="1117.0"/>
      <point x="968.0" y="939.6666666666666" type="curve" smooth="yes"/>
      <point x="940.3333333333334" y="785.6666666666666" type="line"/>
    </contour>
    <component base="c"/>
  </outline>
</glyph>
<glyph name="Dhook" format="2">
  <advance height="2479.0" width="1757.0"/>
  <unicode hex="018A"/>
  <anchor x="743.6666666666667" y="0.0" name="bottom"/>
  <anchor x="610.0" y="764.0" name="cross"/>
  <anchor x="1218.9999999999998" y="1676.0" name="top"/>
  <outline>
    <contour>
      <point x="204.66666666666669" y="1138.6666666666667" type="line"/>
      <point x="332.6666666666667" y="1138.6666666666667" type="line"/>
      <point x="340.3333333333333" y="1184.0" type="line" smooth="yes"/>
      <point x="356.0" y="1287.3333333333335"/>
      <point x="390.0" y="1367.0"/>
      <point x="506.6666666666667" y="1367.0" type="curve" smooth="yes"/>
      <point x="648.6666666666666" y="1367.0" type="line"/>
      <point x="670.0" y="1489.0" type="line"/>
      <point x="524.0000000000001" y="1489.0" type="line" smooth="yes"/>
      <point x="349.6666666666667" y="1489.0"/>
      <point x="239.66666666666666" y="1373.0"/>
      <point x="217.66666666666669" y="1222.0" type="curve" smooth="yes"/>
    </contour>
    <component base="D" xOffset="287.3333333333333"/>
  </outline>
</glyph>
<glyph name="Dtopbar" format="2">
  <advance height="2479.0" width="1352.6666666666665"/>
  <unicode hex="018B"/>
  <outline>
    <contour>
      <point x="510.33333333333337" y="0.0" type="curve" smooth="yes"/>
      <point x="1064.0" y="0.0" type="line"/>
      <point x="1310.0" y="1489.0" type="line"/>
      <point x="441.0" y="1489.0" type="line"/>
      <point x="421.3333333333333" y="1367.0" type="line"/>
      <point x="1154.6666666666667" y="1367.0" type="line"/>
      <point x="1066.3333333333333" y="835.0" type="line"/>
      <point x="640.0" y="835.0" type="line" smooth="yes"/>
      <point x="342.0" y="835.0"/>
      <point x="150.0" y="679.6666666666667"/>
      <point x="108.66666666666666" y="436.3333333333333" type="curve" smooth="yes"/>
      <point x="66.66666666666666" y="176.33333333333334"/>
      <point x="210.66666666666666" y="0.0"/>
    </contour>
    <contour>
      <point x="521.0" y="120.33333333333334" type="line" smooth="yes"/>
      <point x="308.33333333333337" y="120.33333333333334"/>
      <point x="213.33333333333334" y="253.66666666666666"/>
      <point x="241.0" y="422.0" type="curve" smooth="yes"/>
      <point x="268.6666666666667" y="586.3333333333333"/>
      <point x="417.33333333333337" y="712.6666666666666"/>
      <point x="628.0" y="712.6666666666666" type="curve" smooth="yes"/>
      <point x="1046.0" y="712.6666666666666" type="line"/>
      <point x="948.3333333333334" y="120.33333333333334" type="line"/>
    </contour>
  </outline>
</glyph>
